# Blender 5.0.1
# www.blender.org
mtllib moon.mtl
o moon
v 0.195042 0.980785 -0.004341
v 0.382589 0.923880 -0.008515
v 0.555433 0.831470 -0.012361
v 0.706932 0.707107 -0.015733
v 0.831264 0.555570 -0.018500
v 0.923651 0.382683 -0.020556
v 0.980543 0.195090 -0.021822
v 0.831264 -0.555570 -0.018500
v 0.706932 -0.707107 -0.015733
v 0.555433 -0.831470 -0.012361
v 0.192141 0.980785 0.033793
v 0.376899 0.923880 0.066288
v 0.547172 0.831470 0.096236
v 0.696418 0.707107 0.122485
v 0.818900 0.555570 0.144027
v 0.909913 0.382683 0.160034
v 0.965959 0.195090 0.169892
v 0.984883 -0.000000 0.173220
v 0.965959 -0.195090 0.169892
v 0.909914 -0.382683 0.160034
v 0.818901 -0.555570 0.144027
v 0.696418 -0.707107 0.122485
v 0.547172 -0.831470 0.096236
v 0.376899 -0.923880 0.066288
v 0.192141 -0.980785 0.033794
v 0.181857 0.980785 0.070629
v 0.356724 0.923880 0.138544
v 0.517883 0.831470 0.201135
v 0.659141 0.707107 0.255996
v 0.775067 0.555570 0.301019
v 0.861209 0.382683 0.334475
v 0.914254 0.195090 0.355076
v 0.932166 -0.000000 0.362033
v 0.914254 -0.195090 0.355076
v 0.861209 -0.382683 0.334475
v 0.775067 -0.555570 0.301019
v 0.659141 -0.707107 0.255996
v 0.517883 -0.831470 0.201135
v 0.356724 -0.923880 0.138544
v 0.181857 -0.980785 0.070629
v 0.164583 0.980785 0.104750
v 0.322841 0.923880 0.205475
v 0.468693 0.831470 0.298304
v 0.596533 0.707107 0.379669
v 0.701449 0.555570 0.446443
v 0.779408 0.382683 0.496061
v 0.827415 0.195090 0.526616
v 0.843625 -0.000000 0.536933
v 0.827415 -0.195090 0.526616
v 0.779408 -0.382683 0.496061
v 0.701449 -0.555570 0.446443
v 0.596533 -0.707107 0.379669
v 0.468693 -0.831470 0.298304
v 0.322841 -0.923880 0.205475
v 0.164583 -0.980785 0.104750
v 0.140985 0.980785 0.134846
v 0.276552 0.923880 0.264510
v 0.401491 0.831470 0.384010
v 0.511001 0.707107 0.488751
v 0.600874 0.555570 0.574711
v 0.667655 0.382683 0.638584
v 0.708779 0.195090 0.677918
v 0.722664 -0.000000 0.691199
v 0.708779 -0.195090 0.677918
v 0.667655 -0.382683 0.638585
v 0.600874 -0.555570 0.574711
v 0.511001 -0.707107 0.488751
v 0.401491 -0.831470 0.384010
v 0.276552 -0.923880 0.264510
v 0.140985 -0.980785 0.134846
v 0.111969 0.980785 0.159760
v 0.219635 0.923880 0.313381
v 0.318860 0.831470 0.454958
v 0.405832 0.707107 0.579051
v 0.477207 0.555570 0.680893
v 0.530245 0.382683 0.756567
v 0.562905 0.195090 0.803168
v 0.573932 -0.000000 0.818902
v 0.562905 -0.195090 0.803168
v 0.530245 -0.382683 0.756567
v 0.477207 -0.555570 0.680893
v 0.405832 -0.707107 0.579052
v 0.318860 -0.831470 0.454958
v 0.219635 -0.923880 0.313381
v 0.111969 -0.980785 0.159760
v 0.078650 0.980785 0.178534
v 0.154277 0.923880 0.350208
v 0.223975 0.831470 0.508422
v 0.285066 0.707107 0.647099
v 0.335202 0.555570 0.760908
v 0.372457 0.382683 0.845476
v 0.395398 0.195090 0.897552
v 0.403144 -0.000000 0.915136
v 0.395398 -0.195090 0.897552
v 0.372457 -0.382683 0.845476
v 0.335202 -0.555570 0.760908
v 0.285066 -0.707107 0.647099
v 0.223975 -0.831470 0.508423
v 0.154277 -0.923880 0.350208
v 0.078650 -0.980785 0.178534
v 0.042308 0.980785 0.190448
v 0.082990 0.923880 0.373576
v 0.120483 0.831470 0.542349
v 0.153346 0.707107 0.690279
v 0.180316 0.555570 0.811682
v 0.200356 0.382683 0.901893
v 0.212697 0.195090 0.957444
v 0.216864 -0.000000 0.976202
v 0.212697 -0.195090 0.957444
v 0.200356 -0.382683 0.901893
v 0.180316 -0.555570 0.811682
v 0.153346 -0.707107 0.690279
v 0.120483 -0.831470 0.542349
v 0.082990 -0.923880 0.373576
v 0.042308 -0.980785 0.190448
v 0.004341 0.980785 0.195042
v 0.008515 0.923880 0.382589
v 0.012361 0.831470 0.555433
v 0.015733 0.707107 0.706932
v 0.018500 0.555570 0.831264
v 0.020556 0.382683 0.923651
v 0.021822 0.195090 0.980542
v 0.022250 -0.000000 0.999752
v 0.021822 -0.195090 0.980542
v 0.020556 -0.382683 0.923651
v 0.018500 -0.555570 0.831264
v 0.015733 -0.707107 0.706932
v 0.012361 -0.831470 0.555433
v 0.008515 -0.923880 0.382589
v 0.004341 -0.980785 0.195042
v -0.033794 0.980785 0.192141
v -0.066288 0.923880 0.376899
v -0.096236 0.831470 0.547172
v -0.122485 0.707107 0.696417
v -0.144027 0.555570 0.818900
v -0.160034 0.382683 0.909913
v -0.169891 0.195090 0.965959
v -0.173220 -0.000000 0.984883
v -0.169891 -0.195090 0.965959
v -0.160034 -0.382683 0.909913
v -0.144027 -0.555570 0.818900
v -0.122485 -0.707107 0.696418
v -0.096236 -0.831470 0.547172
v -0.066288 -0.923880 0.376899
v -0.033794 -0.980785 0.192141
v -0.070629 0.980785 0.181856
v -0.138544 0.923880 0.356724
v -0.201135 0.831470 0.517883
v -0.255996 0.707107 0.659140
v -0.301019 0.555570 0.775067
v -0.334475 0.382683 0.861208
v -0.355076 0.195090 0.914254
v -0.362033 -0.000000 0.932165
v -0.355076 -0.195090 0.914254
v -0.334475 -0.382683 0.861208
v -0.301019 -0.555570 0.775067
v -0.255996 -0.707107 0.659140
v -0.201135 -0.831470 0.517883
v -0.138544 -0.923880 0.356724
v -0.070629 -0.980785 0.181856
v -0.104750 0.980785 0.164583
v -0.205475 0.923880 0.322841
v -0.298304 0.831470 0.468693
v -0.379669 0.707107 0.596533
v -0.446443 0.555570 0.701448
v -0.496061 0.382683 0.779408
v -0.526616 0.195090 0.827415
v -0.536933 -0.000000 0.843625
v -0.526616 -0.195090 0.827415
v -0.496061 -0.382683 0.779408
v -0.446443 -0.555570 0.701448
v -0.379669 -0.707107 0.596533
v -0.298304 -0.831470 0.468693
v -0.205475 -0.923880 0.322841
v -0.104750 -0.980785 0.164583
v -0.134846 0.980785 0.140985
v -0.264510 0.923880 0.276552
v -0.384009 0.831470 0.401491
v -0.488751 0.707107 0.511001
v -0.574711 0.555570 0.600873
v -0.638584 0.382683 0.667655
v -0.677918 0.195090 0.708779
v -0.691199 -0.000000 0.722664
v -0.677918 -0.195090 0.708779
v -0.638584 -0.382683 0.667655
v -0.574711 -0.555570 0.600873
v -0.488751 -0.707107 0.511001
v -0.384009 -0.831470 0.401491
v -0.264510 -0.923880 0.276552
v -0.134846 -0.980785 0.140985
v -0.159760 0.980785 0.111969
v -0.313380 0.923880 0.219634
v -0.454958 0.831470 0.318860
v -0.579051 0.707107 0.405832
v -0.680892 0.555570 0.477207
v -0.756567 0.382683 0.530244
v -0.803167 0.195090 0.562904
v -0.818902 -0.000000 0.573932
v -0.803167 -0.195090 0.562904
v -0.756567 -0.382683 0.530244
v -0.680892 -0.555570 0.477207
v -0.579051 -0.707107 0.405832
v -0.454958 -0.831470 0.318860
v -0.313381 -0.923880 0.219635
v -0.159760 -0.980785 0.111969
v -0.178534 0.980785 0.078650
v -0.350208 0.923880 0.154277
v -0.508422 0.831470 0.223975
v -0.647099 0.707107 0.285066
v -0.760908 0.555570 0.335202
v -0.845475 0.382683 0.372457
v -0.897552 0.195090 0.395398
v -0.915136 -0.000000 0.403144
v -0.897552 -0.195090 0.395398
v -0.845476 -0.382683 0.372457
v -0.760908 -0.555570 0.335202
v -0.647099 -0.707107 0.285066
v -0.508422 -0.831470 0.223975
v -0.350208 -0.923880 0.154277
v -0.178534 -0.980785 0.078650
v -0.190448 0.980785 0.042308
v -0.373576 0.923880 0.082990
v -0.542349 0.831470 0.120483
v -0.690279 0.707107 0.153346
v -0.811682 0.555570 0.180316
v -0.901893 0.382683 0.200356
v -0.957444 0.195090 0.212697
v -0.976201 -0.000000 0.216864
v -0.957444 -0.195090 0.212697
v -0.901893 -0.382683 0.200356
v -0.811682 -0.555570 0.180316
v -0.690279 -0.707107 0.153346
v -0.542349 -0.831470 0.120483
v -0.373576 -0.923880 0.082990
v -0.190447 -0.980785 0.042308
v -0.195042 0.980785 0.004341
v -0.382589 0.923880 0.008514
v -0.555432 0.831470 0.012361
v -0.706932 0.707107 0.015733
v -0.831263 0.555570 0.018500
v -0.923651 0.382683 0.020556
v -0.980542 0.195090 0.021822
v -0.999752 -0.000000 0.022249
v -0.980542 -0.195090 0.021822
v -0.923651 -0.382683 0.020556
v -0.831263 -0.555570 0.018500
v -0.706932 -0.707107 0.015733
v -0.555432 -0.831470 0.012361
v -0.382589 -0.923880 0.008515
v -0.195042 -0.980785 0.004341
v -0.192141 0.980785 -0.033794
v -0.376899 0.923880 -0.066289
v -0.547172 0.831470 -0.096236
v -0.696417 0.707107 -0.122485
v -0.818900 0.555570 -0.144027
v -0.909913 0.382683 -0.160034
v -0.965958 0.195090 -0.169892
v -0.984882 -0.000000 -0.173220
v -0.965958 -0.195090 -0.169892
v -0.909913 -0.382683 -0.160034
v -0.818900 -0.555570 -0.144027
v -0.696417 -0.707107 -0.122485
v -0.547172 -0.831470 -0.096236
v -0.376899 -0.923880 -0.066288
v -0.192141 -0.980785 -0.033794
v -0.181856 0.980785 -0.070629
v -0.356724 0.923880 -0.138544
v -0.517883 0.831470 -0.201135
v -0.659140 0.707107 -0.255996
v -0.775067 0.555570 -0.301019
v -0.861208 0.382683 -0.334474
v -0.914254 0.195090 -0.355076
v -0.932165 -0.000000 -0.362033
v -0.914254 -0.195090 -0.355076
v -0.861208 -0.382683 -0.334475
v -0.775067 -0.555570 -0.301019
v -0.659140 -0.707107 -0.255996
v -0.517883 -0.831470 -0.201135
v -0.356724 -0.923880 -0.138544
v -0.181856 -0.980785 -0.070629
v -0.164583 0.980785 -0.104750
v -0.322841 0.923880 -0.205475
v -0.468693 0.831470 -0.298304
v -0.596533 0.707107 -0.379669
v -0.701448 0.555570 -0.446443
v -0.779408 0.382683 -0.496061
v -0.827415 0.195090 -0.526616
v -0.843624 -0.000000 -0.536933
v -0.827415 -0.195090 -0.526616
v -0.779408 -0.382683 -0.496061
v -0.701448 -0.555570 -0.446443
v -0.596533 -0.707107 -0.379669
v -0.468693 -0.831470 -0.298304
v -0.322841 -0.923880 -0.205475
v -0.164583 -0.980785 -0.104750
v -0.140985 0.980785 -0.134846
v -0.276552 0.923880 -0.264510
v -0.401491 0.831470 -0.384009
v -0.511001 0.707107 -0.488751
v -0.600873 0.555570 -0.574711
v -0.667655 0.382683 -0.638584
v -0.708778 0.195090 -0.677917
v -0.722664 -0.000000 -0.691199
v -0.708778 -0.195090 -0.677917
v -0.667655 -0.382683 -0.638584
v -0.600873 -0.555570 -0.574711
v -0.511001 -0.707107 -0.488751
v -0.401491 -0.831470 -0.384009
v -0.276552 -0.923880 -0.264510
v -0.140985 -0.980785 -0.134846
v -0.111969 0.980785 -0.159760
v -0.219634 0.923880 -0.313381
v -0.318860 0.831470 -0.454958
v -0.405831 0.707107 -0.579051
v -0.477207 0.555570 -0.680892
v -0.530244 0.382683 -0.756567
v -0.562904 0.195090 -0.803167
v -0.573932 -0.000000 -0.818902
v -0.562904 -0.195090 -0.803167
v -0.530244 -0.382683 -0.756567
v -0.477207 -0.555570 -0.680892
v -0.405831 -0.707107 -0.579051
v -0.318860 -0.831470 -0.454958
v -0.219634 -0.923880 -0.313380
v -0.111969 -0.980785 -0.159760
v -0.000000 1.000000 -0.000000
v -0.078650 0.980785 -0.178534
v -0.154277 0.923880 -0.350208
v -0.223975 0.831470 -0.508422
v -0.285066 0.707107 -0.647099
v -0.335202 0.555570 -0.760908
v -0.372457 0.382683 -0.845475
v -0.395398 0.195090 -0.897552
v -0.403144 -0.000000 -0.915136
v -0.395398 -0.195090 -0.897552
v -0.372457 -0.382683 -0.845475
v -0.335202 -0.555570 -0.760908
v -0.285066 -0.707107 -0.647099
v -0.223975 -0.831470 -0.508422
v -0.154277 -0.923880 -0.350207
v -0.078650 -0.980785 -0.178534
v -0.042308 0.980785 -0.190448
v -0.082990 0.923880 -0.373576
v -0.120483 0.831470 -0.542348
v -0.153346 0.707107 -0.690279
v -0.180316 0.555570 -0.811682
v -0.200356 0.382683 -0.901893
v -0.212697 0.195090 -0.957444
v -0.216863 -0.000000 -0.976201
v -0.212697 -0.195090 -0.957444
v -0.200356 -0.382683 -0.901893
v -0.180316 -0.555570 -0.811682
v -0.153346 -0.707107 -0.690279
v -0.120483 -0.831470 -0.542348
v -0.082990 -0.923880 -0.373576
v -0.042308 -0.980785 -0.190447
v -0.004341 0.980785 -0.195042
v -0.008514 0.923880 -0.382589
v -0.012361 0.831470 -0.555432
v -0.015733 0.707107 -0.706932
v -0.018500 0.555570 -0.831263
v -0.020556 0.382683 -0.923651
v -0.021822 0.195090 -0.980542
v -0.022249 -0.000000 -0.999752
v -0.021822 -0.195090 -0.980542
v -0.020556 -0.382683 -0.923651
v -0.018500 -0.555570 -0.831263
v -0.015733 -0.707107 -0.706931
v -0.012361 -0.831470 -0.555432
v -0.008514 -0.923880 -0.382589
v -0.004341 -0.980785 -0.195042
v 0.033794 0.980785 -0.192141
v 0.066288 0.923880 -0.376898
v 0.096236 0.831470 -0.547171
v 0.122485 0.707107 -0.696417
v 0.144027 0.555570 -0.818900
v 0.160034 0.382683 -0.909913
v 0.169892 0.195090 -0.965958
v 0.173220 -0.000000 -0.984882
v 0.169892 -0.195090 -0.965958
v 0.160035 -0.382683 -0.909913
v 0.144027 -0.555570 -0.818900
v 0.122485 -0.707107 -0.696417
v 0.096236 -0.831470 -0.547171
v 0.066288 -0.923880 -0.376898
v 0.033794 -0.980785 -0.192141
v 0.070629 0.980785 -0.181856
v 0.138544 0.923880 -0.356724
v 0.201135 0.831470 -0.517883
v 0.255996 0.707107 -0.659140
v 0.301019 0.555570 -0.775067
v 0.334475 0.382683 -0.861208
v 0.355076 0.195090 -0.914254
v 0.362033 -0.000000 -0.932164
v 0.355076 -0.195090 -0.914254
v 0.334475 -0.382683 -0.861208
v 0.301019 -0.555570 -0.775067
v 0.255996 -0.707107 -0.659140
v 0.201135 -0.831470 -0.517883
v 0.138544 -0.923880 -0.356724
v 0.070629 -0.980785 -0.181856
v 0.104750 0.980785 -0.164583
v 0.205475 0.923880 -0.322841
v 0.298304 0.831470 -0.468693
v 0.379669 0.707107 -0.596533
v 0.446443 0.555570 -0.701448
v 0.496061 0.382683 -0.779408
v 0.526616 0.195090 -0.827414
v 0.536933 -0.000000 -0.843624
v 0.526616 -0.195090 -0.827414
v 0.496061 -0.382683 -0.779408
v 0.446443 -0.555570 -0.701448
v 0.379669 -0.707107 -0.596533
v 0.298304 -0.831470 -0.468693
v 0.205475 -0.923880 -0.322841
v 0.104750 -0.980785 -0.164583
v 0.134846 0.980785 -0.140985
v 0.264510 0.923880 -0.276552
v 0.384009 0.831470 -0.401491
v 0.488751 0.707107 -0.511001
v 0.574711 0.555570 -0.600873
v 0.638584 0.382683 -0.667655
v 0.677918 0.195090 -0.708778
v 0.691199 -0.000000 -0.722663
v 0.677918 -0.195090 -0.708778
v 0.638584 -0.382683 -0.667655
v 0.574711 -0.555570 -0.600873
v 0.488751 -0.707107 -0.511001
v 0.384009 -0.831470 -0.401491
v 0.264510 -0.923880 -0.276552
v 0.134846 -0.980785 -0.140985
v 0.159760 0.980785 -0.111969
v 0.313380 0.923880 -0.219634
v 0.454958 0.831470 -0.318860
v 0.579051 0.707107 -0.405831
v 0.680892 0.555570 -0.477207
v 0.756567 0.382683 -0.530244
v 0.803167 0.195090 -0.562904
v 0.818902 -0.000000 -0.573932
v 0.803167 -0.195090 -0.562904
v 0.756567 -0.382683 -0.530244
v 0.680892 -0.555570 -0.477207
v 0.579051 -0.707107 -0.405831
v 0.454958 -0.831470 -0.318859
v 0.313380 -0.923880 -0.219634
v 0.159760 -0.980785 -0.111969
v 0.178534 0.980785 -0.078650
v 0.350207 0.923880 -0.154277
v 0.508422 0.831470 -0.223975
v 0.647099 0.707107 -0.285066
v 0.760908 0.555570 -0.335202
v 0.845475 0.382683 -0.372457
v 0.897552 0.195090 -0.395398
v 0.915136 -0.000000 -0.403144
v 0.897552 -0.195090 -0.395398
v 0.845476 -0.382683 -0.372457
v 0.760908 -0.555570 -0.335202
v 0.647099 -0.707107 -0.285066
v 0.508422 -0.831470 -0.223975
v 0.350207 -0.923880 -0.154277
v 0.178534 -0.980785 -0.078650
v 0.190447 0.980785 -0.042308
v 0.373576 0.923880 -0.082990
v 0.542348 0.831470 -0.120483
v 0.690279 0.707107 -0.153346
v 0.811682 0.555570 -0.180316
v 0.901893 0.382683 -0.200356
v 0.957444 0.195090 -0.212697
v 0.976201 -0.000000 -0.216863
v 0.957444 -0.195090 -0.212697
v 0.901893 -0.382683 -0.200356
v 0.811682 -0.555570 -0.180316
v 0.690279 -0.707107 -0.153346
v 0.542348 -0.831470 -0.120483
v 0.373576 -0.923880 -0.082990
v 0.190447 -0.980785 -0.042308
v 0.999751 -0.000000 -0.022249
v 0.980542 -0.195090 -0.021822
v 0.923651 -0.382683 -0.020556
v 0.382589 -0.923880 -0.008514
v 0.195042 -0.980785 -0.004341
v 0.000000 -1.000000 0.000000
vn 0.7100 -0.7041 -0.0158
vn 0.8207 -0.5528 0.1443
vn 0.6994 -0.7041 0.1230
vn 0.7100 0.7041 -0.0158
vn 0.8207 0.5528 0.1444
vn 0.8331 0.5528 -0.0185
vn 0.5596 -0.8286 -0.0125
vn 0.5513 -0.8286 0.0970
vn 0.9108 0.3805 0.1602
vn 0.9245 0.3805 -0.0206
vn 0.3820 -0.9217 0.0672
vn 0.3878 -0.9217 -0.0086
vn 0.9662 0.1939 0.1699
vn 0.9808 0.1939 -0.0218
vn 0.1979 -0.9796 0.0348
vn 0.2009 -0.9796 -0.0045
vn 0.9998 -0.0000 -0.0222
vn 0.9849 -0.0000 0.1732
vn 0.2009 0.9796 -0.0045
vn -0.0000 1.0000 -0.0000
vn 0.1979 0.9796 0.0348
vn -0.0000 -1.0000 -0.0000
vn 0.9662 -0.1939 0.1699
vn 0.9808 -0.1939 -0.0218
vn 0.3820 0.9217 0.0672
vn 0.3878 0.9217 -0.0086
vn 0.9108 -0.3805 0.1602
vn 0.9245 -0.3805 -0.0206
vn 0.5513 0.8286 0.0970
vn 0.5596 0.8286 -0.0125
vn 0.8331 -0.5528 -0.0185
vn 0.6994 0.7041 0.1230
vn 0.7768 -0.5528 0.3017
vn 0.6620 0.7041 0.2571
vn 0.6620 -0.7041 0.2571
vn 0.7768 0.5528 0.3017
vn 0.5218 -0.8286 0.2027
vn 0.8620 0.3805 0.3348
vn 0.3616 -0.9217 0.1404
vn 0.9145 0.1939 0.3552
vn 0.1873 -0.9796 0.0728
vn 0.9322 -0.0000 0.3620
vn 0.1873 0.9796 0.0728
vn 0.9145 -0.1939 0.3552
vn 0.3616 0.9217 0.1404
vn 0.8620 -0.3805 0.3348
vn 0.5218 0.8286 0.2027
vn 0.1695 -0.9796 0.1079
vn 0.8276 0.1939 0.5267
vn 0.8436 -0.0000 0.5369
vn 0.1695 0.9796 0.1079
vn 0.8276 -0.1939 0.5267
vn 0.3272 0.9217 0.2083
vn 0.7802 -0.3805 0.4965
vn 0.4722 0.8286 0.3006
vn 0.7030 -0.5528 0.4474
vn 0.5991 0.7041 0.3813
vn 0.5991 -0.7041 0.3813
vn 0.7030 0.5528 0.4474
vn 0.4722 -0.8286 0.3006
vn 0.7802 0.3805 0.4965
vn 0.3272 -0.9217 0.2083
vn 0.5132 0.7041 0.4909
vn 0.6022 -0.5528 0.5760
vn 0.5132 -0.7041 0.4908
vn 0.6022 0.5528 0.5760
vn 0.4045 -0.8286 0.3869
vn 0.6683 0.3805 0.6392
vn 0.2803 -0.9217 0.2681
vn 0.7089 0.1939 0.6781
vn 0.1452 -0.9796 0.1389
vn 0.7227 -0.0000 0.6912
vn 0.1452 0.9796 0.1389
vn 0.7089 -0.1939 0.6781
vn 0.2803 0.9217 0.2681
vn 0.6683 -0.3805 0.6392
vn 0.4045 0.8286 0.3869
vn 0.5630 0.1939 0.8034
vn 0.5739 -0.0000 0.8189
vn 0.1153 0.9796 0.1646
vn 0.1153 -0.9796 0.1646
vn 0.5630 -0.1939 0.8034
vn 0.2226 0.9217 0.3176
vn 0.5308 -0.3805 0.7573
vn 0.3213 0.8286 0.4584
vn 0.4783 -0.5528 0.6824
vn 0.4076 0.7041 0.5815
vn 0.4076 -0.7041 0.5815
vn 0.4783 0.5528 0.6824
vn 0.3213 -0.8286 0.4584
vn 0.5308 0.3805 0.7573
vn 0.2226 -0.9217 0.3176
vn 0.2863 -0.7041 0.6499
vn 0.3360 0.5528 0.7626
vn 0.2257 -0.8286 0.5123
vn 0.3728 0.3805 0.8463
vn 0.1564 -0.9217 0.3550
vn 0.3955 0.1939 0.8978
vn 0.0810 -0.9796 0.1839
vn 0.4031 -0.0000 0.9151
vn 0.0810 0.9796 0.1839
vn 0.3955 -0.1939 0.8978
vn 0.1564 0.9217 0.3550
vn 0.3728 -0.3805 0.8463
vn 0.2257 0.8286 0.5123
vn 0.3360 -0.5528 0.7626
vn 0.2863 0.7041 0.6499
vn 0.0436 0.9796 0.1962
vn 0.0436 -0.9796 0.1962
vn 0.2127 -0.1939 0.9577
vn 0.0841 0.9217 0.3787
vn 0.2005 -0.3805 0.9028
vn 0.1214 0.8286 0.5465
vn 0.1807 -0.5528 0.8135
vn 0.1540 0.7041 0.6932
vn 0.1540 -0.7041 0.6932
vn 0.1807 0.5528 0.8135
vn 0.1214 -0.8286 0.5465
vn 0.2006 0.3805 0.9028
vn 0.0841 -0.9217 0.3787
vn 0.2127 0.1939 0.9577
vn 0.2169 -0.0000 0.9762
vn 0.0185 0.5528 0.8331
vn 0.0158 -0.7041 0.7100
vn 0.0125 -0.8286 0.5596
vn 0.0206 0.3805 0.9245
vn 0.0086 -0.9217 0.3878
vn 0.0218 0.1939 0.9808
vn 0.0045 -0.9796 0.2009
vn 0.0222 -0.0000 0.9998
vn 0.0045 0.9796 0.2009
vn 0.0218 -0.1939 0.9808
vn 0.0086 0.9217 0.3878
vn 0.0206 -0.3805 0.9245
vn 0.0125 0.8286 0.5596
vn 0.0185 -0.5528 0.8331
vn 0.0158 0.7041 0.7100
vn -0.1699 -0.1939 0.9662
vn -0.0348 0.9796 0.1979
vn -0.0672 0.9217 0.3820
vn -0.1602 -0.3805 0.9108
vn -0.0970 0.8286 0.5513
vn -0.1443 -0.5528 0.8207
vn -0.1230 0.7041 0.6994
vn -0.1230 -0.7041 0.6994
vn -0.1444 0.5528 0.8207
vn -0.0970 -0.8286 0.5513
vn -0.1602 0.3805 0.9108
vn -0.0672 -0.9217 0.3820
vn -0.1699 0.1939 0.9662
vn -0.0348 -0.9796 0.1979
vn -0.1732 -0.0000 0.9849
vn -0.2571 -0.7041 0.6620
vn -0.2027 -0.8286 0.5218
vn -0.3348 0.3805 0.8620
vn -0.1404 -0.9217 0.3616
vn -0.3552 0.1939 0.9145
vn -0.0728 -0.9796 0.1873
vn -0.3620 -0.0000 0.9322
vn -0.0728 0.9796 0.1873
vn -0.3552 -0.1939 0.9145
vn -0.1404 0.9217 0.3616
vn -0.3348 -0.3805 0.8620
vn -0.2027 0.8286 0.5218
vn -0.3017 -0.5528 0.7768
vn -0.2571 0.7041 0.6620
vn -0.3017 0.5528 0.7768
vn -0.5267 -0.1939 0.8276
vn -0.4965 -0.3805 0.7802
vn -0.3006 0.8286 0.4722
vn -0.4474 -0.5528 0.7030
vn -0.3813 0.7041 0.5991
vn -0.3813 -0.7041 0.5991
vn -0.4474 0.5528 0.7030
vn -0.3006 -0.8286 0.4722
vn -0.4965 0.3805 0.7802
vn -0.2083 -0.9217 0.3272
vn -0.5267 0.1939 0.8276
vn -0.1079 -0.9796 0.1695
vn -0.5369 -0.0000 0.8436
vn -0.1079 0.9796 0.1695
vn -0.2083 0.9217 0.3272
vn -0.2681 -0.9217 0.2803
vn -0.6392 0.3805 0.6683
vn -0.6781 0.1939 0.7089
vn -0.1389 -0.9796 0.1452
vn -0.6912 -0.0000 0.7227
vn -0.1389 0.9796 0.1452
vn -0.6781 -0.1939 0.7089
vn -0.2681 0.9217 0.2803
vn -0.6392 -0.3805 0.6683
vn -0.3869 0.8286 0.4045
vn -0.5760 -0.5528 0.6022
vn -0.4908 0.7041 0.5132
vn -0.4908 -0.7041 0.5132
vn -0.5760 0.5528 0.6022
vn -0.3869 -0.8286 0.4045
vn -0.4584 0.8286 0.3213
vn -0.6824 -0.5528 0.4783
vn -0.5815 0.7041 0.4076
vn -0.5815 -0.7041 0.4076
vn -0.6824 0.5528 0.4783
vn -0.4584 -0.8286 0.3213
vn -0.7573 0.3805 0.5308
vn -0.3176 -0.9217 0.2226
vn -0.8034 0.1939 0.5630
vn -0.1646 -0.9796 0.1153
vn -0.8189 -0.0000 0.5739
vn -0.1646 0.9796 0.1153
vn -0.8034 -0.1939 0.5630
vn -0.3176 0.9217 0.2226
vn -0.7573 -0.3805 0.5308
vn -0.8463 0.3805 0.3728
vn -0.8978 0.1939 0.3955
vn -0.1839 -0.9796 0.0810
vn -0.9151 -0.0000 0.4031
vn -0.1839 0.9796 0.0810
vn -0.8978 -0.1939 0.3955
vn -0.3550 0.9217 0.1564
vn -0.8463 -0.3805 0.3728
vn -0.5123 0.8286 0.2257
vn -0.7626 -0.5528 0.3360
vn -0.6499 0.7041 0.2863
vn -0.6499 -0.7041 0.2863
vn -0.7626 0.5528 0.3360
vn -0.5123 -0.8286 0.2257
vn -0.3550 -0.9217 0.1564
vn -0.8135 -0.5528 0.1807
vn -0.6932 0.7041 0.1540
vn -0.6932 -0.7041 0.1540
vn -0.8135 0.5528 0.1807
vn -0.5465 -0.8286 0.1214
vn -0.9028 0.3805 0.2005
vn -0.3787 -0.9217 0.0841
vn -0.9577 0.1939 0.2127
vn -0.1962 -0.9796 0.0436
vn -0.9762 -0.0000 0.2169
vn -0.1962 0.9796 0.0436
vn -0.9577 -0.1939 0.2127
vn -0.3787 0.9217 0.0841
vn -0.9028 -0.3805 0.2005
vn -0.5465 0.8286 0.1214
vn -0.2009 -0.9796 0.0045
vn -0.9808 0.1939 0.0218
vn -0.9998 -0.0000 0.0222
vn -0.2009 0.9796 0.0045
vn -0.9808 -0.1939 0.0218
vn -0.3878 0.9217 0.0086
vn -0.9245 -0.3805 0.0206
vn -0.5596 0.8286 0.0125
vn -0.8331 -0.5528 0.0185
vn -0.7100 0.7041 0.0158
vn -0.7100 -0.7041 0.0158
vn -0.8331 0.5528 0.0185
vn -0.5596 -0.8286 0.0125
vn -0.9245 0.3805 0.0206
vn -0.3878 -0.9217 0.0086
vn -0.6994 0.7041 -0.1230
vn -0.6994 -0.7041 -0.1230
vn -0.8207 0.5528 -0.1444
vn -0.5513 -0.8286 -0.0970
vn -0.9108 0.3805 -0.1602
vn -0.3820 -0.9217 -0.0672
vn -0.9662 0.1939 -0.1699
vn -0.1979 -0.9796 -0.0348
vn -0.9849 -0.0000 -0.1732
vn -0.1979 0.9796 -0.0348
vn -0.9662 -0.1939 -0.1699
vn -0.3820 0.9217 -0.0672
vn -0.9108 -0.3805 -0.1602
vn -0.5513 0.8286 -0.0970
vn -0.8207 -0.5528 -0.1443
vn -0.9145 0.1939 -0.3552
vn -0.9322 -0.0000 -0.3620
vn -0.1873 0.9796 -0.0728
vn -0.1873 -0.9796 -0.0728
vn -0.9145 -0.1939 -0.3552
vn -0.3616 0.9217 -0.1404
vn -0.8620 -0.3805 -0.3348
vn -0.5218 0.8286 -0.2027
vn -0.7768 -0.5528 -0.3017
vn -0.6620 0.7041 -0.2571
vn -0.6620 -0.7041 -0.2571
vn -0.7768 0.5528 -0.3017
vn -0.5218 -0.8286 -0.2027
vn -0.8620 0.3805 -0.3348
vn -0.3616 -0.9217 -0.1404
vn -0.5991 -0.7041 -0.3813
vn -0.5991 0.7041 -0.3813
vn -0.7030 0.5528 -0.4474
vn -0.4722 -0.8286 -0.3006
vn -0.7802 0.3805 -0.4965
vn -0.3272 -0.9217 -0.2083
vn -0.8276 0.1939 -0.5267
vn -0.1695 -0.9796 -0.1079
vn -0.8436 -0.0000 -0.5369
vn -0.1695 0.9796 -0.1079
vn -0.8276 -0.1939 -0.5267
vn -0.3272 0.9217 -0.2083
vn -0.7802 -0.3805 -0.4965
vn -0.4722 0.8286 -0.3006
vn -0.7030 -0.5528 -0.4474
vn -0.1452 -0.9796 -0.1389
vn -0.7089 -0.1939 -0.6781
vn -0.2803 0.9217 -0.2681
vn -0.6683 -0.3805 -0.6392
vn -0.4045 0.8286 -0.3869
vn -0.6022 -0.5528 -0.5760
vn -0.5132 0.7041 -0.4909
vn -0.5132 -0.7041 -0.4908
vn -0.6022 0.5528 -0.5760
vn -0.4045 -0.8286 -0.3869
vn -0.6683 0.3805 -0.6392
vn -0.2803 -0.9217 -0.2681
vn -0.7089 0.1939 -0.6781
vn -0.7227 -0.0000 -0.6912
vn -0.1452 0.9796 -0.1389
vn -0.4076 -0.7041 -0.5815
vn -0.3213 -0.8286 -0.4584
vn -0.5308 0.3805 -0.7573
vn -0.2226 -0.9217 -0.3176
vn -0.5630 0.1939 -0.8034
vn -0.1153 -0.9796 -0.1646
vn -0.5739 -0.0000 -0.8189
vn -0.1153 0.9796 -0.1646
vn -0.5630 -0.1939 -0.8034
vn -0.2226 0.9217 -0.3176
vn -0.5308 -0.3805 -0.7573
vn -0.3213 0.8286 -0.4584
vn -0.4783 -0.5528 -0.6824
vn -0.4076 0.7041 -0.5815
vn -0.4783 0.5528 -0.6824
vn -0.1564 0.9217 -0.3550
vn -0.3955 -0.1939 -0.8978
vn -0.3728 -0.3805 -0.8463
vn -0.2257 0.8286 -0.5123
vn -0.3360 -0.5528 -0.7626
vn -0.2863 0.7041 -0.6499
vn -0.2863 -0.7041 -0.6499
vn -0.3360 0.5528 -0.7626
vn -0.2257 -0.8286 -0.5123
vn -0.3728 0.3805 -0.8463
vn -0.1564 -0.9217 -0.3550
vn -0.3955 0.1939 -0.8978
vn -0.0810 -0.9796 -0.1839
vn -0.4031 -0.0000 -0.9151
vn -0.0810 0.9796 -0.1839
vn -0.1807 0.5528 -0.8135
vn -0.2006 0.3805 -0.9028
vn -0.0841 -0.9217 -0.3787
vn -0.2127 0.1939 -0.9577
vn -0.0436 -0.9796 -0.1962
vn -0.2169 -0.0000 -0.9762
vn -0.0436 0.9796 -0.1962
vn -0.2127 -0.1939 -0.9577
vn -0.0841 0.9217 -0.3787
vn -0.2005 -0.3805 -0.9028
vn -0.1214 0.8286 -0.5465
vn -0.1807 -0.5528 -0.8135
vn -0.1540 0.7041 -0.6932
vn -0.1540 -0.7041 -0.6932
vn -0.1214 -0.8286 -0.5465
vn -0.0218 -0.1939 -0.9808
vn -0.0206 -0.3805 -0.9245
vn -0.0086 0.9217 -0.3878
vn -0.0125 0.8286 -0.5596
vn -0.0185 -0.5528 -0.8331
vn -0.0158 0.7041 -0.7100
vn -0.0158 -0.7041 -0.7100
vn -0.0185 0.5528 -0.8331
vn -0.0125 -0.8286 -0.5596
vn -0.0206 0.3805 -0.9245
vn -0.0086 -0.9217 -0.3878
vn -0.0218 0.1939 -0.9808
vn -0.0045 -0.9796 -0.2009
vn -0.0222 -0.0000 -0.9998
vn -0.0045 0.9796 -0.2009
vn 0.0672 -0.9217 -0.3820
vn 0.1602 0.3805 -0.9108
vn 0.1699 0.1939 -0.9662
vn 0.0348 -0.9796 -0.1979
vn 0.1732 -0.0000 -0.9849
vn 0.0348 0.9796 -0.1979
vn 0.1699 -0.1939 -0.9662
vn 0.0672 0.9217 -0.3820
vn 0.1602 -0.3805 -0.9108
vn 0.0970 0.8286 -0.5513
vn 0.1443 -0.5528 -0.8207
vn 0.1230 0.7041 -0.6994
vn 0.1230 -0.7041 -0.6994
vn 0.1443 0.5528 -0.8207
vn 0.0970 -0.8286 -0.5513
vn 0.2027 0.8286 -0.5218
vn 0.3017 -0.5528 -0.7768
vn 0.2571 0.7041 -0.6620
vn 0.2571 -0.7041 -0.6620
vn 0.3017 0.5528 -0.7768
vn 0.2027 -0.8286 -0.5218
vn 0.3348 0.3805 -0.8620
vn 0.1404 -0.9217 -0.3616
vn 0.3552 0.1939 -0.9145
vn 0.0728 -0.9796 -0.1873
vn 0.3620 -0.0000 -0.9322
vn 0.0728 0.9796 -0.1873
vn 0.3552 -0.1939 -0.9145
vn 0.1404 0.9217 -0.3616
vn 0.3348 -0.3805 -0.8620
vn 0.4965 0.3805 -0.7802
vn 0.5267 0.1939 -0.8276
vn 0.2083 -0.9217 -0.3272
vn 0.1079 -0.9796 -0.1695
vn 0.5369 -0.0000 -0.8436
vn 0.1079 0.9796 -0.1695
vn 0.5267 -0.1939 -0.8276
vn 0.2083 0.9217 -0.3272
vn 0.4965 -0.3805 -0.7802
vn 0.3006 0.8286 -0.4722
vn 0.4474 -0.5528 -0.7030
vn 0.3813 0.7041 -0.5991
vn 0.3813 -0.7041 -0.5991
vn 0.4474 0.5528 -0.7030
vn 0.3006 -0.8286 -0.4722
vn 0.5760 -0.5528 -0.6022
vn 0.4908 0.7041 -0.5132
vn 0.4908 -0.7041 -0.5132
vn 0.5760 0.5528 -0.6022
vn 0.3869 -0.8286 -0.4045
vn 0.6392 0.3805 -0.6683
vn 0.2681 -0.9217 -0.2803
vn 0.6781 0.1939 -0.7089
vn 0.1389 -0.9796 -0.1452
vn 0.6912 -0.0000 -0.7227
vn 0.1389 0.9796 -0.1452
vn 0.6781 -0.1939 -0.7089
vn 0.2681 0.9217 -0.2803
vn 0.6392 -0.3805 -0.6683
vn 0.3869 0.8286 -0.4045
vn 0.3176 -0.9217 -0.2226
vn 0.1646 -0.9796 -0.1153
vn 0.8034 0.1939 -0.5630
vn 0.8189 -0.0000 -0.5739
vn 0.1646 0.9796 -0.1153
vn 0.8034 -0.1939 -0.5630
vn 0.3176 0.9217 -0.2226
vn 0.7573 -0.3805 -0.5308
vn 0.4584 0.8286 -0.3213
vn 0.6824 -0.5528 -0.4783
vn 0.5815 0.7041 -0.4076
vn 0.5815 -0.7041 -0.4076
vn 0.6824 0.5528 -0.4783
vn 0.4584 -0.8286 -0.3213
vn 0.7573 0.3805 -0.5308
vn 0.6499 -0.7041 -0.2863
vn 0.7626 0.5528 -0.3360
vn 0.5123 -0.8286 -0.2257
vn 0.8463 0.3805 -0.3728
vn 0.3550 -0.9217 -0.1564
vn 0.8978 0.1939 -0.3955
vn 0.1839 -0.9796 -0.0810
vn 0.9151 -0.0000 -0.4031
vn 0.1839 0.9796 -0.0810
vn 0.8978 -0.1939 -0.3955
vn 0.3550 0.9217 -0.1564
vn 0.8463 -0.3805 -0.3728
vn 0.5123 0.8286 -0.2257
vn 0.7626 -0.5528 -0.3360
vn 0.6499 0.7041 -0.2863
vn 0.1962 0.9796 -0.0436
vn 0.1962 -0.9796 -0.0436
vn 0.9577 -0.1939 -0.2127
vn 0.3787 0.9217 -0.0841
vn 0.9028 -0.3805 -0.2005
vn 0.5465 0.8286 -0.1214
vn 0.8135 -0.5528 -0.1807
vn 0.6932 0.7041 -0.1540
vn 0.6932 -0.7041 -0.1540
vn 0.8135 0.5528 -0.1807
vn 0.5465 -0.8286 -0.1214
vn 0.9028 0.3805 -0.2006
vn 0.3787 -0.9217 -0.0841
vn 0.9577 0.1939 -0.2127
vn 0.9762 -0.0000 -0.2169
vt 0.750000 0.250000
vt 0.718750 0.312500
vt 0.718750 0.250000
vt 0.750000 0.750000
vt 0.718750 0.687500
vt 0.750000 0.687500
vt 0.750000 0.187500
vt 0.718750 0.187500
vt 0.718750 0.625000
vt 0.750000 0.625000
vt 0.718750 0.125000
vt 0.750000 0.125000
vt 0.718750 0.562500
vt 0.750000 0.562500
vt 0.718750 0.062500
vt 0.750000 0.062500
vt 0.750000 0.500000
vt 0.718750 0.500000
vt 0.750000 0.937500
vt 0.734375 1.000000
vt 0.718750 0.937500
vt 0.734375 0.000000
vt 0.718750 0.437500
vt 0.750000 0.437500
vt 0.718750 0.875000
vt 0.750000 0.875000
vt 0.718750 0.375000
vt 0.750000 0.375000
vt 0.718750 0.812500
vt 0.750000 0.812500
vt 0.750000 0.312500
vt 0.718750 0.750000
vt 0.687500 0.312500
vt 0.687500 0.750000
vt 0.687500 0.250000
vt 0.687500 0.687500
vt 0.687500 0.187500
vt 0.687500 0.625000
vt 0.687500 0.125000
vt 0.687500 0.562500
vt 0.687500 0.062500
vt 0.687500 0.500000
vt 0.703125 1.000000
vt 0.687500 0.937500
vt 0.703125 0.000000
vt 0.687500 0.437500
vt 0.687500 0.875000
vt 0.687500 0.375000
vt 0.687500 0.812500
vt 0.656250 0.062500
vt 0.656250 0.562500
vt 0.656250 0.500000
vt 0.671875 1.000000
vt 0.656250 0.937500
vt 0.671875 0.000000
vt 0.656250 0.437500
vt 0.656250 0.875000
vt 0.656250 0.375000
vt 0.656250 0.812500
vt 0.656250 0.312500
vt 0.656250 0.750000
vt 0.656250 0.250000
vt 0.656250 0.687500
vt 0.656250 0.187500
vt 0.656250 0.625000
vt 0.656250 0.125000
vt 0.625000 0.750000
vt 0.625000 0.312500
vt 0.625000 0.250000
vt 0.625000 0.687500
vt 0.625000 0.187500
vt 0.625000 0.625000
vt 0.625000 0.125000
vt 0.625000 0.562500
vt 0.625000 0.062500
vt 0.625000 0.500000
vt 0.640625 1.000000
vt 0.625000 0.937500
vt 0.640625 0.000000
vt 0.625000 0.437500
vt 0.625000 0.875000
vt 0.625000 0.375000
vt 0.625000 0.812500
vt 0.593750 0.562500
vt 0.593750 0.500000
vt 0.609375 1.000000
vt 0.593750 0.937500
vt 0.609375 0.000000
vt 0.593750 0.062500
vt 0.593750 0.437500
vt 0.593750 0.875000
vt 0.593750 0.375000
vt 0.593750 0.812500
vt 0.593750 0.312500
vt 0.593750 0.750000
vt 0.593750 0.250000
vt 0.593750 0.687500
vt 0.593750 0.187500
vt 0.593750 0.625000
vt 0.593750 0.125000
vt 0.562500 0.250000
vt 0.562500 0.687500
vt 0.562500 0.187500
vt 0.562500 0.625000
vt 0.562500 0.125000
vt 0.562500 0.562500
vt 0.562500 0.062500
vt 0.562500 0.500000
vt 0.578125 1.000000
vt 0.562500 0.937500
vt 0.578125 0.000000
vt 0.562500 0.437500
vt 0.562500 0.875000
vt 0.562500 0.375000
vt 0.562500 0.812500
vt 0.562500 0.312500
vt 0.562500 0.750000
vt 0.546875 1.000000
vt 0.531250 0.937500
vt 0.546875 0.000000
vt 0.531250 0.062500
vt 0.531250 0.437500
vt 0.531250 0.875000
vt 0.531250 0.375000
vt 0.531250 0.812500
vt 0.531250 0.312500
vt 0.531250 0.750000
vt 0.531250 0.250000
vt 0.531250 0.687500
vt 0.531250 0.187500
vt 0.531250 0.625000
vt 0.531250 0.125000
vt 0.531250 0.562500
vt 0.531250 0.500000
vt 0.500000 0.687500
vt 0.500000 0.250000
vt 0.500000 0.187500
vt 0.500000 0.625000
vt 0.500000 0.125000
vt 0.500000 0.562500
vt 0.500000 0.062500
vt 0.500000 0.500000
vt 0.515625 1.000000
vt 0.500000 0.937500
vt 0.515625 0.000000
vt 0.500000 0.437500
vt 0.500000 0.875000
vt 0.500000 0.375000
vt 0.500000 0.812500
vt 0.500000 0.312500
vt 0.500000 0.750000
vt 0.468750 0.437500
vt 0.468750 0.937500
vt 0.468750 0.875000
vt 0.468750 0.375000
vt 0.468750 0.812500
vt 0.468750 0.312500
vt 0.468750 0.750000
vt 0.468750 0.250000
vt 0.468750 0.687500
vt 0.468750 0.187500
vt 0.468750 0.625000
vt 0.468750 0.125000
vt 0.468750 0.562500
vt 0.468750 0.062500
vt 0.468750 0.500000
vt 0.484375 1.000000
vt 0.484375 0.000000
vt 0.437500 0.250000
vt 0.437500 0.187500
vt 0.437500 0.625000
vt 0.437500 0.125000
vt 0.437500 0.562500
vt 0.437500 0.062500
vt 0.437500 0.500000
vt 0.453125 1.000000
vt 0.437500 0.937500
vt 0.453125 0.000000
vt 0.437500 0.437500
vt 0.437500 0.875000
vt 0.437500 0.375000
vt 0.437500 0.812500
vt 0.437500 0.312500
vt 0.437500 0.750000
vt 0.437500 0.687500
vt 0.406250 0.437500
vt 0.406250 0.375000
vt 0.406250 0.812500
vt 0.406250 0.312500
vt 0.406250 0.750000
vt 0.406250 0.250000
vt 0.406250 0.687500
vt 0.406250 0.187500
vt 0.406250 0.625000
vt 0.406250 0.125000
vt 0.406250 0.562500
vt 0.406250 0.062500
vt 0.406250 0.500000
vt 0.421875 1.000000
vt 0.406250 0.937500
vt 0.421875 0.000000
vt 0.406250 0.875000
vt 0.375000 0.125000
vt 0.375000 0.625000
vt 0.375000 0.562500
vt 0.375000 0.062500
vt 0.375000 0.500000
vt 0.390625 1.000000
vt 0.375000 0.937500
vt 0.390625 0.000000
vt 0.375000 0.437500
vt 0.375000 0.875000
vt 0.375000 0.375000
vt 0.375000 0.812500
vt 0.375000 0.312500
vt 0.375000 0.750000
vt 0.375000 0.250000
vt 0.375000 0.687500
vt 0.375000 0.187500
vt 0.343750 0.812500
vt 0.343750 0.312500
vt 0.343750 0.750000
vt 0.343750 0.250000
vt 0.343750 0.687500
vt 0.343750 0.187500
vt 0.343750 0.625000
vt 0.343750 0.125000
vt 0.343750 0.562500
vt 0.343750 0.062500
vt 0.343750 0.500000
vt 0.359375 1.000000
vt 0.343750 0.937500
vt 0.359375 0.000000
vt 0.343750 0.437500
vt 0.343750 0.875000
vt 0.343750 0.375000
vt 0.312500 0.625000
vt 0.312500 0.562500
vt 0.312500 0.062500
vt 0.312500 0.500000
vt 0.328125 1.000000
vt 0.312500 0.937500
vt 0.328125 0.000000
vt 0.312500 0.437500
vt 0.312500 0.875000
vt 0.312500 0.375000
vt 0.312500 0.812500
vt 0.312500 0.312500
vt 0.312500 0.750000
vt 0.312500 0.250000
vt 0.312500 0.687500
vt 0.312500 0.187500
vt 0.312500 0.125000
vt 0.281250 0.312500
vt 0.281250 0.750000
vt 0.281250 0.250000
vt 0.281250 0.687500
vt 0.281250 0.187500
vt 0.281250 0.625000
vt 0.281250 0.125000
vt 0.281250 0.562500
vt 0.281250 0.062500
vt 0.281250 0.500000
vt 0.296875 1.000000
vt 0.281250 0.937500
vt 0.296875 0.000000
vt 0.281250 0.437500
vt 0.281250 0.875000
vt 0.281250 0.375000
vt 0.281250 0.812500
vt 0.250000 0.062500
vt 0.250000 0.562500
vt 0.250000 0.500000
vt 0.265625 1.000000
vt 0.250000 0.937500
vt 0.265625 0.000000
vt 0.250000 0.437500
vt 0.250000 0.875000
vt 0.250000 0.375000
vt 0.250000 0.812500
vt 0.250000 0.312500
vt 0.250000 0.750000
vt 0.250000 0.250000
vt 0.250000 0.687500
vt 0.250000 0.187500
vt 0.250000 0.625000
vt 0.250000 0.125000
vt 0.218750 0.750000
vt 0.218750 0.250000
vt 0.218750 0.687500
vt 0.218750 0.187500
vt 0.218750 0.625000
vt 0.218750 0.125000
vt 0.218750 0.562500
vt 0.218750 0.062500
vt 0.218750 0.500000
vt 0.234375 1.000000
vt 0.218750 0.937500
vt 0.234375 0.000000
vt 0.218750 0.437500
vt 0.218750 0.875000
vt 0.218750 0.375000
vt 0.218750 0.812500
vt 0.218750 0.312500
vt 0.187500 0.562500
vt 0.187500 0.500000
vt 0.203125 1.000000
vt 0.187500 0.937500
vt 0.203125 0.000000
vt 0.187500 0.062500
vt 0.187500 0.437500
vt 0.187500 0.875000
vt 0.187500 0.375000
vt 0.187500 0.812500
vt 0.187500 0.312500
vt 0.187500 0.750000
vt 0.187500 0.250000
vt 0.187500 0.687500
vt 0.187500 0.187500
vt 0.187500 0.625000
vt 0.187500 0.125000
vt 0.156250 0.250000
vt 0.156250 0.750000
vt 0.156250 0.687500
vt 0.156250 0.187500
vt 0.156250 0.625000
vt 0.156250 0.125000
vt 0.156250 0.562500
vt 0.156250 0.062500
vt 0.156250 0.500000
vt 0.171875 1.000000
vt 0.156250 0.937500
vt 0.171875 0.000000
vt 0.156250 0.437500
vt 0.156250 0.875000
vt 0.156250 0.375000
vt 0.156250 0.812500
vt 0.156250 0.312500
vt 0.140625 0.000000
vt 0.125000 0.062500
vt 0.125000 0.437500
vt 0.125000 0.875000
vt 0.125000 0.375000
vt 0.125000 0.812500
vt 0.125000 0.312500
vt 0.125000 0.750000
vt 0.125000 0.250000
vt 0.125000 0.687500
vt 0.125000 0.187500
vt 0.125000 0.625000
vt 0.125000 0.125000
vt 0.125000 0.562500
vt 0.125000 0.500000
vt 0.140625 1.000000
vt 0.125000 0.937500
vt 0.093750 0.250000
vt 0.093750 0.187500
vt 0.093750 0.625000
vt 0.093750 0.125000
vt 0.093750 0.562500
vt 0.093750 0.062500
vt 0.093750 0.500000
vt 0.109375 1.000000
vt 0.093750 0.937500
vt 0.109375 0.000000
vt 0.093750 0.437500
vt 0.093750 0.875000
vt 0.093750 0.375000
vt 0.093750 0.812500
vt 0.093750 0.312500
vt 0.093750 0.750000
vt 0.093750 0.687500
vt 0.062500 0.875000
vt 0.062500 0.437500
vt 0.062500 0.375000
vt 0.062500 0.812500
vt 0.062500 0.312500
vt 0.062500 0.750000
vt 0.062500 0.250000
vt 0.062500 0.687500
vt 0.062500 0.187500
vt 0.062500 0.625000
vt 0.062500 0.125000
vt 0.062500 0.562500
vt 0.062500 0.062500
vt 0.062500 0.500000
vt 0.078125 1.000000
vt 0.062500 0.937500
vt 0.078125 0.000000
vt 0.031250 0.687500
vt 0.031250 0.625000
vt 0.031250 0.125000
vt 0.031250 0.562500
vt 0.031250 0.062500
vt 0.031250 0.500000
vt 0.046875 1.000000
vt 0.031250 0.937500
vt 0.046875 0.000000
vt 0.031250 0.437500
vt 0.031250 0.875000
vt 0.031250 0.375000
vt 0.031250 0.812500
vt 0.031250 0.312500
vt 0.031250 0.750000
vt 0.031250 0.250000
vt 0.031250 0.187500
vt 0.000000 0.437500
vt 0.000000 0.375000
vt 0.000000 0.875000
vt 0.000000 0.812500
vt 0.000000 0.312500
vt 0.000000 0.750000
vt 0.000000 0.250000
vt 0.000000 0.687500
vt 0.000000 0.187500
vt 0.000000 0.625000
vt 0.000000 0.125000
vt 0.000000 0.562500
vt 0.000000 0.062500
vt 0.000000 0.500000
vt 0.015625 1.000000
vt 0.000000 0.937500
vt 0.015625 0.000000
vt 1.000000 0.187500
vt 0.968750 0.125000
vt 1.000000 0.125000
vt 1.000000 0.562500
vt 0.968750 0.625000
vt 0.968750 0.562500
vt 1.000000 0.062500
vt 0.968750 0.062500
vt 1.000000 0.500000
vt 0.968750 0.500000
vt 1.000000 0.937500
vt 0.984375 1.000000
vt 0.968750 0.937500
vt 0.984375 0.000000
vt 0.968750 0.437500
vt 1.000000 0.437500
vt 0.968750 0.875000
vt 1.000000 0.875000
vt 1.000000 0.375000
vt 0.968750 0.375000
vt 0.968750 0.812500
vt 1.000000 0.812500
vt 0.968750 0.312500
vt 1.000000 0.312500
vt 0.968750 0.750000
vt 1.000000 0.750000
vt 0.968750 0.250000
vt 1.000000 0.250000
vt 1.000000 0.687500
vt 0.968750 0.687500
vt 0.968750 0.187500
vt 1.000000 0.625000
vt 0.937500 0.812500
vt 0.937500 0.312500
vt 0.937500 0.750000
vt 0.937500 0.250000
vt 0.937500 0.687500
vt 0.937500 0.187500
vt 0.937500 0.625000
vt 0.937500 0.125000
vt 0.937500 0.562500
vt 0.937500 0.062500
vt 0.937500 0.500000
vt 0.953125 1.000000
vt 0.937500 0.937500
vt 0.953125 0.000000
vt 0.937500 0.437500
vt 0.937500 0.875000
vt 0.937500 0.375000
vt 0.906250 0.625000
vt 0.906250 0.562500
vt 0.906250 0.125000
vt 0.906250 0.062500
vt 0.906250 0.500000
vt 0.921875 1.000000
vt 0.906250 0.937500
vt 0.921875 0.000000
vt 0.906250 0.437500
vt 0.906250 0.875000
vt 0.906250 0.375000
vt 0.906250 0.812500
vt 0.906250 0.312500
vt 0.906250 0.750000
vt 0.906250 0.250000
vt 0.906250 0.687500
vt 0.906250 0.187500
vt 0.875000 0.312500
vt 0.875000 0.750000
vt 0.875000 0.250000
vt 0.875000 0.687500
vt 0.875000 0.187500
vt 0.875000 0.625000
vt 0.875000 0.125000
vt 0.875000 0.562500
vt 0.875000 0.062500
vt 0.875000 0.500000
vt 0.890625 1.000000
vt 0.875000 0.937500
vt 0.890625 0.000000
vt 0.875000 0.437500
vt 0.875000 0.875000
vt 0.875000 0.375000
vt 0.875000 0.812500
vt 0.843750 0.125000
vt 0.843750 0.062500
vt 0.843750 0.562500
vt 0.843750 0.500000
vt 0.859375 1.000000
vt 0.843750 0.937500
vt 0.859375 0.000000
vt 0.843750 0.437500
vt 0.843750 0.875000
vt 0.843750 0.375000
vt 0.843750 0.812500
vt 0.843750 0.312500
vt 0.843750 0.750000
vt 0.843750 0.250000
vt 0.843750 0.687500
vt 0.843750 0.187500
vt 0.843750 0.625000
vt 0.812500 0.250000
vt 0.812500 0.687500
vt 0.812500 0.187500
vt 0.812500 0.625000
vt 0.812500 0.125000
vt 0.812500 0.562500
vt 0.812500 0.062500
vt 0.812500 0.500000
vt 0.828125 1.000000
vt 0.812500 0.937500
vt 0.828125 0.000000
vt 0.812500 0.437500
vt 0.812500 0.875000
vt 0.812500 0.375000
vt 0.812500 0.812500
vt 0.812500 0.312500
vt 0.812500 0.750000
vt 0.796875 1.000000
vt 0.781250 0.937500
vt 0.796875 0.000000
vt 0.781250 0.062500
vt 0.781250 0.437500
vt 0.781250 0.875000
vt 0.781250 0.375000
vt 0.781250 0.812500
vt 0.781250 0.312500
vt 0.781250 0.750000
vt 0.781250 0.250000
vt 0.781250 0.687500
vt 0.781250 0.187500
vt 0.781250 0.625000
vt 0.781250 0.125000
vt 0.781250 0.562500
vt 0.781250 0.500000
vt 0.765625 1.000000
vt 0.765625 0.000000
s 1
usemtl Moon
f 9/1/1 21/2/2 22/3/3
f 4/4/4 15/5/5 5/6/6
f 10/7/7 22/3/3 23/8/8
f 5/6/6 16/9/9 6/10/10
f 10/7/7 24/11/11 480/12/12
f 6/10/10 17/13/13 7/14/14
f 480/12/12 25/15/15 481/16/16
f 477/17/17 17/13/13 18/18/18
f 1/19/19 326/20/20 11/21/21
f 482/22/22 481/16/16 25/15/15
f 477/17/17 19/23/23 478/24/24
f 1/19/19 12/25/25 2/26/26
f 478/24/24 20/27/27 479/28/28
f 2/26/26 13/29/29 3/30/30
f 479/28/28 21/2/2 8/31/31
f 3/30/30 14/32/32 4/4/4
f 20/27/27 36/33/33 21/2/2
f 13/29/29 29/34/34 14/32/32
f 21/2/2 37/35/35 22/3/3
f 14/32/32 30/36/36 15/5/5
f 23/8/8 37/35/35 38/37/37
f 15/5/5 31/38/38 16/9/9
f 23/8/8 39/39/39 24/11/11
f 17/13/13 31/38/38 32/40/40
f 24/11/11 40/41/41 25/15/15
f 17/13/13 33/42/42 18/18/18
f 11/21/21 326/43/20 26/44/43
f 482/45/22 25/15/15 40/41/41
f 18/18/18 34/46/44 19/23/23
f 11/21/21 27/47/45 12/25/25
f 19/23/23 35/48/46 20/27/27
f 12/25/25 28/49/47 13/29/29
f 39/39/39 55/50/48 40/41/41
f 33/42/42 47/51/49 48/52/50
f 26/44/43 326/53/20 41/54/51
f 482/55/22 40/41/41 55/50/48
f 33/42/42 49/56/52 34/46/44
f 26/44/43 42/57/53 27/47/45
f 35/48/46 49/56/52 50/58/54
f 27/47/45 43/59/55 28/49/47
f 36/33/33 50/58/54 51/60/56
f 28/49/47 44/61/57 29/34/34
f 36/33/33 52/62/58 37/35/35
f 29/34/34 45/63/59 30/36/36
f 38/37/37 52/62/58 53/64/60
f 30/36/36 46/65/61 31/38/38
f 39/39/39 53/64/60 54/66/62
f 32/40/40 46/65/61 47/51/49
f 43/59/55 59/67/63 44/61/57
f 52/62/58 66/68/64 67/69/65
f 44/61/57 60/70/66 45/63/59
f 53/64/60 67/69/65 68/71/67
f 45/63/59 61/72/68 46/65/61
f 53/64/60 69/73/69 54/66/62
f 47/51/49 61/72/68 62/74/70
f 55/50/48 69/73/69 70/75/71
f 48/52/50 62/74/70 63/76/72
f 41/54/51 326/77/20 56/78/73
f 482/79/22 55/50/48 70/75/71
f 48/52/50 64/80/74 49/56/52
f 42/57/53 56/78/73 57/81/75
f 50/58/54 64/80/74 65/82/76
f 42/57/53 58/83/77 43/59/55
f 50/58/54 66/68/64 51/60/56
f 63/76/72 77/84/78 78/85/79
f 56/78/73 326/86/20 71/87/80
f 482/88/22 70/75/71 85/89/81
f 63/76/72 79/90/82 64/80/74
f 57/81/75 71/87/80 72/91/83
f 65/82/76 79/90/82 80/92/84
f 57/81/75 73/93/85 58/83/77
f 65/82/76 81/94/86 66/68/64
f 58/83/77 74/95/87 59/67/63
f 66/68/64 82/96/88 67/69/65
f 59/67/63 75/97/89 60/70/66
f 68/71/67 82/96/88 83/98/90
f 60/70/66 76/99/91 61/72/68
f 68/71/67 84/100/92 69/73/69
f 61/72/68 77/84/78 62/74/70
f 69/73/69 85/89/81 70/75/71
f 81/94/86 97/101/93 82/96/88
f 74/95/87 90/102/94 75/97/89
f 82/96/88 98/103/95 83/98/90
f 75/97/89 91/104/96 76/99/91
f 83/98/90 99/105/97 84/100/92
f 76/99/91 92/106/98 77/84/78
f 85/89/81 99/105/97 100/107/99
f 78/85/79 92/106/98 93/108/100
f 71/87/80 326/109/20 86/110/101
f 482/111/22 85/89/81 100/107/99
f 78/85/79 94/112/102 79/90/82
f 72/91/83 86/110/101 87/113/103
f 80/92/84 94/112/102 95/114/104
f 72/91/83 88/115/105 73/93/85
f 81/94/86 95/114/104 96/116/106
f 73/93/85 89/117/107 74/95/87
f 86/110/101 326/118/20 101/119/108
f 482/120/22 100/107/99 115/121/109
f 93/108/100 109/122/110 94/112/102
f 87/113/103 101/119/108 102/123/111
f 95/114/104 109/122/110 110/124/112
f 88/115/105 102/123/111 103/125/113
f 95/114/104 111/126/114 96/116/106
f 88/115/105 104/127/115 89/117/107
f 96/116/106 112/128/116 97/101/93
f 89/117/107 105/129/117 90/102/94
f 98/103/95 112/128/116 113/130/118
f 90/102/94 106/131/119 91/104/96
f 98/103/95 114/132/120 99/105/97
f 92/106/98 106/131/119 107/133/121
f 99/105/97 115/121/109 100/107/99
f 93/108/100 107/133/121 108/134/122
f 104/127/115 120/135/123 105/129/117
f 113/130/118 127/136/124 128/137/125
f 105/129/117 121/138/126 106/131/119
f 114/132/120 128/137/125 129/139/127
f 107/133/121 121/138/126 122/140/128
f 114/132/120 130/141/129 115/121/109
f 108/134/122 122/140/128 123/142/130
f 101/119/108 326/143/20 116/144/131
f 482/145/22 115/121/109 130/141/129
f 108/134/122 124/146/132 109/122/110
f 101/119/108 117/147/133 102/123/111
f 109/122/110 125/148/134 110/124/112
f 102/123/111 118/149/135 103/125/113
f 110/124/112 126/150/136 111/126/114
f 103/125/113 119/151/137 104/127/115
f 111/126/114 127/136/124 112/128/116
f 123/142/130 139/152/138 124/146/132
f 117/147/133 131/153/139 132/154/140
f 125/148/134 139/152/138 140/155/141
f 117/147/133 133/156/142 118/149/135
f 125/148/134 141/157/143 126/150/136
f 118/149/135 134/158/144 119/151/137
f 126/150/136 142/159/145 127/136/124
f 119/151/137 135/160/146 120/135/123
f 128/137/125 142/159/145 143/161/147
f 120/135/123 136/162/148 121/138/126
f 128/137/125 144/163/149 129/139/127
f 122/140/128 136/162/148 137/164/150
f 129/139/127 145/165/151 130/141/129
f 123/142/130 137/164/150 138/166/152
f 116/144/131 326/167/20 131/153/139
f 482/168/22 130/141/129 145/165/151
f 143/161/147 157/169/153 158/170/154
f 135/160/146 151/171/155 136/162/148
f 144/163/149 158/170/154 159/172/156
f 137/164/150 151/171/155 152/173/157
f 145/165/151 159/172/156 160/174/158
f 138/166/152 152/173/157 153/175/159
f 131/153/139 326/176/20 146/177/160
f 482/178/22 145/165/151 160/174/158
f 138/166/152 154/179/161 139/152/138
f 131/153/139 147/180/162 132/154/140
f 140/155/141 154/179/161 155/181/163
f 132/154/140 148/182/164 133/156/142
f 140/155/141 156/183/165 141/157/143
f 133/156/142 149/184/166 134/158/144
f 141/157/143 157/169/153 142/159/145
f 135/160/146 149/184/166 150/185/167
f 155/181/163 169/186/168 170/187/169
f 147/180/162 163/188/170 148/182/164
f 155/181/163 171/189/171 156/183/165
f 148/182/164 164/190/172 149/184/166
f 157/169/153 171/189/171 172/191/173
f 149/184/166 165/192/174 150/185/167
f 158/170/154 172/191/173 173/193/175
f 150/185/167 166/194/176 151/171/155
f 159/172/156 173/193/175 174/195/177
f 152/173/157 166/194/176 167/196/178
f 159/172/156 175/197/179 160/174/158
f 153/175/159 167/196/178 168/198/180
f 146/177/160 326/199/20 161/200/181
f 482/201/22 160/174/158 175/197/179
f 153/175/159 169/186/168 154/179/161
f 147/180/162 161/200/181 162/202/182
f 173/193/175 189/203/183 174/195/177
f 167/196/178 181/204/184 182/205/185
f 174/195/177 190/206/186 175/197/179
f 168/198/180 182/205/185 183/207/187
f 161/200/181 326/208/20 176/209/188
f 482/210/22 175/197/179 190/206/186
f 168/198/180 184/211/189 169/186/168
f 162/202/182 176/209/188 177/212/190
f 169/186/168 185/213/191 170/187/169
f 163/188/170 177/212/190 178/214/192
f 171/189/171 185/213/191 186/215/193
f 163/188/170 179/216/194 164/190/172
f 171/189/171 187/217/195 172/191/173
f 165/192/174 179/216/194 180/218/196
f 173/193/175 187/217/195 188/219/197
f 165/192/174 181/204/184 166/194/176
f 177/212/190 193/220/198 178/214/192
f 185/213/191 201/221/199 186/215/193
f 178/214/192 194/222/200 179/216/194
f 186/215/193 202/223/201 187/217/195
f 180/218/196 194/222/200 195/224/202
f 188/219/197 202/223/201 203/225/203
f 180/218/196 196/226/204 181/204/184
f 188/219/197 204/227/205 189/203/183
f 181/204/184 197/228/206 182/205/185
f 189/203/183 205/229/207 190/206/186
f 183/207/187 197/228/206 198/230/208
f 176/209/188 326/231/20 191/232/209
f 482/233/22 190/206/186 205/229/207
f 183/207/187 199/234/210 184/211/189
f 176/209/188 192/235/211 177/212/190
f 184/211/189 200/236/212 185/213/191
f 197/228/206 211/237/213 212/238/214
f 204/227/205 220/239/215 205/229/207
f 198/230/208 212/238/214 213/240/216
f 191/232/209 326/241/20 206/242/217
f 482/243/22 205/229/207 220/239/215
f 198/230/208 214/244/218 199/234/210
f 192/235/211 206/242/217 207/245/219
f 200/236/212 214/244/218 215/246/220
f 192/235/211 208/247/221 193/220/198
f 200/236/212 216/248/222 201/221/199
f 193/220/198 209/249/223 194/222/200
f 201/221/199 217/250/224 202/223/201
f 195/224/202 209/249/223 210/251/225
f 203/225/203 217/250/224 218/252/226
f 195/224/202 211/237/213 196/226/204
f 203/225/203 219/253/227 204/227/205
f 215/246/220 231/254/228 216/248/222
f 208/247/221 224/255/229 209/249/223
f 216/248/222 232/256/230 217/250/224
f 210/251/225 224/255/229 225/257/231
f 218/252/226 232/256/230 233/258/232
f 211/237/213 225/257/231 226/259/233
f 218/252/226 234/260/234 219/253/227
f 211/237/213 227/261/235 212/238/214
f 219/253/227 235/262/236 220/239/215
f 213/240/216 227/261/235 228/263/237
f 206/242/217 326/264/20 221/265/238
f 482/266/22 220/239/215 235/262/236
f 213/240/216 229/267/239 214/244/218
f 207/245/219 221/265/238 222/268/240
f 215/246/220 229/267/239 230/269/241
f 207/245/219 223/270/242 208/247/221
f 234/260/234 250/271/243 235/262/236
f 228/263/237 242/272/244 243/273/245
f 221/265/238 326/274/20 236/275/246
f 482/276/22 235/262/236 250/271/243
f 228/263/237 244/277/247 229/267/239
f 221/265/238 237/278/248 222/268/240
f 230/269/241 244/277/247 245/279/249
f 222/268/240 238/280/250 223/270/242
f 230/269/241 246/281/251 231/254/228
f 223/270/242 239/282/252 224/255/229
f 231/254/228 247/283/253 232/256/230
f 224/255/229 240/284/254 225/257/231
f 233/258/232 247/283/253 248/285/255
f 225/257/231 241/286/256 226/259/233
f 234/260/234 248/285/255 249/287/257
f 227/261/235 241/286/256 242/272/244
f 238/280/250 254/288/258 239/282/252
f 246/281/251 262/289/259 247/283/253
f 239/282/252 255/290/260 240/284/254
f 248/285/255 262/289/259 263/291/261
f 240/284/254 256/292/262 241/286/256
f 248/285/255 264/293/263 249/287/257
f 241/286/256 257/294/264 242/272/244
f 249/287/257 265/295/265 250/271/243
f 243/273/245 257/294/264 258/296/266
f 236/275/246 326/297/20 251/298/267
f 482/299/22 250/271/243 265/295/265
f 243/273/245 259/300/268 244/277/247
f 237/278/248 251/298/267 252/301/269
f 245/279/249 259/300/268 260/302/270
f 237/278/248 253/303/271 238/280/250
f 245/279/249 261/304/272 246/281/251
f 258/296/266 272/305/273 273/306/274
f 251/298/267 326/307/20 266/308/275
f 482/309/22 265/295/265 280/310/276
f 258/296/266 274/311/277 259/300/268
f 251/298/267 267/312/278 252/301/269
f 260/302/270 274/311/277 275/313/279
f 252/301/269 268/314/280 253/303/271
f 260/302/270 276/315/281 261/304/272
f 253/303/271 269/316/282 254/288/258
f 261/304/272 277/317/283 262/289/259
f 255/290/260 269/316/282 270/318/284
f 263/291/261 277/317/283 278/319/285
f 255/290/260 271/320/286 256/292/262
f 263/291/261 279/321/287 264/293/263
f 257/294/264 271/320/286 272/305/273
f 264/293/263 280/310/276 265/295/265
f 276/315/281 292/322/288 277/317/283
f 270/318/284 284/323/289 285/324/290
f 278/319/285 292/322/288 293/325/291
f 270/318/284 286/326/292 271/320/286
f 278/319/285 294/327/293 279/321/287
f 272/305/273 286/326/292 287/328/294
f 279/321/287 295/329/295 280/310/276
f 273/306/274 287/328/294 288/330/296
f 266/308/275 326/331/20 281/332/297
f 482/333/22 280/310/276 295/329/295
f 273/306/274 289/334/298 274/311/277
f 266/308/275 282/335/299 267/312/278
f 274/311/277 290/336/300 275/313/279
f 267/312/278 283/337/301 268/314/280
f 275/313/279 291/338/302 276/315/281
f 268/314/280 284/323/289 269/316/282
f 482/339/22 295/329/295 310/340/303
f 288/330/296 304/341/304 289/334/298
f 281/332/297 297/342/305 282/335/299
f 290/336/300 304/341/304 305/343/306
f 282/335/299 298/344/307 283/337/301
f 290/336/300 306/345/308 291/338/302
f 283/337/301 299/346/309 284/323/289
f 291/338/302 307/347/310 292/322/288
f 285/324/290 299/346/309 300/348/311
f 293/325/291 307/347/310 308/349/312
f 285/324/290 301/350/313 286/326/292
f 293/325/291 309/351/314 294/327/293
f 287/328/294 301/350/313 302/352/315
f 295/329/295 309/351/314 310/340/303
f 288/330/296 302/352/315 303/353/316
f 281/332/297 326/354/20 296/355/317
f 308/349/312 322/356/318 323/357/319
f 300/348/311 316/358/320 301/350/313
f 308/349/312 324/359/321 309/351/314
f 302/352/315 316/358/320 317/360/322
f 309/351/314 325/361/323 310/340/303
f 303/353/316 317/360/322 318/362/324
f 296/355/317 326/363/20 311/364/325
f 482/365/22 310/340/303 325/361/323
f 303/353/316 319/366/326 304/341/304
f 297/342/305 311/364/325 312/367/327
f 305/343/306 319/366/326 320/368/328
f 297/342/305 313/369/329 298/344/307
f 305/343/306 321/370/330 306/345/308
f 298/344/307 314/371/331 299/346/309
f 306/345/308 322/356/318 307/347/310
f 299/346/309 315/372/332 300/348/311
f 311/364/325 328/373/333 312/367/327
f 320/368/328 335/374/334 336/375/335
f 312/367/327 329/376/336 313/369/329
f 320/368/328 337/377/337 321/370/330
f 313/369/329 330/378/338 314/371/331
f 321/370/330 338/379/339 322/356/318
f 314/371/331 331/380/340 315/372/332
f 323/357/319 338/379/339 339/381/341
f 316/358/320 331/380/340 332/382/342
f 323/357/319 340/383/343 324/359/321
f 317/360/322 332/382/342 333/384/344
f 325/361/323 340/383/343 341/385/345
f 318/362/324 333/384/344 334/386/346
f 311/364/325 326/387/20 327/388/347
f 482/389/22 325/361/323 341/385/345
f 318/362/324 335/374/334 319/366/326
f 332/382/342 346/390/348 347/391/349
f 339/381/341 355/392/350 340/383/343
f 333/384/344 347/391/349 348/393/351
f 341/385/345 355/392/350 356/394/352
f 334/386/346 348/393/351 349/395/353
f 327/388/347 326/396/20 342/397/354
f 482/398/22 341/385/345 356/394/352
f 334/386/346 350/399/355 335/374/334
f 327/388/347 343/400/356 328/373/333
f 335/374/334 351/401/357 336/375/335
f 328/373/333 344/402/358 329/376/336
f 336/375/335 352/403/359 337/377/337
f 329/376/336 345/404/360 330/378/338
f 337/377/337 353/405/361 338/379/339
f 331/380/340 345/404/360 346/390/348
f 339/381/341 353/405/361 354/406/362
f 351/401/357 365/407/363 366/408/364
f 344/402/358 358/409/365 359/410/366
f 351/401/357 367/411/367 352/403/359
f 344/402/358 360/412/368 345/404/360
f 353/405/361 367/411/367 368/413/369
f 345/404/360 361/414/370 346/390/348
f 354/406/362 368/413/369 369/415/371
f 346/390/348 362/416/372 347/391/349
f 355/392/350 369/415/371 370/417/373
f 348/393/351 362/416/372 363/418/374
f 355/392/350 371/419/375 356/394/352
f 349/395/353 363/418/374 364/420/376
f 342/397/354 326/421/20 357/422/377
f 482/423/22 356/394/352 371/419/375
f 349/395/353 365/407/363 350/399/355
f 342/397/354 358/409/365 343/400/356
f 369/424/371 385/425/378 370/426/373
f 363/427/374 377/428/379 378/429/380
f 371/430/375 385/425/378 386/431/381
f 364/432/376 378/429/380 379/433/382
f 357/434/377 326/435/20 372/436/383
f 482/437/22 371/430/375 386/431/381
f 364/432/376 380/438/384 365/439/363
f 357/434/377 373/440/385 358/441/365
f 366/442/364 380/438/384 381/443/386
f 358/441/365 374/444/387 359/445/366
f 366/442/364 382/446/388 367/447/367
f 359/445/366 375/448/389 360/449/368
f 367/447/367 383/450/390 368/451/369
f 361/452/370 375/448/389 376/453/391
f 369/424/371 383/450/390 384/454/392
f 362/455/372 376/453/391 377/428/379
f 373/440/385 389/456/393 374/444/387
f 381/443/386 397/457/394 382/446/388
f 374/444/387 390/458/395 375/448/389
f 382/446/388 398/459/396 383/450/390
f 376/453/391 390/458/395 391/460/397
f 384/454/392 398/459/396 399/461/398
f 377/428/379 391/460/397 392/462/399
f 384/454/392 400/463/400 385/425/378
f 378/429/380 392/462/399 393/464/401
f 386/431/381 400/463/400 401/465/402
f 379/433/382 393/464/401 394/466/403
f 372/436/383 326/467/20 387/468/404
f 482/469/22 386/431/381 401/465/402
f 379/433/382 395/470/405 380/438/384
f 372/436/383 388/471/406 373/440/385
f 381/443/386 395/470/405 396/472/407
f 393/464/401 407/473/408 408/474/409
f 401/465/402 415/475/410 416/476/411
f 394/466/403 408/474/409 409/477/412
f 387/468/404 326/478/20 402/479/413
f 482/480/22 401/465/402 416/476/411
f 394/466/403 410/481/414 395/470/405
f 387/468/404 403/482/415 388/471/406
f 396/472/407 410/481/414 411/483/416
f 389/456/393 403/482/415 404/484/417
f 396/472/407 412/485/418 397/457/394
f 389/456/393 405/486/419 390/458/395
f 397/457/394 413/487/420 398/459/396
f 390/458/395 406/488/421 391/460/397
f 399/461/398 413/487/420 414/489/422
f 391/460/397 407/473/408 392/462/399
f 399/461/398 415/475/410 400/463/400
f 411/483/416 427/490/423 412/485/418
f 404/484/417 420/491/424 405/486/419
f 412/485/418 428/492/425 413/487/420
f 406/488/421 420/491/424 421/493/426
f 414/489/422 428/492/425 429/494/427
f 407/473/408 421/493/426 422/495/428
f 415/475/410 429/494/427 430/496/429
f 408/474/409 422/495/428 423/497/430
f 416/476/411 430/496/429 431/498/431
f 409/477/412 423/497/430 424/499/432
f 402/479/413 326/500/20 417/501/433
f 482/502/22 416/476/411 431/498/431
f 409/477/412 425/503/434 410/481/414
f 402/479/413 418/504/435 403/482/415
f 410/481/414 426/505/436 411/483/416
f 403/482/415 419/506/437 404/484/417
f 431/498/431 445/507/438 446/508/439
f 424/499/432 438/509/440 439/510/441
f 417/501/433 326/511/20 432/512/442
f 482/513/22 431/498/431 446/508/439
f 424/499/432 440/514/443 425/503/434
f 417/501/433 433/515/444 418/504/435
f 425/503/434 441/516/445 426/505/436
f 418/504/435 434/517/446 419/506/437
f 426/505/436 442/518/447 427/490/423
f 419/506/437 435/519/448 420/491/424
f 427/490/423 443/520/449 428/492/425
f 421/493/426 435/519/448 436/521/450
f 429/494/427 443/520/449 444/522/451
f 422/495/428 436/521/450 437/523/452
f 429/494/427 445/507/438 430/496/429
f 423/497/430 437/523/452 438/509/440
f 442/518/447 458/524/453 443/520/449
f 435/519/448 451/525/454 436/521/450
f 444/522/451 458/524/453 459/526/455
f 436/521/450 452/527/456 437/523/452
f 444/522/451 460/528/457 445/507/438
f 438/509/440 452/527/456 453/529/458
f 445/507/438 461/530/459 446/508/439
f 439/510/441 453/529/458 454/531/460
f 432/512/442 326/532/20 447/533/461
f 482/534/22 446/508/439 461/530/459
f 439/510/441 455/535/462 440/514/443
f 432/512/442 448/536/463 433/515/444
f 440/514/443 456/537/464 441/516/445
f 433/515/444 449/538/465 434/517/446
f 441/516/445 457/539/466 442/518/447
f 434/517/446 450/540/467 435/519/448
f 447/533/461 326/541/20 462/542/468
f 482/543/22 461/530/459 476/544/469
f 454/531/460 470/545/470 455/535/462
f 448/536/463 462/542/468 463/546/471
f 455/535/462 471/547/472 456/537/464
f 449/538/465 463/546/471 464/548/473
f 456/537/464 472/549/474 457/539/466
f 449/538/465 465/550/475 450/540/467
f 457/539/466 473/551/476 458/524/453
f 450/540/467 466/552/477 451/525/454
f 459/526/455 473/551/476 474/553/478
f 452/527/456 466/552/477 467/554/479
f 459/526/455 475/555/480 460/528/457
f 453/529/458 467/554/479 468/556/481
f 461/530/459 475/555/480 476/544/469
f 454/531/460 468/556/481 469/557/482
f 466/552/477 4/4/4 5/6/6
f 473/551/476 10/7/7 474/553/478
f 467/554/479 5/6/6 6/10/10
f 474/553/478 480/12/12 475/555/480
f 468/556/481 6/10/10 7/14/14
f 475/555/480 481/16/16 476/544/469
f 469/557/482 7/14/14 477/17/17
f 462/542/468 326/558/20 1/19/19
f 482/559/22 476/544/469 481/16/16
f 469/557/482 478/24/24 470/545/470
f 463/546/471 1/19/19 2/26/26
f 470/545/470 479/28/28 471/547/472
f 464/548/473 2/26/26 3/30/30
f 471/547/472 8/31/31 472/549/474
f 465/550/475 3/30/30 4/4/4
f 472/549/474 9/1/1 473/551/476
f 9/1/1 8/31/31 21/2/2
f 4/4/4 14/32/32 15/5/5
f 10/7/7 9/1/1 22/3/3
f 5/6/6 15/5/5 16/9/9
f 10/7/7 23/8/8 24/11/11
f 6/10/10 16/9/9 17/13/13
f 480/12/12 24/11/11 25/15/15
f 477/17/17 7/14/14 17/13/13
f 477/17/17 18/18/18 19/23/23
f 1/19/19 11/21/21 12/25/25
f 478/24/24 19/23/23 20/27/27
f 2/26/26 12/25/25 13/29/29
f 479/28/28 20/27/27 21/2/2
f 3/30/30 13/29/29 14/32/32
f 20/27/27 35/48/46 36/33/33
f 13/29/29 28/49/47 29/34/34
f 21/2/2 36/33/33 37/35/35
f 14/32/32 29/34/34 30/36/36
f 23/8/8 22/3/3 37/35/35
f 15/5/5 30/36/36 31/38/38
f 23/8/8 38/37/37 39/39/39
f 17/13/13 16/9/9 31/38/38
f 24/11/11 39/39/39 40/41/41
f 17/13/13 32/40/40 33/42/42
f 18/18/18 33/42/42 34/46/44
f 11/21/21 26/44/43 27/47/45
f 19/23/23 34/46/44 35/48/46
f 12/25/25 27/47/45 28/49/47
f 39/39/39 54/66/62 55/50/48
f 33/42/42 32/40/40 47/51/49
f 33/42/42 48/52/50 49/56/52
f 26/44/43 41/54/51 42/57/53
f 35/48/46 34/46/44 49/56/52
f 27/47/45 42/57/53 43/59/55
f 36/33/33 35/48/46 50/58/54
f 28/49/47 43/59/55 44/61/57
f 36/33/33 51/60/56 52/62/58
f 29/34/34 44/61/57 45/63/59
f 38/37/37 37/35/35 52/62/58
f 30/36/36 45/63/59 46/65/61
f 39/39/39 38/37/37 53/64/60
f 32/40/40 31/38/38 46/65/61
f 43/59/55 58/83/77 59/67/63
f 52/62/58 51/60/56 66/68/64
f 44/61/57 59/67/63 60/70/66
f 53/64/60 52/62/58 67/69/65
f 45/63/59 60/70/66 61/72/68
f 53/64/60 68/71/67 69/73/69
f 47/51/49 46/65/61 61/72/68
f 55/50/48 54/66/62 69/73/69
f 48/52/50 47/51/49 62/74/70
f 48/52/50 63/76/72 64/80/74
f 42/57/53 41/54/51 56/78/73
f 50/58/54 49/56/52 64/80/74
f 42/57/53 57/81/75 58/83/77
f 50/58/54 65/82/76 66/68/64
f 63/76/72 62/74/70 77/84/78
f 63/76/72 78/85/79 79/90/82
f 57/81/75 56/78/73 71/87/80
f 65/82/76 64/80/74 79/90/82
f 57/81/75 72/91/83 73/93/85
f 65/82/76 80/92/84 81/94/86
f 58/83/77 73/93/85 74/95/87
f 66/68/64 81/94/86 82/96/88
f 59/67/63 74/95/87 75/97/89
f 68/71/67 67/69/65 82/96/88
f 60/70/66 75/97/89 76/99/91
f 68/71/67 83/98/90 84/100/92
f 61/72/68 76/99/91 77/84/78
f 69/73/69 84/100/92 85/89/81
f 81/94/86 96/116/106 97/101/93
f 74/95/87 89/117/107 90/102/94
f 82/96/88 97/101/93 98/103/95
f 75/97/89 90/102/94 91/104/96
f 83/98/90 98/103/95 99/105/97
f 76/99/91 91/104/96 92/106/98
f 85/89/81 84/100/92 99/105/97
f 78/85/79 77/84/78 92/106/98
f 78/85/79 93/108/100 94/112/102
f 72/91/83 71/87/80 86/110/101
f 80/92/84 79/90/82 94/112/102
f 72/91/83 87/113/103 88/115/105
f 81/94/86 80/92/84 95/114/104
f 73/93/85 88/115/105 89/117/107
f 93/108/100 108/134/122 109/122/110
f 87/113/103 86/110/101 101/119/108
f 95/114/104 94/112/102 109/122/110
f 88/115/105 87/113/103 102/123/111
f 95/114/104 110/124/112 111/126/114
f 88/115/105 103/125/113 104/127/115
f 96/116/106 111/126/114 112/128/116
f 89/117/107 104/127/115 105/129/117
f 98/103/95 97/101/93 112/128/116
f 90/102/94 105/129/117 106/131/119
f 98/103/95 113/130/118 114/132/120
f 92/106/98 91/104/96 106/131/119
f 99/105/97 114/132/120 115/121/109
f 93/108/100 92/106/98 107/133/121
f 104/127/115 119/151/137 120/135/123
f 113/130/118 112/128/116 127/136/124
f 105/129/117 120/135/123 121/138/126
f 114/132/120 113/130/118 128/137/125
f 107/133/121 106/131/119 121/138/126
f 114/132/120 129/139/127 130/141/129
f 108/134/122 107/133/121 122/140/128
f 108/134/122 123/142/130 124/146/132
f 101/119/108 116/144/131 117/147/133
f 109/122/110 124/146/132 125/148/134
f 102/123/111 117/147/133 118/149/135
f 110/124/112 125/148/134 126/150/136
f 103/125/113 118/149/135 119/151/137
f 111/126/114 126/150/136 127/136/124
f 123/142/130 138/166/152 139/152/138
f 117/147/133 116/144/131 131/153/139
f 125/148/134 124/146/132 139/152/138
f 117/147/133 132/154/140 133/156/142
f 125/148/134 140/155/141 141/157/143
f 118/149/135 133/156/142 134/158/144
f 126/150/136 141/157/143 142/159/145
f 119/151/137 134/158/144 135/160/146
f 128/137/125 127/136/124 142/159/145
f 120/135/123 135/160/146 136/162/148
f 128/137/125 143/161/147 144/163/149
f 122/140/128 121/138/126 136/162/148
f 129/139/127 144/163/149 145/165/151
f 123/142/130 122/140/128 137/164/150
f 143/161/147 142/159/145 157/169/153
f 135/160/146 150/185/167 151/171/155
f 144/163/149 143/161/147 158/170/154
f 137/164/150 136/162/148 151/171/155
f 145/165/151 144/163/149 159/172/156
f 138/166/152 137/164/150 152/173/157
f 138/166/152 153/175/159 154/179/161
f 131/153/139 146/177/160 147/180/162
f 140/155/141 139/152/138 154/179/161
f 132/154/140 147/180/162 148/182/164
f 140/155/141 155/181/163 156/183/165
f 133/156/142 148/182/164 149/184/166
f 141/157/143 156/183/165 157/169/153
f 135/160/146 134/158/144 149/184/166
f 155/181/163 154/179/161 169/186/168
f 147/180/162 162/202/182 163/188/170
f 155/181/163 170/187/169 171/189/171
f 148/182/164 163/188/170 164/190/172
f 157/169/153 156/183/165 171/189/171
f 149/184/166 164/190/172 165/192/174
f 158/170/154 157/169/153 172/191/173
f 150/185/167 165/192/174 166/194/176
f 159/172/156 158/170/154 173/193/175
f 152/173/157 151/171/155 166/194/176
f 159/172/156 174/195/177 175/197/179
f 153/175/159 152/173/157 167/196/178
f 153/175/159 168/198/180 169/186/168
f 147/180/162 146/177/160 161/200/181
f 173/193/175 188/219/197 189/203/183
f 167/196/178 166/194/176 181/204/184
f 174/195/177 189/203/183 190/206/186
f 168/198/180 167/196/178 182/205/185
f 168/198/180 183/207/187 184/211/189
f 162/202/182 161/200/181 176/209/188
f 169/186/168 184/211/189 185/213/191
f 163/188/170 162/202/182 177/212/190
f 171/189/171 170/187/169 185/213/191
f 163/188/170 178/214/192 179/216/194
f 171/189/171 186/215/193 187/217/195
f 165/192/174 164/190/172 179/216/194
f 173/193/175 172/191/173 187/217/195
f 165/192/174 180/218/196 181/204/184
f 177/212/190 192/235/211 193/220/198
f 185/213/191 200/236/212 201/221/199
f 178/214/192 193/220/198 194/222/200
f 186/215/193 201/221/199 202/223/201
f 180/218/196 179/216/194 194/222/200
f 188/219/197 187/217/195 202/223/201
f 180/218/196 195/224/202 196/226/204
f 188/219/197 203/225/203 204/227/205
f 181/204/184 196/226/204 197/228/206
f 189/203/183 204/227/205 205/229/207
f 183/207/187 182/205/185 197/228/206
f 183/207/187 198/230/208 199/234/210
f 176/209/188 191/232/209 192/235/211
f 184/211/189 199/234/210 200/236/212
f 197/228/206 196/226/204 211/237/213
f 204/227/205 219/253/227 220/239/215
f 198/230/208 197/228/206 212/238/214
f 198/230/208 213/240/216 214/244/218
f 192/235/211 191/232/209 206/242/217
f 200/236/212 199/234/210 214/244/218
f 192/235/211 207/245/219 208/247/221
f 200/236/212 215/246/220 216/248/222
f 193/220/198 208/247/221 209/249/223
f 201/221/199 216/248/222 217/250/224
f 195/224/202 194/222/200 209/249/223
f 203/225/203 202/223/201 217/250/224
f 195/224/202 210/251/225 211/237/213
f 203/225/203 218/252/226 219/253/227
f 215/246/220 230/269/241 231/254/228
f 208/247/221 223/270/242 224/255/229
f 216/248/222 231/254/228 232/256/230
f 210/251/225 209/249/223 224/255/229
f 218/252/226 217/250/224 232/256/230
f 211/237/213 210/251/225 225/257/231
f 218/252/226 233/258/232 234/260/234
f 211/237/213 226/259/233 227/261/235
f 219/253/227 234/260/234 235/262/236
f 213/240/216 212/238/214 227/261/235
f 213/240/216 228/263/237 229/267/239
f 207/245/219 206/242/217 221/265/238
f 215/246/220 214/244/218 229/267/239
f 207/245/219 222/268/240 223/270/242
f 234/260/234 249/287/257 250/271/243
f 228/263/237 227/261/235 242/272/244
f 228/263/237 243/273/245 244/277/247
f 221/265/238 236/275/246 237/278/248
f 230/269/241 229/267/239 244/277/247
f 222/268/240 237/278/248 238/280/250
f 230/269/241 245/279/249 246/281/251
f 223/270/242 238/280/250 239/282/252
f 231/254/228 246/281/251 247/283/253
f 224/255/229 239/282/252 240/284/254
f 233/258/232 232/256/230 247/283/253
f 225/257/231 240/284/254 241/286/256
f 234/260/234 233/258/232 248/285/255
f 227/261/235 226/259/233 241/286/256
f 238/280/250 253/303/271 254/288/258
f 246/281/251 261/304/272 262/289/259
f 239/282/252 254/288/258 255/290/260
f 248/285/255 247/283/253 262/289/259
f 240/284/254 255/290/260 256/292/262
f 248/285/255 263/291/261 264/293/263
f 241/286/256 256/292/262 257/294/264
f 249/287/257 264/293/263 265/295/265
f 243/273/245 242/272/244 257/294/264
f 243/273/245 258/296/266 259/300/268
f 237/278/248 236/275/246 251/298/267
f 245/279/249 244/277/247 259/300/268
f 237/278/248 252/301/269 253/303/271
f 245/279/249 260/302/270 261/304/272
f 258/296/266 257/294/264 272/305/273
f 258/296/266 273/306/274 274/311/277
f 251/298/267 266/308/275 267/312/278
f 260/302/270 259/300/268 274/311/277
f 252/301/269 267/312/278 268/314/280
f 260/302/270 275/313/279 276/315/281
f 253/303/271 268/314/280 269/316/282
f 261/304/272 276/315/281 277/317/283
f 255/290/260 254/288/258 269/316/282
f 263/291/261 262/289/259 277/317/283
f 255/290/260 270/318/284 271/320/286
f 263/291/261 278/319/285 279/321/287
f 257/294/264 256/292/262 271/320/286
f 264/293/263 279/321/287 280/310/276
f 276/315/281 291/338/302 292/322/288
f 270/318/284 269/316/282 284/323/289
f 278/319/285 277/317/283 292/322/288
f 270/318/284 285/324/290 286/326/292
f 278/319/285 293/325/291 294/327/293
f 272/305/273 271/320/286 286/326/292
f 279/321/287 294/327/293 295/329/295
f 273/306/274 272/305/273 287/328/294
f 273/306/274 288/330/296 289/334/298
f 266/308/275 281/332/297 282/335/299
f 274/311/277 289/334/298 290/336/300
f 267/312/278 282/335/299 283/337/301
f 275/313/279 290/336/300 291/338/302
f 268/314/280 283/337/301 284/323/289
f 288/330/296 303/353/316 304/341/304
f 281/332/297 296/355/317 297/342/305
f 290/336/300 289/334/298 304/341/304
f 282/335/299 297/342/305 298/344/307
f 290/336/300 305/343/306 306/345/308
f 283/337/301 298/344/307 299/346/309
f 291/338/302 306/345/308 307/347/310
f 285/324/290 284/323/289 299/346/309
f 293/325/291 292/322/288 307/347/310
f 285/324/290 300/348/311 301/350/313
f 293/325/291 308/349/312 309/351/314
f 287/328/294 286/326/292 301/350/313
f 295/329/295 294/327/293 309/351/314
f 288/330/296 287/328/294 302/352/315
f 308/349/312 307/347/310 322/356/318
f 300/348/311 315/372/332 316/358/320
f 308/349/312 323/357/319 324/359/321
f 302/352/315 301/350/313 316/358/320
f 309/351/314 324/359/321 325/361/323
f 303/353/316 302/352/315 317/360/322
f 303/353/316 318/362/324 319/366/326
f 297/342/305 296/355/317 311/364/325
f 305/343/306 304/341/304 319/366/326
f 297/342/305 312/367/327 313/369/329
f 305/343/306 320/368/328 321/370/330
f 298/344/307 313/369/329 314/371/331
f 306/345/308 321/370/330 322/356/318
f 299/346/309 314/371/331 315/372/332
f 311/364/325 327/388/347 328/373/333
f 320/368/328 319/366/326 335/374/334
f 312/367/327 328/373/333 329/376/336
f 320/368/328 336/375/335 337/377/337
f 313/369/329 329/376/336 330/378/338
f 321/370/330 337/377/337 338/379/339
f 314/371/331 330/378/338 331/380/340
f 323/357/319 322/356/318 338/379/339
f 316/358/320 315/372/332 331/380/340
f 323/357/319 339/381/341 340/383/343
f 317/360/322 316/358/320 332/382/342
f 325/361/323 324/359/321 340/383/343
f 318/362/324 317/360/322 333/384/344
f 318/362/324 334/386/346 335/374/334
f 332/382/342 331/380/340 346/390/348
f 339/381/341 354/406/362 355/392/350
f 333/384/344 332/382/342 347/391/349
f 341/385/345 340/383/343 355/392/350
f 334/386/346 333/384/344 348/393/351
f 334/386/346 349/395/353 350/399/355
f 327/388/347 342/397/354 343/400/356
f 335/374/334 350/399/355 351/401/357
f 328/373/333 343/400/356 344/402/358
f 336/375/335 351/401/357 352/403/359
f 329/376/336 344/402/358 345/404/360
f 337/377/337 352/403/359 353/405/361
f 331/380/340 330/378/338 345/404/360
f 339/381/341 338/379/339 353/405/361
f 351/401/357 350/399/355 365/407/363
f 344/402/358 343/400/356 358/409/365
f 351/401/357 366/408/364 367/411/367
f 344/402/358 359/410/366 360/412/368
f 353/405/361 352/403/359 367/411/367
f 345/404/360 360/412/368 361/414/370
f 354/406/362 353/405/361 368/413/369
f 346/390/348 361/414/370 362/416/372
f 355/392/350 354/406/362 369/415/371
f 348/393/351 347/391/349 362/416/372
f 355/392/350 370/417/373 371/419/375
f 349/395/353 348/393/351 363/418/374
f 349/395/353 364/420/376 365/407/363
f 342/397/354 357/422/377 358/409/365
f 369/424/371 384/454/392 385/425/378
f 363/427/374 362/455/372 377/428/379
f 371/430/375 370/426/373 385/425/378
f 364/432/376 363/427/374 378/429/380
f 364/432/376 379/433/382 380/438/384
f 357/434/377 372/436/383 373/440/385
f 366/442/364 365/439/363 380/438/384
f 358/441/365 373/440/385 374/444/387
f 366/442/364 381/443/386 382/446/388
f 359/445/366 374/444/387 375/448/389
f 367/447/367 382/446/388 383/450/390
f 361/452/370 360/449/368 375/448/389
f 369/424/371 368/451/369 383/450/390
f 362/455/372 361/452/370 376/453/391
f 373/440/385 388/471/406 389/456/393
f 381/443/386 396/472/407 397/457/394
f 374/444/387 389/456/393 390/458/395
f 382/446/388 397/457/394 398/459/396
f 376/453/391 375/448/389 390/458/395
f 384/454/392 383/450/390 398/459/396
f 377/428/379 376/453/391 391/460/397
f 384/454/392 399/461/398 400/463/400
f 378/429/380 377/428/379 392/462/399
f 386/431/381 385/425/378 400/463/400
f 379/433/382 378/429/380 393/464/401
f 379/433/382 394/466/403 395/470/405
f 372/436/383 387/468/404 388/471/406
f 381/443/386 380/438/384 395/470/405
f 393/464/401 392/462/399 407/473/408
f 401/465/402 400/463/400 415/475/410
f 394/466/403 393/464/401 408/474/409
f 394/466/403 409/477/412 410/481/414
f 387/468/404 402/479/413 403/482/415
f 396/472/407 395/470/405 410/481/414
f 389/456/393 388/471/406 403/482/415
f 396/472/407 411/483/416 412/485/418
f 389/456/393 404/484/417 405/486/419
f 397/457/394 412/485/418 413/487/420
f 390/458/395 405/486/419 406/488/421
f 399/461/398 398/459/396 413/487/420
f 391/460/397 406/488/421 407/473/408
f 399/461/398 414/489/422 415/475/410
f 411/483/416 426/505/436 427/490/423
f 404/484/417 419/506/437 420/491/424
f 412/485/418 427/490/423 428/492/425
f 406/488/421 405/486/419 420/491/424
f 414/489/422 413/487/420 428/492/425
f 407/473/408 406/488/421 421/493/426
f 415/475/410 414/489/422 429/494/427
f 408/474/409 407/473/408 422/495/428
f 416/476/411 415/475/410 430/496/429
f 409/477/412 408/474/409 423/497/430
f 409/477/412 424/499/432 425/503/434
f 402/479/413 417/501/433 418/504/435
f 410/481/414 425/503/434 426/505/436
f 403/482/415 418/504/435 419/506/437
f 431/498/431 430/496/429 445/507/438
f 424/499/432 423/497/430 438/509/440
f 424/499/432 439/510/441 440/514/443
f 417/501/433 432/512/442 433/515/444
f 425/503/434 440/514/443 441/516/445
f 418/504/435 433/515/444 434/517/446
f 426/505/436 441/516/445 442/518/447
f 419/506/437 434/517/446 435/519/448
f 427/490/423 442/518/447 443/520/449
f 421/493/426 420/491/424 435/519/448
f 429/494/427 428/492/425 443/520/449
f 422/495/428 421/493/426 436/521/450
f 429/494/427 444/522/451 445/507/438
f 423/497/430 422/495/428 437/523/452
f 442/518/447 457/539/466 458/524/453
f 435/519/448 450/540/467 451/525/454
f 444/522/451 443/520/449 458/524/453
f 436/521/450 451/525/454 452/527/456
f 444/522/451 459/526/455 460/528/457
f 438/509/440 437/523/452 452/527/456
f 445/507/438 460/528/457 461/530/459
f 439/510/441 438/509/440 453/529/458
f 439/510/441 454/531/460 455/535/462
f 432/512/442 447/533/461 448/536/463
f 440/514/443 455/535/462 456/537/464
f 433/515/444 448/536/463 449/538/465
f 441/516/445 456/537/464 457/539/466
f 434/517/446 449/538/465 450/540/467
f 454/531/460 469/557/482 470/545/470
f 448/536/463 447/533/461 462/542/468
f 455/535/462 470/545/470 471/547/472
f 449/538/465 448/536/463 463/546/471
f 456/537/464 471/547/472 472/549/474
f 449/538/465 464/548/473 465/550/475
f 457/539/466 472/549/474 473/551/476
f 450/540/467 465/550/475 466/552/477
f 459/526/455 458/524/453 473/551/476
f 452/527/456 451/525/454 466/552/477
f 459/526/455 474/553/478 475/555/480
f 453/529/458 452/527/456 467/554/479
f 461/530/459 460/528/457 475/555/480
f 454/531/460 453/529/458 468/556/481
f 466/552/477 465/550/475 4/4/4
f 473/551/476 9/1/1 10/7/7
f 467/554/479 466/552/477 5/6/6
f 474/553/478 10/7/7 480/12/12
f 468/556/481 467/554/479 6/10/10
f 475/555/480 480/12/12 481/16/16
f 469/557/482 468/556/481 7/14/14
f 469/557/482 477/17/17 478/24/24
f 463/546/471 462/542/468 1/19/19
f 470/545/470 478/24/24 479/28/28
f 464/548/473 463/546/471 2/26/26
f 471/547/472 479/28/28 8/31/31
f 465/550/475 464/548/473 3/30/30
f 472/549/474 8/31/31 9/1/1
