# Blender 5.0.1
# www.blender.org
mtllib sun.mtl
o sun
v 2.378183 11.973224 0.127957
v 4.664974 11.278532 0.251001
v 6.772491 10.150413 0.364400
v 8.619743 8.632211 0.463794
v 10.135753 6.782288 0.545366
v 11.262243 4.671723 0.605979
v 11.955931 2.381623 0.643305
v 10.135753 -6.782285 0.545368
v 8.619743 -8.632212 0.463797
v 6.772491 -10.150414 0.364404
v 2.307523 11.973224 0.589459
v 4.526368 11.278532 1.156269
v 6.571270 10.150413 1.678645
v 8.363636 8.632211 2.136512
v 9.834601 6.782289 2.512273
v 10.927620 4.671723 2.791489
v 11.600697 2.381624 2.963429
v 11.827971 0.000001 3.021487
v 11.600697 -2.381622 2.963432
v 10.927620 -4.671720 2.791492
v 9.834601 -6.782285 2.512277
v 8.363636 -8.632212 2.136515
v 6.571266 -10.150414 1.678649
v 4.526368 -11.278534 1.156274
v 2.307523 -11.973226 0.589463
v 2.148186 11.973224 1.028308
v 4.213818 11.278532 2.017102
v 6.117513 10.150414 2.928381
v 7.786120 8.632212 3.727124
v 9.155510 6.782289 4.382633
v 10.173054 4.671724 4.869724
v 10.799658 2.381624 5.169672
v 11.011239 0.000001 5.270955
v 10.799658 -2.381622 5.169673
v 10.173054 -4.671719 4.869730
v 9.155510 -6.782285 4.382639
v 7.786120 -8.632211 3.727127
v 6.117513 -10.150413 2.928386
v 4.213818 -11.278534 2.017108
v 2.148186 -11.973226 1.028312
v 1.906295 11.973224 1.427639
v 3.739332 11.278532 2.800420
v 5.428668 10.150414 4.065583
v 6.909383 8.632212 5.174507
v 8.124574 6.782289 6.084575
v 9.027542 4.671724 6.760816
v 9.583589 2.381624 7.177246
v 9.771346 0.000001 7.317859
v 9.583589 -2.381621 7.177247
v 9.027542 -4.671719 6.760822
v 8.124574 -6.782284 6.084577
v 6.909383 -8.632211 5.174510
v 5.428668 -10.150413 4.065586
v 3.739332 -11.278534 2.800425
v 1.906295 -11.973226 1.427644
v 1.591147 11.973224 1.772107
v 3.121146 11.278533 3.476119
v 4.531200 10.150414 5.046543
v 5.767125 8.632212 6.423030
v 6.781422 6.782290 7.552687
v 7.535112 4.671724 8.392095
v 7.999237 2.381625 8.909004
v 8.155947 0.000002 9.083538
v 7.999237 -2.381621 8.909004
v 7.535112 -4.671719 8.392097
v 6.781422 -6.782284 7.552689
v 5.767125 -8.632211 6.423037
v 4.531200 -10.150413 5.046546
v 3.121146 -11.278533 3.476123
v 1.591146 -11.973226 1.772111
v 1.214851 11.973224 2.048473
v 2.383016 11.278533 4.018234
v 3.459603 10.150414 5.833570
v 4.403239 8.632212 7.424725
v 5.177660 6.782290 8.730556
v 5.753110 4.671724 9.700870
v 6.107470 2.381627 10.298395
v 6.227116 0.000002 10.500149
v 6.107470 -2.381619 10.298395
v 5.753110 -4.671719 9.700879
v 5.177660 -6.782284 8.730557
v 4.403239 -8.632211 7.424727
v 3.459603 -10.150413 5.833572
v 2.383018 -11.278533 4.018238
v 1.214850 -11.973226 2.048479
v 0.791870 11.973224 2.246119
v 1.553308 11.278533 4.405927
v 2.255055 10.150414 6.396413
v 2.870139 8.632212 8.141090
v 3.374926 6.782290 9.572909
v 3.750018 4.671725 10.636847
v 3.980998 2.381625 11.292023
v 4.058985 0.000002 11.513246
v 3.980998 -2.381621 11.292023
v 3.750018 -4.671718 10.636849
v 3.374926 -6.782284 9.572911
v 2.870139 -8.632211 8.141092
v 2.255053 -10.150413 6.396416
v 1.553308 -11.278533 4.405931
v 0.791869 -11.973226 2.246123
v 0.338457 11.973224 2.357446
v 0.663907 11.278533 4.624304
v 0.963844 10.150414 6.713448
v 1.226742 8.632212 8.544597
v 1.442495 6.782290 10.047382
v 1.602815 4.671725 11.164054
v 1.701538 2.381627 11.851698
v 1.734873 0.000002 12.083890
v 1.701539 -2.381619 11.851698
v 1.602814 -4.671718 11.164063
v 1.442495 -6.782284 10.047384
v 1.226742 -8.632211 8.544599
v 0.963844 -10.150413 6.713450
v 0.663907 -11.278533 4.624308
v 0.338457 -11.973226 2.357450
v -0.127962 11.973224 2.378178
v -0.251007 11.278533 4.664971
v -0.364405 10.150414 6.772488
v -0.463799 8.632212 8.619740
v -0.545371 6.782290 10.135741
v -0.605982 4.671725 11.262232
v -0.643308 2.381627 11.955929
v -0.655912 0.000002 12.190158
v -0.643308 -2.381619 11.955929
v -0.605984 -4.671718 11.262241
v -0.545371 -6.782284 10.135743
v -0.463799 -8.632211 8.619741
v -0.364405 -10.150413 6.772491
v -0.251007 -11.278533 4.664975
v -0.127962 -11.973226 2.378183
v -0.589464 11.973224 2.307518
v -1.156276 11.278533 4.526365
v -1.678650 10.150414 6.571263
v -2.136516 8.632212 8.363632
v -2.512276 6.782290 9.834590
v -2.791491 4.671725 10.927616
v -2.963433 2.381627 11.600694
v -3.021490 0.000002 11.827960
v -2.963433 -2.381619 11.600694
v -2.791495 -4.671718 10.927618
v -2.512278 -6.782284 9.834592
v -2.136516 -8.632211 8.363634
v -1.678650 -10.150413 6.571266
v -1.156276 -11.278533 4.526369
v -0.589464 -11.973226 2.307522
v -1.028314 11.973224 2.148180
v -2.017109 11.278533 4.213811
v -2.928385 10.150414 6.117506
v -3.727129 8.632212 7.786117
v -4.382639 6.782290 9.155499
v -4.869727 4.671724 10.173050
v -5.169674 2.381627 10.799656
v -5.270956 0.000002 11.011229
v -5.169674 -2.381619 10.799656
v -4.869730 -4.671719 10.173052
v -4.382639 -6.782284 9.155500
v -3.727129 -8.632211 7.786119
v -2.928385 -10.150405 6.117513
v -2.017109 -11.278533 4.213819
v -1.028314 -11.973226 2.148186
v -1.427645 11.973224 1.906290
v -2.800426 11.278533 3.739329
v -4.065586 10.150414 5.428662
v -5.174510 8.632212 6.909377
v -6.084576 6.782290 8.124570
v -6.760822 4.671724 9.027538
v -7.177251 2.381625 9.583586
v -7.317861 0.000002 9.771336
v -7.177251 -2.381621 9.583586
v -6.760822 -4.671719 9.027548
v -6.084580 -6.782284 8.124572
v -5.174510 -8.632211 6.909383
v -4.065586 -10.150405 5.428665
v -2.800426 -11.278533 3.739333
v -1.427645 -11.973226 1.906294
v -1.772112 11.973224 1.591141
v -3.476124 11.278533 3.121142
v -5.046549 10.150414 4.531194
v -6.423037 8.632212 5.767122
v -7.552689 6.782289 6.781416
v -8.392100 4.671724 7.535105
v -8.909008 2.381624 7.999227
v -9.083542 0.000002 8.155936
v -8.909008 -2.381621 7.999228
v -8.392100 -4.671719 7.535110
v -7.552689 -6.782284 6.781418
v -6.423037 -8.632211 5.767125
v -5.046549 -10.150405 4.531200
v -3.476124 -11.278533 3.121146
v -1.772112 -11.973226 1.591146
v -2.048478 11.973224 1.214846
v -4.018237 11.278532 2.383012
v -5.833572 10.150414 3.459597
v -7.424727 8.632212 4.403236
v -8.730553 6.782289 5.177658
v -9.700875 4.671724 5.753104
v -10.298392 2.381624 6.107464
v -10.500145 0.000001 6.227111
v -10.298392 -2.381622 6.107465
v -9.700875 -4.671719 5.753106
v -8.730553 -6.782284 5.177660
v -7.424727 -8.632211 4.403239
v -5.833572 -10.150405 3.459601
v -4.018237 -11.278534 2.383016
v -2.048480 -11.973226 1.214851
v -2.246124 11.973224 0.791865
v -4.405930 11.278532 1.553304
v -6.396416 10.150413 2.255049
v -8.141095 8.632211 2.870136
v -9.572914 6.782289 3.374923
v -10.636852 4.671723 3.750014
v -11.292020 2.381624 3.980992
v -11.513242 0.000001 4.058984
v -11.292020 -2.381622 3.980993
v -10.636852 -4.671720 3.750015
v -9.572914 -6.782285 3.374925
v -8.141095 -8.632212 2.870139
v -6.396416 -10.150406 2.255053
v -4.405930 -11.278534 1.553308
v -2.246122 -11.973226 0.791869
v -2.357451 11.973224 0.338452
v -4.624307 11.278532 0.663903
v -6.713450 10.150413 0.963840
v -8.544601 8.632211 1.226738
v -10.047387 6.782288 1.442492
v -11.164059 4.671723 1.602812
v -11.851694 2.381624 1.701535
v -12.083886 0.000000 1.734869
v -11.851694 -2.381622 1.701537
v -11.164059 -4.671720 1.602812
v -10.047387 -6.782285 1.442494
v -8.544601 -8.632212 1.226741
v -6.713450 -10.150414 0.963843
v -4.624307 -11.278534 0.663907
v -2.357451 -11.973226 0.338457
v -2.378182 11.973224 -0.127967
v -4.664974 11.278532 -0.251012
v -6.772491 10.150413 -0.364410
v -8.619745 8.632211 -0.463803
v -10.135746 6.782288 -0.545374
v -11.262238 4.671723 -0.605986
v -11.955926 2.381623 -0.643312
v -12.190156 -0.000000 -0.655916
v -11.955926 -2.381623 -0.643310
v -11.262238 -4.671720 -0.605986
v -10.135746 -6.782285 -0.545372
v -8.619745 -8.632212 -0.463799
v -6.772491 -10.150414 -0.364406
v -4.664974 -11.278534 -0.251007
v -2.378182 -11.973226 -0.127962
v -2.307522 11.973224 -0.589468
v -4.526368 11.278532 -1.156280
v -6.571266 10.150413 -1.678656
v -8.363638 8.632211 -2.136519
v -9.834595 6.782288 -2.512280
v -10.927613 4.671722 -2.791495
v -11.600690 2.381623 -2.963435
v -11.827965 -0.000001 -3.021494
v -11.600690 -2.381623 -2.963434
v -10.927621 -4.671721 -2.791496
v -9.834595 -6.782286 -2.512277
v -8.363638 -8.632212 -2.136517
v -6.571266 -10.150414 -1.678651
v -4.526368 -11.278534 -1.156276
v -2.307522 -11.973226 -0.589464
v -2.148185 11.973224 -1.028317
v -4.213818 11.278532 -2.017112
v -6.117512 10.150412 -2.928391
v -7.786116 8.632210 -3.727129
v -9.155505 6.782288 -4.382642
v -10.173048 4.671722 -4.869729
v -10.799652 2.381622 -5.169675
v -11.011225 -0.000001 -5.270957
v -10.799652 -2.381624 -5.169674
v -10.173056 -4.671721 -4.869731
v -9.155505 -6.782286 -4.382640
v -7.786116 -8.632213 -3.727128
v -6.117512 -10.150414 -2.928387
v -4.213818 -11.278534 -2.017109
v -2.148185 -11.973226 -1.028312
v -1.906295 11.973224 -1.427649
v -3.739333 11.278532 -2.800430
v -5.428668 10.150412 -4.065588
v -6.909383 8.632210 -5.174513
v -8.124576 6.782287 -6.084579
v -9.027544 4.671722 -6.760820
v -9.583583 2.381622 -7.177253
v -9.771333 -0.000002 -7.317863
v -9.583583 -2.381624 -7.177252
v -9.027544 -4.671721 -6.760822
v -8.124576 -6.782286 -6.084577
v -6.909383 -8.632213 -5.174506
v -5.428668 -10.150414 -4.065585
v -3.739333 -11.278534 -2.800426
v -1.906295 -11.973226 -1.427644
v -1.591146 11.973224 -1.772117
v -3.121145 11.278531 -3.476127
v -4.531200 10.150412 -5.046548
v -5.767125 8.632210 -6.423040
v -6.781422 6.782287 -7.552692
v -7.535111 4.671721 -8.392104
v -7.999232 2.381622 -8.909011
v -8.155932 -0.000002 -9.083545
v -7.999232 -2.381624 -8.909011
v -7.535111 -4.671721 -8.392102
v -6.781422 -6.782287 -7.552690
v -5.767125 -8.632213 -6.423033
v -4.531200 -10.150414 -5.046545
v -3.121145 -11.278535 -3.476122
v -1.591146 -11.973226 -1.772111
v -1.214851 11.973224 -2.048483
v -2.383017 11.278531 -4.018240
v -3.459602 10.150412 -5.833575
v -4.403239 8.632210 -7.424731
v -5.177660 6.782287 -8.730556
v -5.753110 4.671721 -9.700879
v -6.107465 2.381622 -10.298395
v -6.227112 -0.000002 -10.500148
v -6.107465 -2.381624 -10.298395
v -5.753106 -4.671721 -9.700877
v -5.177660 -6.782287 -8.730555
v -4.403239 -8.632213 -7.424728
v -3.459602 -10.150414 -5.833572
v -2.383017 -11.278535 -4.018233
v -1.214851 -11.973226 -2.048477
v -0.000001 12.207793 -0.000006
v -0.791870 11.973224 -2.246128
v -1.553308 11.278531 -4.405933
v -2.255052 10.150412 -6.396419
v -2.870141 8.632210 -8.141091
v -3.374925 6.782287 -9.572910
v -3.750017 4.671717 -10.636856
v -3.980993 2.381621 -11.292023
v -4.058981 -0.000002 -11.513245
v -3.980993 -2.381624 -11.292023
v -3.750017 -4.671722 -10.636854
v -3.374925 -6.782287 -9.572908
v -2.870138 -8.632213 -8.141089
v -2.255052 -10.150414 -6.396416
v -1.553308 -11.278535 -4.405929
v -0.791870 -11.973226 -2.246122
v -0.338458 11.973224 -2.357455
v -0.663908 11.278531 -4.624310
v -0.963844 10.150412 -6.713453
v -1.226742 8.632210 -8.544605
v -1.442495 6.782287 -10.047391
v -1.602814 4.671721 -11.164062
v -1.701537 2.381621 -11.851706
v -1.734868 -0.000003 -12.083881
v -1.701538 -2.381624 -11.851706
v -1.602813 -4.671722 -11.164061
v -1.442495 -6.782287 -10.047389
v -1.226742 -8.632213 -8.544603
v -0.963843 -10.150414 -6.713450
v -0.663908 -11.278535 -4.624303
v -0.338458 -11.973226 -2.357449
v 0.127961 11.973224 -2.378188
v 0.251006 11.278531 -4.664978
v 0.364405 10.150412 -6.772493
v 0.463798 8.632210 -8.619749
v 0.545370 6.782287 -10.135750
v 0.605983 4.671721 -11.262241
v 0.643309 2.381621 -11.955929
v 0.655915 -0.000003 -12.190150
v 0.643308 -2.381624 -11.955929
v 0.605984 -4.671722 -11.262239
v 0.545370 -6.782287 -10.135748
v 0.463798 -8.632213 -8.619747
v 0.364404 -10.150414 -6.772486
v 0.251006 -11.278535 -4.664974
v 0.127961 -11.973226 -2.378182
v 0.589463 11.973224 -2.307526
v 1.156274 11.278531 -4.526371
v 1.678649 10.150412 -6.571269
v 2.136516 8.632210 -8.363642
v 2.512275 6.782287 -9.834591
v 2.791494 4.671717 -10.927617
v 2.963434 2.381621 -11.600693
v 3.021493 -0.000002 -11.827959
v 2.963435 -2.381624 -11.600693
v 2.791496 -4.671722 -10.927615
v 2.512275 -6.782287 -9.834589
v 2.136516 -8.632213 -8.363640
v 1.678649 -10.150414 -6.571266
v 1.156274 -11.278535 -4.526367
v 0.589463 -11.973226 -2.307522
v 1.028312 11.973224 -2.148190
v 2.017106 11.278531 -4.213821
v 2.928386 10.150412 -6.117515
v 3.727127 8.632210 -7.786119
v 4.382636 6.782287 -9.155509
v 4.869727 4.671718 -10.173052
v 5.169674 2.381622 -10.799655
v 5.270956 -0.000002 -11.011220
v 5.169674 -2.381624 -10.799655
v 4.869727 -4.671721 -10.173050
v 4.382636 -6.782287 -9.155507
v 3.727125 -8.632213 -7.786117
v 2.928386 -10.150414 -6.117508
v 2.017106 -11.278535 -4.213814
v 1.028312 -11.973226 -2.148185
v 1.427643 11.973224 -1.906299
v 2.800423 11.278531 -3.739335
v 4.065582 10.150412 -5.428667
v 5.174506 8.632210 -6.909386
v 6.084573 6.782287 -8.124572
v 6.760818 4.671721 -9.027547
v 7.177248 2.381622 -9.583586
v 7.317858 -0.000002 -9.771336
v 7.177248 -2.381624 -9.583586
v 6.760818 -4.671721 -9.027545
v 6.084577 -6.782287 -8.124570
v 5.174506 -8.632213 -6.909383
v 4.065582 -10.150414 -5.428664
v 2.800423 -11.278535 -3.739329
v 1.427643 -11.973226 -1.906294
v 1.772111 11.973224 -1.591151
v 3.476121 11.278531 -3.121149
v 5.046541 10.150412 -4.531199
v 6.423033 8.632210 -5.767128
v 7.552685 6.782287 -6.781420
v 8.392098 4.671721 -7.535114
v 8.909007 2.381622 -7.999227
v 9.083541 -0.000002 -8.155935
v 8.909007 -2.381624 -7.999226
v 8.392098 -4.671721 -7.535112
v 7.552685 -6.782286 -6.781418
v 6.423033 -8.632213 -5.767125
v 5.046541 -10.150414 -4.531196
v 3.476121 -11.278535 -3.121143
v 1.772111 -11.973226 -1.591146
v 2.048477 11.973224 -1.214855
v 4.018234 11.278532 -2.383018
v 5.833568 10.150412 -3.459603
v 7.424725 8.632210 -4.403242
v 8.730559 6.782287 -5.177662
v 9.700873 4.671722 -5.753109
v 10.298389 2.381622 -6.107467
v 10.500152 -0.000001 -6.227109
v 10.298389 -2.381624 -6.107466
v 9.700873 -4.671721 -5.753107
v 8.730559 -6.782286 -5.177660
v 7.424725 -8.632213 -4.403239
v 5.833568 -10.150414 -3.459598
v 4.018234 -11.278534 -2.383014
v 2.048477 -11.973226 -1.214851
v 2.246121 11.973224 -0.791874
v 4.405926 11.278532 -1.553312
v 6.396412 10.150413 -2.255055
v 8.141086 8.632211 -2.870142
v 9.572912 6.782288 -3.374928
v 10.636851 4.671722 -3.750019
v 11.292018 2.381623 -3.980995
v 11.513240 -0.000001 -4.058983
v 11.292018 -2.381623 -3.980994
v 10.636851 -4.671721 -3.750016
v 9.572912 -6.782286 -3.374925
v 8.141086 -8.632212 -2.870139
v 6.396412 -10.150414 -2.255052
v 4.405926 -11.278534 -1.553307
v 2.246121 -11.973226 -0.791870
v 2.357450 11.973224 -0.338462
v 4.624303 11.278532 -0.663911
v 6.713447 10.150413 -0.963847
v 8.544600 8.632211 -1.226746
v 10.047386 6.782288 -1.442499
v 11.164057 4.671722 -1.602818
v 11.851701 2.381623 -1.701539
v 12.083877 -0.000000 -1.734869
v 11.851701 -2.381623 -1.701538
v 11.164057 -4.671721 -1.602814
v 10.047386 -6.782285 -1.442496
v 8.544600 -8.632212 -1.226742
v 6.713447 -10.150414 -0.963843
v 4.624303 -11.278534 -0.663908
v 2.357448 -11.973226 -0.338457
v 12.190146 0.000000 0.655914
v 11.955923 -2.381623 0.643308
v 11.262236 -4.671720 0.605982
v 4.664970 -11.278534 0.251006
v 2.378181 -11.973226 0.127962
v -0.000001 -12.207795 -0.000000
vn 0.8321 -0.5528 0.0448
vn 0.6880 -0.7041 0.1758
vn 0.7091 -0.7041 0.0382
vn 0.7091 0.7041 0.0382
vn 0.8074 0.5528 0.2063
vn 0.8321 0.5528 0.0448
vn 0.5424 -0.8286 0.1385
vn 0.5590 -0.8286 0.0301
vn 0.9234 0.3805 0.0497
vn 0.8960 0.3805 0.2289
vn 0.3758 -0.9217 0.0960
vn 0.3873 -0.9217 0.0208
vn 0.9505 0.1939 0.2428
vn 0.9796 0.1939 0.0527
vn 0.1947 -0.9796 0.0497
vn 0.2007 -0.9796 0.0108
vn 0.9986 -0.0000 0.0537
vn 0.9689 -0.0000 0.2475
vn 0.2007 0.9796 0.0108
vn -0.0000 1.0000 -0.0000
vn 0.1947 0.9796 0.0497
vn -0.0000 -1.0000 -0.0000
vn 0.9505 -0.1939 0.2428
vn 0.9796 -0.1939 0.0527
vn 0.3758 0.9217 0.0960
vn 0.3873 0.9217 0.0208
vn 0.8960 -0.3805 0.2289
vn 0.9234 -0.3805 0.0497
vn 0.5590 0.8286 0.0301
vn 0.5424 0.8286 0.1385
vn 0.8074 -0.5528 0.2063
vn 0.6880 0.7041 0.1758
vn 0.7517 -0.5528 0.3598
vn 0.6405 0.7041 0.3066
vn 0.6405 -0.7041 0.3066
vn 0.7517 0.5528 0.3598
vn 0.5049 -0.8286 0.2417
vn 0.8341 0.3805 0.3993
vn 0.3499 -0.9217 0.1675
vn 0.8849 0.1939 0.4236
vn 0.1813 -0.9796 0.0868
vn 0.9020 -0.0000 0.4318
vn 0.1813 0.9796 0.0868
vn 0.8849 -0.1939 0.4236
vn 0.3499 0.9217 0.1675
vn 0.8341 -0.3805 0.3993
vn 0.5049 0.8286 0.2417
vn 0.1609 -0.9796 0.1205
vn 0.8004 -0.0000 0.5994
vn 0.1609 0.9796 0.1205
vn 0.7852 -0.1939 0.5881
vn 0.3105 0.9217 0.2325
vn 0.7402 -0.3805 0.5543
vn 0.4481 0.8286 0.3356
vn 0.6670 -0.5528 0.4995
vn 0.5684 0.7041 0.4257
vn 0.5684 -0.7041 0.4257
vn 0.6670 0.5528 0.4995
vn 0.4481 -0.8286 0.3356
vn 0.7402 0.3805 0.5543
vn 0.3105 -0.9217 0.2325
vn 0.7852 0.1939 0.5881
vn 0.4744 0.7041 0.5284
vn 0.5567 -0.5528 0.6201
vn 0.4744 -0.7041 0.5284
vn 0.5567 0.5528 0.6201
vn 0.3740 -0.8286 0.4165
vn 0.6178 0.3805 0.6881
vn 0.2591 -0.9217 0.2886
vn 0.6554 0.1939 0.7300
vn 0.1343 -0.9796 0.1495
vn 0.6681 -0.0000 0.7441
vn 0.1343 0.9796 0.1495
vn 0.6554 -0.1939 0.7299
vn 0.2591 0.9217 0.2886
vn 0.6178 -0.3805 0.6881
vn 0.3740 0.8286 0.4165
vn 0.5004 0.1939 0.8438
vn 0.5101 -0.0000 0.8601
vn 0.1025 0.9796 0.1729
vn 0.1025 -0.9796 0.1729
vn 0.5004 -0.1939 0.8438
vn 0.1979 0.9217 0.3336
vn 0.4717 -0.3805 0.7954
vn 0.2855 0.8286 0.4815
vn 0.4251 -0.5528 0.7168
vn 0.3622 0.7041 0.6108
vn 0.3622 -0.7041 0.6108
vn 0.4251 0.5528 0.7168
vn 0.2855 -0.8286 0.4815
vn 0.4717 0.3805 0.7954
vn 0.1979 -0.9217 0.3336
vn 0.2361 -0.7041 0.6697
vn 0.2771 0.5528 0.7859
vn 0.1861 -0.8286 0.5279
vn 0.3075 0.3805 0.8722
vn 0.1290 -0.9217 0.3658
vn 0.3262 0.1939 0.9252
vn 0.0668 -0.9796 0.1895
vn 0.3325 -0.0000 0.9431
vn 0.0668 0.9796 0.1895
vn 0.3262 -0.1939 0.9252
vn 0.1290 0.9217 0.3658
vn 0.3075 -0.3805 0.8722
vn 0.1861 0.8286 0.5279
vn 0.2771 -0.5528 0.7859
vn 0.2361 0.7041 0.6697
vn 0.0286 0.9796 0.1989
vn 0.0286 -0.9796 0.1989
vn 0.1394 -0.1939 0.9711
vn 0.0551 0.9217 0.3839
vn 0.1314 -0.3805 0.9154
vn 0.0796 0.8286 0.5541
vn 0.1184 -0.5528 0.8249
vn 0.1009 0.7041 0.7029
vn 0.1009 -0.7041 0.7029
vn 0.1184 0.5528 0.8249
vn 0.0796 -0.8286 0.5541
vn 0.1314 0.3805 0.9154
vn 0.0551 -0.9217 0.3840
vn 0.1394 0.1939 0.9711
vn 0.1421 -0.0000 0.9899
vn -0.0382 0.7041 0.7091
vn -0.0448 0.5528 0.8321
vn -0.0382 -0.7041 0.7091
vn -0.0301 -0.8286 0.5590
vn -0.0497 0.3805 0.9234
vn -0.0208 -0.9217 0.3873
vn -0.0527 0.1939 0.9796
vn -0.0108 -0.9796 0.2007
vn -0.0537 -0.0000 0.9986
vn -0.0108 0.9796 0.2007
vn -0.0527 -0.1939 0.9796
vn -0.0208 0.9217 0.3873
vn -0.0497 -0.3805 0.9234
vn -0.0301 0.8286 0.5590
vn -0.0448 -0.5528 0.8321
vn -0.2428 -0.1939 0.9505
vn -0.0960 0.9217 0.3758
vn -0.2289 -0.3805 0.8960
vn -0.1385 0.8286 0.5424
vn -0.2063 -0.5528 0.8074
vn -0.1758 0.7041 0.6880
vn -0.1758 -0.7041 0.6880
vn -0.2063 0.5528 0.8074
vn -0.1385 -0.8286 0.5424
vn -0.2289 0.3805 0.8960
vn -0.0960 -0.9217 0.3758
vn -0.2428 0.1939 0.9505
vn -0.0497 -0.9796 0.1947
vn -0.2475 -0.0000 0.9689
vn -0.0497 0.9796 0.1947
vn -0.2417 -0.8286 0.5049
vn -0.3993 0.3805 0.8341
vn -0.1675 -0.9217 0.3499
vn -0.4236 0.1939 0.8849
vn -0.0868 -0.9796 0.1813
vn -0.4318 -0.0000 0.9020
vn -0.0868 0.9796 0.1813
vn -0.4236 -0.1939 0.8849
vn -0.1675 0.9217 0.3499
vn -0.3993 -0.3805 0.8341
vn -0.2417 0.8286 0.5049
vn -0.3598 -0.5528 0.7517
vn -0.3066 0.7041 0.6405
vn -0.3066 -0.7041 0.6405
vn -0.3598 0.5528 0.7517
vn -0.5543 -0.3805 0.7402
vn -0.2325 0.9217 0.3105
vn -0.3356 0.8286 0.4481
vn -0.4995 -0.5528 0.6670
vn -0.4257 0.7041 0.5684
vn -0.4257 -0.7041 0.5684
vn -0.4995 0.5528 0.6670
vn -0.3356 -0.8286 0.4481
vn -0.5543 0.3805 0.7402
vn -0.2325 -0.9217 0.3105
vn -0.5881 0.1939 0.7852
vn -0.1205 -0.9796 0.1609
vn -0.5994 -0.0000 0.8004
vn -0.1205 0.9796 0.1609
vn -0.5881 -0.1939 0.7852
vn -0.2886 -0.9217 0.2591
vn -0.7300 0.1939 0.6554
vn -0.1495 -0.9796 0.1343
vn -0.7441 -0.0000 0.6681
vn -0.1495 0.9796 0.1343
vn -0.7300 -0.1939 0.6554
vn -0.2886 0.9217 0.2591
vn -0.6881 -0.3805 0.6178
vn -0.4165 0.8286 0.3740
vn -0.6201 -0.5528 0.5567
vn -0.5284 0.7041 0.4744
vn -0.5284 -0.7041 0.4744
vn -0.6201 0.5528 0.5567
vn -0.4165 -0.8286 0.3740
vn -0.6881 0.3805 0.6178
vn -0.4815 0.8286 0.2855
vn -0.7168 -0.5528 0.4251
vn -0.6108 0.7041 0.3622
vn -0.6108 -0.7041 0.3622
vn -0.7168 0.5528 0.4251
vn -0.4815 -0.8286 0.2855
vn -0.7954 0.3805 0.4717
vn -0.3336 -0.9217 0.1979
vn -0.8438 0.1939 0.5004
vn -0.1729 -0.9796 0.1025
vn -0.8601 -0.0000 0.5101
vn -0.1729 0.9796 0.1025
vn -0.8438 -0.1939 0.5004
vn -0.3336 0.9217 0.1979
vn -0.7954 -0.3805 0.4717
vn -0.9252 0.1939 0.3262
vn -0.3658 -0.9217 0.1290
vn -0.1895 -0.9796 0.0668
vn -0.9431 -0.0000 0.3325
vn -0.1895 0.9796 0.0668
vn -0.9252 -0.1939 0.3262
vn -0.3658 0.9217 0.1290
vn -0.8722 -0.3805 0.3075
vn -0.5279 0.8286 0.1861
vn -0.7859 -0.5528 0.2771
vn -0.6697 0.7041 0.2361
vn -0.6697 -0.7041 0.2361
vn -0.7859 0.5528 0.2771
vn -0.5279 -0.8286 0.1861
vn -0.8722 0.3805 0.3075
vn -0.8249 -0.5528 0.1184
vn -0.7029 0.7041 0.1009
vn -0.7029 -0.7041 0.1009
vn -0.8249 0.5528 0.1184
vn -0.5541 -0.8286 0.0796
vn -0.9154 0.3805 0.1314
vn -0.3839 -0.9217 0.0551
vn -0.9711 0.1939 0.1394
vn -0.1989 -0.9796 0.0286
vn -0.9899 -0.0000 0.1421
vn -0.1989 0.9796 0.0286
vn -0.9711 -0.1939 0.1394
vn -0.3839 0.9217 0.0551
vn -0.9154 -0.3805 0.1314
vn -0.5541 0.8286 0.0796
vn -0.3873 -0.9217 -0.0208
vn -0.2007 -0.9796 -0.0108
vn -0.9796 0.1939 -0.0527
vn -0.9986 -0.0000 -0.0537
vn -0.2007 0.9796 -0.0108
vn -0.9796 -0.1939 -0.0527
vn -0.3873 0.9217 -0.0208
vn -0.9234 -0.3805 -0.0497
vn -0.5590 0.8286 -0.0301
vn -0.8321 -0.5528 -0.0448
vn -0.7091 0.7041 -0.0382
vn -0.7091 -0.7041 -0.0382
vn -0.8321 0.5528 -0.0448
vn -0.5590 -0.8286 -0.0301
vn -0.9234 0.3805 -0.0497
vn -0.6880 0.7041 -0.1758
vn -0.6880 -0.7041 -0.1758
vn -0.8074 0.5528 -0.2063
vn -0.5424 -0.8286 -0.1385
vn -0.8960 0.3805 -0.2289
vn -0.3758 -0.9217 -0.0960
vn -0.9505 0.1939 -0.2428
vn -0.1947 -0.9796 -0.0497
vn -0.9689 -0.0000 -0.2475
vn -0.1947 0.9796 -0.0497
vn -0.9505 -0.1939 -0.2428
vn -0.3758 0.9217 -0.0960
vn -0.8960 -0.3805 -0.2289
vn -0.5424 0.8286 -0.1385
vn -0.8074 -0.5528 -0.2063
vn -0.8849 0.1939 -0.4236
vn -0.9020 -0.0000 -0.4318
vn -0.1813 0.9796 -0.0868
vn -0.1813 -0.9796 -0.0868
vn -0.8849 -0.1939 -0.4236
vn -0.3499 0.9217 -0.1675
vn -0.8341 -0.3805 -0.3993
vn -0.5049 0.8286 -0.2417
vn -0.7517 -0.5528 -0.3598
vn -0.6405 0.7041 -0.3066
vn -0.6405 -0.7041 -0.3066
vn -0.7517 0.5528 -0.3598
vn -0.5049 -0.8286 -0.2417
vn -0.8341 0.3805 -0.3993
vn -0.3499 -0.9217 -0.1675
vn -0.5684 -0.7041 -0.4257
vn -0.6670 0.5528 -0.4995
vn -0.4481 -0.8286 -0.3356
vn -0.7402 0.3805 -0.5543
vn -0.3105 -0.9217 -0.2325
vn -0.7852 0.1939 -0.5881
vn -0.1609 -0.9796 -0.1205
vn -0.8004 -0.0000 -0.5994
vn -0.1609 0.9796 -0.1205
vn -0.7852 -0.1939 -0.5881
vn -0.3105 0.9217 -0.2325
vn -0.7402 -0.3805 -0.5543
vn -0.4481 0.8286 -0.3356
vn -0.6670 -0.5528 -0.4995
vn -0.5684 0.7041 -0.4257
vn -0.1343 -0.9796 -0.1495
vn -0.6554 -0.1939 -0.7300
vn -0.2591 0.9217 -0.2886
vn -0.6178 -0.3805 -0.6881
vn -0.3740 0.8286 -0.4165
vn -0.5567 -0.5528 -0.6201
vn -0.4744 0.7041 -0.5284
vn -0.4744 -0.7041 -0.5284
vn -0.5567 0.5528 -0.6201
vn -0.3740 -0.8286 -0.4165
vn -0.6178 0.3805 -0.6881
vn -0.2591 -0.9217 -0.2886
vn -0.6554 0.1939 -0.7300
vn -0.6681 -0.0000 -0.7441
vn -0.1343 0.9796 -0.1495
vn -0.2855 -0.8286 -0.4815
vn -0.4251 0.5528 -0.7168
vn -0.4717 0.3805 -0.7954
vn -0.1979 -0.9217 -0.3336
vn -0.5004 0.1939 -0.8438
vn -0.1025 -0.9796 -0.1729
vn -0.5101 -0.0000 -0.8601
vn -0.1025 0.9796 -0.1729
vn -0.5004 -0.1939 -0.8438
vn -0.1979 0.9217 -0.3336
vn -0.4717 -0.3805 -0.7954
vn -0.2855 0.8286 -0.4815
vn -0.4251 -0.5528 -0.7168
vn -0.3622 0.7041 -0.6108
vn -0.3622 -0.7041 -0.6108
vn -0.1290 0.9217 -0.3658
vn -0.3075 -0.3805 -0.8722
vn -0.1861 0.8286 -0.5279
vn -0.2771 -0.5528 -0.7859
vn -0.2361 0.7041 -0.6697
vn -0.2361 -0.7041 -0.6697
vn -0.2771 0.5528 -0.7859
vn -0.1861 -0.8286 -0.5279
vn -0.3075 0.3805 -0.8722
vn -0.1290 -0.9217 -0.3658
vn -0.3262 0.1939 -0.9252
vn -0.0668 -0.9796 -0.1895
vn -0.3325 -0.0000 -0.9431
vn -0.0668 0.9796 -0.1895
vn -0.3262 -0.1939 -0.9252
vn -0.1184 0.5528 -0.8249
vn -0.1314 0.3805 -0.9154
vn -0.0796 -0.8286 -0.5541
vn -0.0551 -0.9217 -0.3840
vn -0.1394 0.1939 -0.9711
vn -0.0286 -0.9796 -0.1989
vn -0.1421 -0.0000 -0.9899
vn -0.0286 0.9796 -0.1989
vn -0.1394 -0.1939 -0.9711
vn -0.0551 0.9217 -0.3840
vn -0.1314 -0.3805 -0.9154
vn -0.0796 0.8286 -0.5541
vn -0.1184 -0.5528 -0.8249
vn -0.1009 0.7041 -0.7029
vn -0.1009 -0.7041 -0.7029
vn 0.0527 -0.1939 -0.9796
vn 0.0497 -0.3805 -0.9234
vn 0.0301 0.8286 -0.5590
vn 0.0448 -0.5528 -0.8321
vn 0.0382 0.7041 -0.7091
vn 0.0382 -0.7041 -0.7091
vn 0.0448 0.5528 -0.8321
vn 0.0301 -0.8286 -0.5590
vn 0.0497 0.3805 -0.9234
vn 0.0208 -0.9217 -0.3873
vn 0.0527 0.1939 -0.9796
vn 0.0108 -0.9796 -0.2007
vn 0.0537 -0.0000 -0.9986
vn 0.0108 0.9796 -0.2007
vn 0.0208 0.9217 -0.3873
vn 0.0960 -0.9217 -0.3758
vn 0.2289 0.3805 -0.8960
vn 0.2428 0.1939 -0.9505
vn 0.0497 -0.9796 -0.1947
vn 0.2475 -0.0000 -0.9689
vn 0.0497 0.9796 -0.1947
vn 0.2428 -0.1939 -0.9505
vn 0.0960 0.9217 -0.3758
vn 0.2289 -0.3805 -0.8960
vn 0.1385 0.8286 -0.5424
vn 0.2063 -0.5528 -0.8074
vn 0.1758 0.7041 -0.6880
vn 0.1758 -0.7041 -0.6880
vn 0.2063 0.5528 -0.8074
vn 0.1385 -0.8286 -0.5424
vn 0.1675 0.9217 -0.3499
vn 0.2417 0.8286 -0.5049
vn 0.3598 -0.5528 -0.7517
vn 0.3066 0.7041 -0.6405
vn 0.3066 -0.7041 -0.6405
vn 0.3598 0.5528 -0.7517
vn 0.2417 -0.8286 -0.5049
vn 0.3993 0.3805 -0.8341
vn 0.1675 -0.9217 -0.3499
vn 0.4236 0.1939 -0.8849
vn 0.0868 -0.9796 -0.1813
vn 0.4318 -0.0000 -0.9020
vn 0.0868 0.9796 -0.1813
vn 0.4236 -0.1939 -0.8849
vn 0.3993 -0.3805 -0.8341
vn 0.5881 0.1939 -0.7852
vn 0.1205 -0.9796 -0.1609
vn 0.5994 -0.0000 -0.8004
vn 0.1205 0.9796 -0.1609
vn 0.5881 -0.1939 -0.7852
vn 0.2325 0.9217 -0.3105
vn 0.5543 -0.3805 -0.7402
vn 0.3356 0.8286 -0.4481
vn 0.4995 -0.5528 -0.6670
vn 0.4257 0.7041 -0.5684
vn 0.4257 -0.7041 -0.5684
vn 0.4995 0.5528 -0.6670
vn 0.3356 -0.8286 -0.4481
vn 0.5543 0.3805 -0.7402
vn 0.2325 -0.9217 -0.3105
vn 0.6881 -0.3805 -0.6178
vn 0.6201 -0.5528 -0.5567
vn 0.5284 0.7041 -0.4744
vn 0.5284 -0.7041 -0.4744
vn 0.6201 0.5528 -0.5567
vn 0.4165 -0.8286 -0.3740
vn 0.6881 0.3805 -0.6178
vn 0.2886 -0.9217 -0.2591
vn 0.7300 0.1939 -0.6554
vn 0.1495 -0.9796 -0.1343
vn 0.7441 -0.0000 -0.6681
vn 0.1495 0.9796 -0.1343
vn 0.7300 -0.1939 -0.6554
vn 0.2886 0.9217 -0.2591
vn 0.4165 0.8286 -0.3740
vn 0.1729 -0.9796 -0.1025
vn 0.8438 0.1939 -0.5004
vn 0.8601 -0.0000 -0.5101
vn 0.1729 0.9796 -0.1025
vn 0.8438 -0.1939 -0.5004
vn 0.3336 0.9217 -0.1979
vn 0.7954 -0.3805 -0.4717
vn 0.4815 0.8286 -0.2855
vn 0.7168 -0.5528 -0.4251
vn 0.6108 0.7041 -0.3622
vn 0.6108 -0.7041 -0.3622
vn 0.7168 0.5528 -0.4251
vn 0.4815 -0.8286 -0.2855
vn 0.7954 0.3805 -0.4717
vn 0.3336 -0.9217 -0.1979
vn 0.6697 -0.7041 -0.2361
vn 0.6697 0.7041 -0.2361
vn 0.7859 0.5528 -0.2771
vn 0.5279 -0.8286 -0.1861
vn 0.8722 0.3805 -0.3075
vn 0.3658 -0.9217 -0.1290
vn 0.9252 0.1939 -0.3262
vn 0.1895 -0.9796 -0.0668
vn 0.9431 -0.0000 -0.3325
vn 0.1895 0.9796 -0.0668
vn 0.9252 -0.1939 -0.3262
vn 0.3658 0.9217 -0.1290
vn 0.8722 -0.3805 -0.3075
vn 0.5279 0.8286 -0.1861
vn 0.7859 -0.5528 -0.2771
vn 0.1989 0.9796 -0.0286
vn 0.1989 -0.9796 -0.0286
vn 0.9711 -0.1939 -0.1394
vn 0.3839 0.9217 -0.0551
vn 0.9154 -0.3805 -0.1314
vn 0.5541 0.8286 -0.0796
vn 0.8249 -0.5528 -0.1184
vn 0.7029 0.7041 -0.1009
vn 0.7029 -0.7041 -0.1009
vn 0.8249 0.5528 -0.1184
vn 0.5541 -0.8286 -0.0796
vn 0.9154 0.3805 -0.1314
vn 0.3839 -0.9217 -0.0551
vn 0.9711 0.1939 -0.1394
vn 0.9899 -0.0000 -0.1421
vt 0.750000 0.312500
vt 0.718750 0.250000
vt 0.750000 0.250000
vt 0.750000 0.750000
vt 0.718750 0.687500
vt 0.750000 0.687500
vt 0.718750 0.187500
vt 0.750000 0.187500
vt 0.750000 0.625000
vt 0.718750 0.625000
vt 0.718750 0.125000
vt 0.750000 0.125000
vt 0.718750 0.562500
vt 0.750000 0.562500
vt 0.718750 0.062500
vt 0.750000 0.062500
vt 0.750000 0.500000
vt 0.718750 0.500000
vt 0.750000 0.937500
vt 0.734375 1.000000
vt 0.718750 0.937500
vt 0.734375 0.000000
vt 0.718750 0.437500
vt 0.750000 0.437500
vt 0.718750 0.875000
vt 0.750000 0.875000
vt 0.718750 0.375000
vt 0.750000 0.375000
vt 0.750000 0.812500
vt 0.718750 0.812500
vt 0.718750 0.312500
vt 0.718750 0.750000
vt 0.687500 0.312500
vt 0.687500 0.750000
vt 0.687500 0.250000
vt 0.687500 0.687500
vt 0.687500 0.187500
vt 0.687500 0.625000
vt 0.687500 0.125000
vt 0.687500 0.562500
vt 0.687500 0.062500
vt 0.687500 0.500000
vt 0.703125 1.000000
vt 0.687500 0.937500
vt 0.703125 0.000000
vt 0.687500 0.437500
vt 0.687500 0.875000
vt 0.687500 0.375000
vt 0.687500 0.812500
vt 0.656250 0.062500
vt 0.656250 0.500000
vt 0.671875 1.000000
vt 0.656250 0.937500
vt 0.671875 0.000000
vt 0.656250 0.437500
vt 0.656250 0.875000
vt 0.656250 0.375000
vt 0.656250 0.812500
vt 0.656250 0.312500
vt 0.656250 0.750000
vt 0.656250 0.250000
vt 0.656250 0.687500
vt 0.656250 0.187500
vt 0.656250 0.625000
vt 0.656250 0.125000
vt 0.656250 0.562500
vt 0.625000 0.750000
vt 0.625000 0.312500
vt 0.625000 0.250000
vt 0.625000 0.687500
vt 0.625000 0.187500
vt 0.625000 0.625000
vt 0.625000 0.125000
vt 0.625000 0.562500
vt 0.625000 0.062500
vt 0.625000 0.500000
vt 0.640625 1.000000
vt 0.625000 0.937500
vt 0.640625 0.000000
vt 0.625000 0.437500
vt 0.625000 0.875000
vt 0.625000 0.375000
vt 0.625000 0.812500
vt 0.593750 0.562500
vt 0.593750 0.500000
vt 0.609375 1.000000
vt 0.593750 0.937500
vt 0.609375 0.000000
vt 0.593750 0.062500
vt 0.593750 0.437500
vt 0.593750 0.875000
vt 0.593750 0.375000
vt 0.593750 0.812500
vt 0.593750 0.312500
vt 0.593750 0.750000
vt 0.593750 0.250000
vt 0.593750 0.687500
vt 0.593750 0.187500
vt 0.593750 0.625000
vt 0.593750 0.125000
vt 0.562500 0.250000
vt 0.562500 0.687500
vt 0.562500 0.187500
vt 0.562500 0.625000
vt 0.562500 0.125000
vt 0.562500 0.562500
vt 0.562500 0.062500
vt 0.562500 0.500000
vt 0.578125 1.000000
vt 0.562500 0.937500
vt 0.578125 0.000000
vt 0.562500 0.437500
vt 0.562500 0.875000
vt 0.562500 0.375000
vt 0.562500 0.812500
vt 0.562500 0.312500
vt 0.562500 0.750000
vt 0.546875 1.000000
vt 0.531250 0.937500
vt 0.546875 0.000000
vt 0.531250 0.062500
vt 0.531250 0.437500
vt 0.531250 0.875000
vt 0.531250 0.375000
vt 0.531250 0.812500
vt 0.531250 0.312500
vt 0.531250 0.750000
vt 0.531250 0.250000
vt 0.531250 0.687500
vt 0.531250 0.187500
vt 0.531250 0.625000
vt 0.531250 0.125000
vt 0.531250 0.562500
vt 0.531250 0.500000
vt 0.500000 0.750000
vt 0.500000 0.687500
vt 0.500000 0.250000
vt 0.500000 0.187500
vt 0.500000 0.625000
vt 0.500000 0.125000
vt 0.500000 0.562500
vt 0.500000 0.062500
vt 0.500000 0.500000
vt 0.515625 1.000000
vt 0.500000 0.937500
vt 0.515625 0.000000
vt 0.500000 0.437500
vt 0.500000 0.875000
vt 0.500000 0.375000
vt 0.500000 0.812500
vt 0.500000 0.312500
vt 0.468750 0.437500
vt 0.468750 0.875000
vt 0.468750 0.375000
vt 0.468750 0.812500
vt 0.468750 0.312500
vt 0.468750 0.750000
vt 0.468750 0.250000
vt 0.468750 0.687500
vt 0.468750 0.187500
vt 0.468750 0.625000
vt 0.468750 0.125000
vt 0.468750 0.562500
vt 0.468750 0.062500
vt 0.468750 0.500000
vt 0.484375 1.000000
vt 0.468750 0.937500
vt 0.484375 0.000000
vt 0.437500 0.187500
vt 0.437500 0.625000
vt 0.437500 0.125000
vt 0.437500 0.562500
vt 0.437500 0.062500
vt 0.437500 0.500000
vt 0.453125 1.000000
vt 0.437500 0.937500
vt 0.453125 0.000000
vt 0.437500 0.437500
vt 0.437500 0.875000
vt 0.437500 0.375000
vt 0.437500 0.812500
vt 0.437500 0.312500
vt 0.437500 0.750000
vt 0.437500 0.250000
vt 0.437500 0.687500
vt 0.406250 0.375000
vt 0.406250 0.875000
vt 0.406250 0.812500
vt 0.406250 0.312500
vt 0.406250 0.750000
vt 0.406250 0.250000
vt 0.406250 0.687500
vt 0.406250 0.187500
vt 0.406250 0.625000
vt 0.406250 0.125000
vt 0.406250 0.562500
vt 0.406250 0.062500
vt 0.406250 0.500000
vt 0.421875 1.000000
vt 0.406250 0.937500
vt 0.421875 0.000000
vt 0.406250 0.437500
vt 0.375000 0.125000
vt 0.375000 0.562500
vt 0.375000 0.062500
vt 0.375000 0.500000
vt 0.390625 1.000000
vt 0.375000 0.937500
vt 0.390625 0.000000
vt 0.375000 0.437500
vt 0.375000 0.875000
vt 0.375000 0.375000
vt 0.375000 0.812500
vt 0.375000 0.312500
vt 0.375000 0.750000
vt 0.375000 0.250000
vt 0.375000 0.687500
vt 0.375000 0.187500
vt 0.375000 0.625000
vt 0.343750 0.812500
vt 0.343750 0.312500
vt 0.343750 0.750000
vt 0.343750 0.250000
vt 0.343750 0.687500
vt 0.343750 0.187500
vt 0.343750 0.625000
vt 0.343750 0.125000
vt 0.343750 0.562500
vt 0.343750 0.062500
vt 0.343750 0.500000
vt 0.359375 1.000000
vt 0.343750 0.937500
vt 0.359375 0.000000
vt 0.343750 0.437500
vt 0.343750 0.875000
vt 0.343750 0.375000
vt 0.312500 0.562500
vt 0.312500 0.125000
vt 0.312500 0.062500
vt 0.312500 0.500000
vt 0.328125 1.000000
vt 0.312500 0.937500
vt 0.328125 0.000000
vt 0.312500 0.437500
vt 0.312500 0.875000
vt 0.312500 0.375000
vt 0.312500 0.812500
vt 0.312500 0.312500
vt 0.312500 0.750000
vt 0.312500 0.250000
vt 0.312500 0.687500
vt 0.312500 0.187500
vt 0.312500 0.625000
vt 0.281250 0.312500
vt 0.281250 0.750000
vt 0.281250 0.250000
vt 0.281250 0.687500
vt 0.281250 0.187500
vt 0.281250 0.625000
vt 0.281250 0.125000
vt 0.281250 0.562500
vt 0.281250 0.062500
vt 0.281250 0.500000
vt 0.296875 1.000000
vt 0.281250 0.937500
vt 0.296875 0.000000
vt 0.281250 0.437500
vt 0.281250 0.875000
vt 0.281250 0.375000
vt 0.281250 0.812500
vt 0.250000 0.125000
vt 0.250000 0.062500
vt 0.250000 0.562500
vt 0.250000 0.500000
vt 0.265625 1.000000
vt 0.250000 0.937500
vt 0.265625 0.000000
vt 0.250000 0.437500
vt 0.250000 0.875000
vt 0.250000 0.375000
vt 0.250000 0.812500
vt 0.250000 0.312500
vt 0.250000 0.750000
vt 0.250000 0.250000
vt 0.250000 0.687500
vt 0.250000 0.187500
vt 0.250000 0.625000
vt 0.218750 0.750000
vt 0.218750 0.250000
vt 0.218750 0.687500
vt 0.218750 0.187500
vt 0.218750 0.625000
vt 0.218750 0.125000
vt 0.218750 0.562500
vt 0.218750 0.062500
vt 0.218750 0.500000
vt 0.234375 1.000000
vt 0.218750 0.937500
vt 0.234375 0.000000
vt 0.218750 0.437500
vt 0.218750 0.875000
vt 0.218750 0.375000
vt 0.218750 0.812500
vt 0.218750 0.312500
vt 0.187500 0.562500
vt 0.187500 0.500000
vt 0.203125 1.000000
vt 0.187500 0.937500
vt 0.203125 0.000000
vt 0.187500 0.062500
vt 0.187500 0.437500
vt 0.187500 0.875000
vt 0.187500 0.375000
vt 0.187500 0.812500
vt 0.187500 0.312500
vt 0.187500 0.750000
vt 0.187500 0.250000
vt 0.187500 0.687500
vt 0.187500 0.187500
vt 0.187500 0.625000
vt 0.187500 0.125000
vt 0.156250 0.250000
vt 0.156250 0.687500
vt 0.156250 0.187500
vt 0.156250 0.625000
vt 0.156250 0.125000
vt 0.156250 0.562500
vt 0.156250 0.062500
vt 0.156250 0.500000
vt 0.171875 1.000000
vt 0.156250 0.937500
vt 0.171875 0.000000
vt 0.156250 0.437500
vt 0.156250 0.875000
vt 0.156250 0.375000
vt 0.156250 0.812500
vt 0.156250 0.312500
vt 0.156250 0.750000
vt 0.140625 0.000000
vt 0.125000 0.062500
vt 0.125000 0.437500
vt 0.125000 0.875000
vt 0.125000 0.375000
vt 0.125000 0.812500
vt 0.125000 0.312500
vt 0.125000 0.750000
vt 0.125000 0.250000
vt 0.125000 0.687500
vt 0.125000 0.187500
vt 0.125000 0.625000
vt 0.125000 0.125000
vt 0.125000 0.562500
vt 0.125000 0.500000
vt 0.140625 1.000000
vt 0.125000 0.937500
vt 0.093750 0.187500
vt 0.093750 0.687500
vt 0.093750 0.625000
vt 0.093750 0.125000
vt 0.093750 0.562500
vt 0.093750 0.062500
vt 0.093750 0.500000
vt 0.109375 1.000000
vt 0.093750 0.937500
vt 0.109375 0.000000
vt 0.093750 0.437500
vt 0.093750 0.875000
vt 0.093750 0.375000
vt 0.093750 0.812500
vt 0.093750 0.312500
vt 0.093750 0.750000
vt 0.093750 0.250000
vt 0.062500 0.875000
vt 0.062500 0.375000
vt 0.062500 0.812500
vt 0.062500 0.312500
vt 0.062500 0.750000
vt 0.062500 0.250000
vt 0.062500 0.687500
vt 0.062500 0.187500
vt 0.062500 0.625000
vt 0.062500 0.125000
vt 0.062500 0.562500
vt 0.062500 0.062500
vt 0.062500 0.500000
vt 0.078125 1.000000
vt 0.062500 0.937500
vt 0.078125 0.000000
vt 0.062500 0.437500
vt 0.031250 0.687500
vt 0.031250 0.625000
vt 0.031250 0.187500
vt 0.031250 0.125000
vt 0.031250 0.562500
vt 0.031250 0.062500
vt 0.031250 0.500000
vt 0.046875 1.000000
vt 0.031250 0.937500
vt 0.046875 0.000000
vt 0.031250 0.437500
vt 0.031250 0.875000
vt 0.031250 0.375000
vt 0.031250 0.812500
vt 0.031250 0.312500
vt 0.031250 0.750000
vt 0.031250 0.250000
vt 0.000000 0.437500
vt 0.000000 0.375000
vt 0.000000 0.812500
vt 0.000000 0.312500
vt 0.000000 0.750000
vt 0.000000 0.250000
vt 0.000000 0.687500
vt 0.000000 0.187500
vt 0.000000 0.625000
vt 0.000000 0.125000
vt 0.000000 0.562500
vt 0.000000 0.062500
vt 0.000000 0.500000
vt 0.015625 1.000000
vt 0.000000 0.937500
vt 0.015625 0.000000
vt 0.000000 0.875000
vt 1.000000 0.187500
vt 0.968750 0.125000
vt 1.000000 0.125000
vt 1.000000 0.562500
vt 0.968750 0.625000
vt 0.968750 0.562500
vt 0.968750 0.062500
vt 1.000000 0.062500
vt 1.000000 0.500000
vt 0.968750 0.500000
vt 1.000000 0.937500
vt 0.984375 1.000000
vt 0.968750 0.937500
vt 0.984375 0.000000
vt 0.968750 0.437500
vt 1.000000 0.437500
vt 0.968750 0.875000
vt 1.000000 0.875000
vt 1.000000 0.375000
vt 0.968750 0.375000
vt 0.968750 0.812500
vt 1.000000 0.812500
vt 0.968750 0.312500
vt 1.000000 0.312500
vt 0.968750 0.750000
vt 1.000000 0.750000
vt 1.000000 0.250000
vt 0.968750 0.250000
vt 0.968750 0.687500
vt 1.000000 0.687500
vt 0.968750 0.187500
vt 1.000000 0.625000
vt 0.937500 0.875000
vt 0.937500 0.812500
vt 0.937500 0.312500
vt 0.937500 0.750000
vt 0.937500 0.250000
vt 0.937500 0.687500
vt 0.937500 0.187500
vt 0.937500 0.625000
vt 0.937500 0.125000
vt 0.937500 0.562500
vt 0.937500 0.062500
vt 0.937500 0.500000
vt 0.953125 1.000000
vt 0.937500 0.937500
vt 0.953125 0.000000
vt 0.937500 0.437500
vt 0.937500 0.375000
vt 0.906250 0.562500
vt 0.906250 0.062500
vt 0.906250 0.500000
vt 0.921875 1.000000
vt 0.906250 0.937500
vt 0.921875 0.000000
vt 0.906250 0.437500
vt 0.906250 0.875000
vt 0.906250 0.375000
vt 0.906250 0.812500
vt 0.906250 0.312500
vt 0.906250 0.750000
vt 0.906250 0.250000
vt 0.906250 0.687500
vt 0.906250 0.187500
vt 0.906250 0.625000
vt 0.906250 0.125000
vt 0.875000 0.375000
vt 0.875000 0.312500
vt 0.875000 0.750000
vt 0.875000 0.250000
vt 0.875000 0.687500
vt 0.875000 0.187500
vt 0.875000 0.625000
vt 0.875000 0.125000
vt 0.875000 0.562500
vt 0.875000 0.062500
vt 0.875000 0.500000
vt 0.890625 1.000000
vt 0.875000 0.937500
vt 0.890625 0.000000
vt 0.875000 0.437500
vt 0.875000 0.875000
vt 0.875000 0.812500
vt 0.843750 0.062500
vt 0.843750 0.562500
vt 0.843750 0.500000
vt 0.859375 1.000000
vt 0.843750 0.937500
vt 0.859375 0.000000
vt 0.843750 0.437500
vt 0.843750 0.875000
vt 0.843750 0.375000
vt 0.843750 0.812500
vt 0.843750 0.312500
vt 0.843750 0.750000
vt 0.843750 0.250000
vt 0.843750 0.687500
vt 0.843750 0.187500
vt 0.843750 0.625000
vt 0.843750 0.125000
vt 0.812500 0.250000
vt 0.812500 0.750000
vt 0.812500 0.687500
vt 0.812500 0.187500
vt 0.812500 0.625000
vt 0.812500 0.125000
vt 0.812500 0.562500
vt 0.812500 0.062500
vt 0.812500 0.500000
vt 0.828125 1.000000
vt 0.812500 0.937500
vt 0.828125 0.000000
vt 0.812500 0.437500
vt 0.812500 0.875000
vt 0.812500 0.375000
vt 0.812500 0.812500
vt 0.812500 0.312500
vt 0.796875 1.000000
vt 0.781250 0.937500
vt 0.796875 0.000000
vt 0.781250 0.062500
vt 0.781250 0.437500
vt 0.781250 0.875000
vt 0.781250 0.375000
vt 0.781250 0.812500
vt 0.781250 0.312500
vt 0.781250 0.750000
vt 0.781250 0.250000
vt 0.781250 0.687500
vt 0.781250 0.187500
vt 0.781250 0.625000
vt 0.781250 0.125000
vt 0.781250 0.562500
vt 0.781250 0.500000
vt 0.765625 1.000000
vt 0.765625 0.000000
s 1
usemtl sun
f 8/1/1 22/2/2 9/3/3
f 4/4/4 15/5/5 5/6/6
f 9/3/3 23/7/7 10/8/8
f 6/9/9 15/5/5 16/10/10
f 10/8/8 24/11/11 480/12/12
f 6/9/9 17/13/13 7/14/14
f 480/12/12 25/15/15 481/16/16
f 477/17/17 17/13/13 18/18/18
f 1/19/19 326/20/20 11/21/21
f 482/22/22 481/16/16 25/15/15
f 477/17/17 19/23/23 478/24/24
f 1/19/19 12/25/25 2/26/26
f 478/24/24 20/27/27 479/28/28
f 3/29/29 12/25/25 13/30/30
f 479/28/28 21/31/31 8/1/1
f 4/4/4 13/30/30 14/32/32
f 20/27/27 36/33/33 21/31/31
f 13/30/30 29/34/34 14/32/32
f 21/31/31 37/35/35 22/2/2
f 14/32/32 30/36/36 15/5/5
f 22/2/2 38/37/37 23/7/7
f 16/10/10 30/36/36 31/38/38
f 23/7/7 39/39/39 24/11/11
f 16/10/10 32/40/40 17/13/13
f 24/11/11 40/41/41 25/15/15
f 17/13/13 33/42/42 18/18/18
f 11/21/21 326/43/20 26/44/43
f 482/45/22 25/15/15 40/41/41
f 18/18/18 34/46/44 19/23/23
f 12/25/25 26/44/43 27/47/45
f 20/27/27 34/46/44 35/48/46
f 12/25/25 28/49/47 13/30/30
f 39/39/39 55/50/48 40/41/41
f 32/40/40 48/51/49 33/42/42
f 26/44/43 326/52/20 41/53/50
f 482/54/22 40/41/41 55/50/48
f 33/42/42 49/55/51 34/46/44
f 26/44/43 42/56/52 27/47/45
f 35/48/46 49/55/51 50/57/53
f 28/49/47 42/56/52 43/58/54
f 35/48/46 51/59/55 36/33/33
f 29/34/34 43/58/54 44/60/56
f 37/35/35 51/59/55 52/61/57
f 29/34/34 45/62/58 30/36/36
f 38/37/37 52/61/57 53/63/59
f 30/36/36 46/64/60 31/38/38
f 38/37/37 54/65/61 39/39/39
f 31/38/38 47/66/62 32/40/40
f 43/58/54 59/67/63 44/60/56
f 52/61/57 66/68/64 67/69/65
f 44/60/56 60/70/66 45/62/58
f 53/63/59 67/69/65 68/71/67
f 45/62/58 61/72/68 46/64/60
f 54/65/61 68/71/67 69/73/69
f 47/66/62 61/72/68 62/74/70
f 55/50/48 69/73/69 70/75/71
f 47/66/62 63/76/72 48/51/49
f 41/53/50 326/77/20 56/78/73
f 482/79/22 55/50/48 70/75/71
f 48/51/49 64/80/74 49/55/51
f 42/56/52 56/78/73 57/81/75
f 50/57/53 64/80/74 65/82/76
f 42/56/52 58/83/77 43/58/54
f 50/57/53 66/68/64 51/59/55
f 63/76/72 77/84/78 78/85/79
f 56/78/73 326/86/20 71/87/80
f 482/88/22 70/75/71 85/89/81
f 63/76/72 79/90/82 64/80/74
f 57/81/75 71/87/80 72/91/83
f 65/82/76 79/90/82 80/92/84
f 58/83/77 72/91/83 73/93/85
f 65/82/76 81/94/86 66/68/64
f 59/67/63 73/93/85 74/95/87
f 66/68/64 82/96/88 67/69/65
f 60/70/66 74/95/87 75/97/89
f 67/69/65 83/98/90 68/71/67
f 60/70/66 76/99/91 61/72/68
f 68/71/67 84/100/92 69/73/69
f 61/72/68 77/84/78 62/74/70
f 69/73/69 85/89/81 70/75/71
f 81/94/86 97/101/93 82/96/88
f 74/95/87 90/102/94 75/97/89
f 83/98/90 97/101/93 98/103/95
f 75/97/89 91/104/96 76/99/91
f 84/100/92 98/103/95 99/105/97
f 77/84/78 91/104/96 92/106/98
f 85/89/81 99/105/97 100/107/99
f 78/85/79 92/106/98 93/108/100
f 71/87/80 326/109/20 86/110/101
f 482/111/22 85/89/81 100/107/99
f 78/85/79 94/112/102 79/90/82
f 72/91/83 86/110/101 87/113/103
f 80/92/84 94/112/102 95/114/104
f 72/91/83 88/115/105 73/93/85
f 81/94/86 95/114/104 96/116/106
f 73/93/85 89/117/107 74/95/87
f 86/110/101 326/118/20 101/119/108
f 482/120/22 100/107/99 115/121/109
f 93/108/100 109/122/110 94/112/102
f 86/110/101 102/123/111 87/113/103
f 94/112/102 110/124/112 95/114/104
f 87/113/103 103/125/113 88/115/105
f 95/114/104 111/126/114 96/116/106
f 88/115/105 104/127/115 89/117/107
f 96/116/106 112/128/116 97/101/93
f 89/117/107 105/129/117 90/102/94
f 98/103/95 112/128/116 113/130/118
f 90/102/94 106/131/119 91/104/96
f 98/103/95 114/132/120 99/105/97
f 91/104/96 107/133/121 92/106/98
f 100/107/99 114/132/120 115/121/109
f 93/108/100 107/133/121 108/134/122
f 105/129/117 119/135/123 120/136/124
f 113/130/118 127/137/125 128/138/126
f 105/129/117 121/139/127 106/131/119
f 113/130/118 129/140/128 114/132/120
f 107/133/121 121/139/127 122/141/129
f 114/132/120 130/142/130 115/121/109
f 108/134/122 122/141/129 123/143/131
f 101/119/108 326/144/20 116/145/132
f 482/146/22 115/121/109 130/142/130
f 108/134/122 124/147/133 109/122/110
f 101/119/108 117/148/134 102/123/111
f 109/122/110 125/149/135 110/124/112
f 103/125/113 117/148/134 118/150/136
f 110/124/112 126/151/137 111/126/114
f 103/125/113 119/135/123 104/127/115
f 111/126/114 127/137/125 112/128/116
f 123/143/131 139/152/138 124/147/133
f 116/145/132 132/153/139 117/148/134
f 125/149/135 139/152/138 140/154/140
f 117/148/134 133/155/141 118/150/136
f 126/151/137 140/154/140 141/156/142
f 118/150/136 134/157/143 119/135/123
f 126/151/137 142/158/144 127/137/125
f 119/135/123 135/159/145 120/136/124
f 127/137/125 143/160/146 128/138/126
f 121/139/127 135/159/145 136/161/147
f 129/140/128 143/160/146 144/162/148
f 122/141/129 136/161/147 137/163/149
f 130/142/130 144/162/148 145/164/150
f 123/143/131 137/163/149 138/165/151
f 116/145/132 326/166/20 131/167/152
f 482/168/22 130/142/130 145/164/150
f 142/158/144 158/169/153 143/160/146
f 135/159/145 151/170/154 136/161/147
f 143/160/146 159/171/155 144/162/148
f 137/163/149 151/170/154 152/172/156
f 144/162/148 160/173/157 145/164/150
f 138/165/151 152/172/156 153/174/158
f 131/167/152 326/175/20 146/176/159
f 482/177/22 145/164/150 160/173/157
f 138/165/151 154/178/160 139/152/138
f 131/167/152 147/179/161 132/153/139
f 140/154/140 154/178/160 155/180/162
f 132/153/139 148/181/163 133/155/141
f 141/156/142 155/180/162 156/182/164
f 133/155/141 149/183/165 134/157/143
f 141/156/142 157/184/166 142/158/144
f 135/159/145 149/183/165 150/185/167
f 154/178/160 170/186/168 155/180/162
f 148/181/163 162/187/169 163/188/170
f 155/180/162 171/189/171 156/182/164
f 148/181/163 164/190/172 149/183/165
f 156/182/164 172/191/173 157/184/166
f 149/183/165 165/192/174 150/185/167
f 158/169/153 172/191/173 173/193/175
f 150/185/167 166/194/176 151/170/154
f 159/171/155 173/193/175 174/195/177
f 152/172/156 166/194/176 167/196/178
f 160/173/157 174/195/177 175/197/179
f 153/174/158 167/196/178 168/198/180
f 146/176/159 326/199/20 161/200/181
f 482/201/22 160/173/157 175/197/179
f 153/174/158 169/202/182 154/178/160
f 147/179/161 161/200/181 162/187/169
f 173/193/175 189/203/183 174/195/177
f 166/194/176 182/204/184 167/196/178
f 175/197/179 189/203/183 190/205/185
f 168/198/180 182/204/184 183/206/186
f 161/200/181 326/207/20 176/208/187
f 482/209/22 175/197/179 190/205/185
f 168/198/180 184/210/188 169/202/182
f 161/200/181 177/211/189 162/187/169
f 169/202/182 185/212/190 170/186/168
f 163/188/170 177/211/189 178/213/191
f 171/189/171 185/212/190 186/214/192
f 164/190/172 178/213/191 179/215/193
f 171/189/171 187/216/194 172/191/173
f 164/190/172 180/217/195 165/192/174
f 172/191/173 188/218/196 173/193/175
f 166/194/176 180/217/195 181/219/197
f 177/211/189 193/220/198 178/213/191
f 185/212/190 201/221/199 186/214/192
f 178/213/191 194/222/200 179/215/193
f 187/216/194 201/221/199 202/223/201
f 179/215/193 195/224/202 180/217/195
f 188/218/196 202/223/201 203/225/203
f 181/219/197 195/224/202 196/226/204
f 189/203/183 203/225/203 204/227/205
f 181/219/197 197/228/206 182/204/184
f 189/203/183 205/229/207 190/205/185
f 183/206/186 197/228/206 198/230/208
f 176/208/187 326/231/20 191/232/209
f 482/233/22 190/205/185 205/229/207
f 183/206/186 199/234/210 184/210/188
f 176/208/187 192/235/211 177/211/189
f 184/210/188 200/236/212 185/212/190
f 196/226/204 212/237/213 197/228/206
f 205/229/207 219/238/214 220/239/215
f 198/230/208 212/237/213 213/240/216
f 191/232/209 326/241/20 206/242/217
f 482/243/22 205/229/207 220/239/215
f 198/230/208 214/244/218 199/234/210
f 192/235/211 206/242/217 207/245/219
f 199/234/210 215/246/220 200/236/212
f 192/235/211 208/247/221 193/220/198
f 200/236/212 216/248/222 201/221/199
f 193/220/198 209/249/223 194/222/200
f 201/221/199 217/250/224 202/223/201
f 195/224/202 209/249/223 210/251/225
f 202/223/201 218/252/226 203/225/203
f 196/226/204 210/251/225 211/253/227
f 204/227/205 218/252/226 219/238/214
f 215/246/220 231/254/228 216/248/222
f 208/247/221 224/255/229 209/249/223
f 216/248/222 232/256/230 217/250/224
f 209/249/223 225/257/231 210/251/225
f 218/252/226 232/256/230 233/258/232
f 210/251/225 226/259/233 211/253/227
f 219/238/214 233/258/232 234/260/234
f 211/253/227 227/261/235 212/237/213
f 219/238/214 235/262/236 220/239/215
f 213/240/216 227/261/235 228/263/237
f 206/242/217 326/264/20 221/265/238
f 482/266/22 220/239/215 235/262/236
f 213/240/216 229/267/239 214/244/218
f 206/242/217 222/268/240 207/245/219
f 215/246/220 229/267/239 230/269/241
f 208/247/221 222/268/240 223/270/242
f 235/262/236 249/271/243 250/272/244
f 228/263/237 242/273/245 243/274/246
f 221/265/238 326/275/20 236/276/247
f 482/277/22 235/262/236 250/272/244
f 228/263/237 244/278/248 229/267/239
f 221/265/238 237/279/249 222/268/240
f 229/267/239 245/280/250 230/269/241
f 223/270/242 237/279/249 238/281/251
f 230/269/241 246/282/252 231/254/228
f 223/270/242 239/283/253 224/255/229
f 231/254/228 247/284/254 232/256/230
f 225/257/231 239/283/253 240/285/255
f 233/258/232 247/284/254 248/286/256
f 225/257/231 241/287/257 226/259/233
f 233/258/232 249/271/243 234/260/234
f 227/261/235 241/287/257 242/273/245
f 238/281/251 254/288/258 239/283/253
f 246/282/252 262/289/259 247/284/254
f 240/285/255 254/288/258 255/290/260
f 248/286/256 262/289/259 263/291/261
f 241/287/257 255/290/260 256/292/262
f 249/271/243 263/291/261 264/293/263
f 242/273/245 256/292/262 257/294/264
f 249/271/243 265/295/265 250/272/244
f 243/274/246 257/294/264 258/296/266
f 236/276/247 326/297/20 251/298/267
f 482/299/22 250/272/244 265/295/265
f 243/274/246 259/300/268 244/278/248
f 236/276/247 252/301/269 237/279/249
f 244/278/248 260/302/270 245/280/250
f 237/279/249 253/303/271 238/281/251
f 245/280/250 261/304/272 246/282/252
f 258/296/266 272/305/273 273/306/274
f 251/298/267 326/307/20 266/308/275
f 482/309/22 265/295/265 280/310/276
f 258/296/266 274/311/277 259/300/268
f 252/301/269 266/308/275 267/312/278
f 259/300/268 275/313/279 260/302/270
f 253/303/271 267/312/278 268/314/280
f 260/302/270 276/315/281 261/304/272
f 253/303/271 269/316/282 254/288/258
f 262/289/259 276/315/281 277/317/283
f 254/288/258 270/318/284 255/290/260
f 263/291/261 277/317/283 278/319/285
f 255/290/260 271/320/286 256/292/262
f 263/291/261 279/321/287 264/293/263
f 256/292/262 272/305/273 257/294/264
f 264/293/263 280/310/276 265/295/265
f 276/315/281 292/322/288 277/317/283
f 269/316/282 285/323/289 270/318/284
f 278/319/285 292/322/288 293/324/290
f 271/320/286 285/323/289 286/325/291
f 278/319/285 294/326/292 279/321/287
f 272/305/273 286/325/291 287/327/293
f 279/321/287 295/328/294 280/310/276
f 273/306/274 287/327/293 288/329/295
f 266/308/275 326/330/20 281/331/296
f 482/332/22 280/310/276 295/328/294
f 273/306/274 289/333/297 274/311/277
f 267/312/278 281/331/296 282/334/298
f 274/311/277 290/335/299 275/313/279
f 268/314/280 282/334/298 283/336/300
f 275/313/279 291/337/301 276/315/281
f 269/316/282 283/336/300 284/338/302
f 482/339/22 295/328/294 310/340/303
f 288/329/295 304/341/304 289/333/297
f 281/331/296 297/342/305 282/334/298
f 289/333/297 305/343/306 290/335/299
f 282/334/298 298/344/307 283/336/300
f 290/335/299 306/345/308 291/337/301
f 284/338/302 298/344/307 299/346/309
f 291/337/301 307/347/310 292/322/288
f 284/338/302 300/348/311 285/323/289
f 293/324/290 307/347/310 308/349/312
f 286/325/291 300/348/311 301/350/313
f 294/326/292 308/349/312 309/351/314
f 287/327/293 301/350/313 302/352/315
f 295/328/294 309/351/314 310/340/303
f 288/329/295 302/352/315 303/353/316
f 281/331/296 326/354/20 296/355/317
f 307/347/310 323/356/318 308/349/312
f 301/350/313 315/357/319 316/358/320
f 308/349/312 324/359/321 309/351/314
f 301/350/313 317/360/322 302/352/315
f 310/340/303 324/359/321 325/361/323
f 303/353/316 317/360/322 318/362/324
f 296/355/317 326/363/20 311/364/325
f 482/365/22 310/340/303 325/361/323
f 303/353/316 319/366/326 304/341/304
f 297/342/305 311/364/325 312/367/327
f 305/343/306 319/366/326 320/368/328
f 298/344/307 312/367/327 313/369/329
f 305/343/306 321/370/330 306/345/308
f 298/344/307 314/371/331 299/346/309
f 306/345/308 322/372/332 307/347/310
f 299/346/309 315/357/319 300/348/311
f 311/364/325 328/373/333 312/367/327
f 319/366/326 336/374/334 320/368/328
f 312/367/327 329/375/335 313/369/329
f 320/368/328 337/376/336 321/370/330
f 313/369/329 330/377/337 314/371/331
f 322/372/332 337/376/336 338/378/338
f 314/371/331 331/379/339 315/357/319
f 323/356/318 338/378/338 339/380/340
f 316/358/320 331/379/339 332/381/341
f 323/356/318 340/382/342 324/359/321
f 317/360/322 332/381/341 333/383/343
f 324/359/321 341/384/344 325/361/323
f 318/362/324 333/383/343 334/385/345
f 311/364/325 326/386/20 327/387/346
f 482/388/22 325/361/323 341/384/344
f 318/362/324 335/389/347 319/366/326
f 332/381/341 346/390/348 347/391/349
f 340/382/342 354/392/350 355/393/351
f 332/381/341 348/394/352 333/383/343
f 341/384/344 355/393/351 356/395/353
f 334/385/345 348/394/352 349/396/354
f 327/387/346 326/397/20 342/398/355
f 482/399/22 341/384/344 356/395/353
f 334/385/345 350/400/356 335/389/347
f 327/387/346 343/401/357 328/373/333
f 335/389/347 351/402/358 336/374/334
f 329/375/335 343/401/357 344/403/359
f 336/374/334 352/404/360 337/376/336
f 330/377/337 344/403/359 345/405/361
f 337/376/336 353/406/362 338/378/338
f 331/379/339 345/405/361 346/390/348
f 338/378/338 354/392/350 339/380/340
f 351/402/358 365/407/363 366/408/364
f 343/401/357 359/409/365 344/403/359
f 351/402/358 367/410/366 352/404/360
f 345/405/361 359/409/365 360/411/367
f 352/404/360 368/412/368 353/406/362
f 345/405/361 361/413/369 346/390/348
f 354/392/350 368/412/368 369/414/370
f 346/390/348 362/415/371 347/391/349
f 354/392/350 370/416/372 355/393/351
f 348/394/352 362/415/371 363/417/373
f 355/393/351 371/418/374 356/395/353
f 349/396/354 363/417/373 364/419/375
f 342/398/355 326/420/20 357/421/376
f 482/422/22 356/395/353 371/418/374
f 349/396/354 365/407/363 350/400/356
f 343/401/357 357/421/376 358/423/377
f 369/424/370 385/425/378 370/426/372
f 363/427/373 377/428/379 378/429/380
f 370/426/372 386/430/381 371/431/374
f 364/432/375 378/429/380 379/433/382
f 357/434/376 326/435/20 372/436/383
f 482/437/22 371/431/374 386/430/381
f 364/432/375 380/438/384 365/439/363
f 357/434/376 373/440/385 358/441/377
f 366/442/364 380/438/384 381/443/386
f 358/441/377 374/444/387 359/445/365
f 366/442/364 382/446/388 367/447/366
f 359/445/365 375/448/389 360/449/367
f 368/450/368 382/446/388 383/451/390
f 360/449/367 376/452/391 361/453/369
f 368/450/368 384/454/392 369/424/370
f 362/455/371 376/452/391 377/428/379
f 374/444/387 388/456/393 389/457/394
f 381/443/386 397/458/395 382/446/388
f 374/444/387 390/459/396 375/448/389
f 382/446/388 398/460/397 383/451/390
f 375/448/389 391/461/398 376/452/391
f 384/454/392 398/460/397 399/462/399
f 377/428/379 391/461/398 392/463/400
f 385/425/378 399/462/399 400/464/401
f 377/428/379 393/465/402 378/429/380
f 386/430/381 400/464/401 401/466/403
f 379/433/382 393/465/402 394/467/404
f 372/436/383 326/468/20 387/469/405
f 482/470/22 386/430/381 401/466/403
f 379/433/382 395/471/406 380/438/384
f 373/440/385 387/469/405 388/456/393
f 380/438/384 396/472/407 381/443/386
f 392/463/400 408/473/408 393/465/402
f 400/464/401 416/474/409 401/466/403
f 394/467/404 408/473/408 409/475/410
f 387/469/405 326/476/20 402/477/411
f 482/478/22 401/466/403 416/474/409
f 394/467/404 410/479/412 395/471/406
f 387/469/405 403/480/413 388/456/393
f 395/471/406 411/481/414 396/472/407
f 388/456/393 404/482/415 389/457/394
f 397/458/395 411/481/414 412/483/416
f 389/457/394 405/484/417 390/459/396
f 398/460/397 412/483/416 413/485/418
f 390/459/396 406/486/419 391/461/398
f 399/462/399 413/485/418 414/487/420
f 391/461/398 407/488/421 392/463/400
f 399/462/399 415/489/422 400/464/401
f 412/483/416 426/490/423 427/491/424
f 404/482/415 420/492/425 405/484/417
f 412/483/416 428/493/426 413/485/418
f 406/486/419 420/492/425 421/494/427
f 414/487/420 428/493/426 429/495/428
f 406/486/419 422/496/429 407/488/421
f 415/489/422 429/495/428 430/497/430
f 408/473/408 422/496/429 423/498/431
f 415/489/422 431/499/432 416/474/409
f 409/475/410 423/498/431 424/500/433
f 402/477/411 326/501/20 417/502/434
f 482/503/22 416/474/409 431/499/432
f 409/475/410 425/504/435 410/479/412
f 403/480/413 417/502/434 418/505/436
f 410/479/412 426/490/423 411/481/414
f 403/480/413 419/506/437 404/482/415
f 430/497/430 446/507/438 431/499/432
f 424/500/433 438/508/439 439/509/440
f 417/502/434 326/510/20 432/511/441
f 482/512/22 431/499/432 446/507/438
f 424/500/433 440/513/442 425/504/435
f 417/502/434 433/514/443 418/505/436
f 425/504/435 441/515/444 426/490/423
f 419/506/437 433/514/443 434/516/445
f 426/490/423 442/517/446 427/491/424
f 419/506/437 435/518/447 420/492/425
f 427/491/424 443/519/448 428/493/426
f 421/494/427 435/518/447 436/520/449
f 429/495/428 443/519/448 444/521/450
f 422/496/429 436/520/449 437/522/451
f 429/495/428 445/523/452 430/497/430
f 423/498/431 437/522/451 438/508/439
f 442/517/446 458/524/453 443/519/448
f 436/520/449 450/525/454 451/526/455
f 444/521/450 458/524/453 459/527/456
f 436/520/449 452/528/457 437/522/451
f 444/521/450 460/529/458 445/523/452
f 438/508/439 452/528/457 453/530/459
f 445/523/452 461/531/460 446/507/438
f 439/509/440 453/530/459 454/532/461
f 432/511/441 326/533/20 447/534/462
f 482/535/22 446/507/438 461/531/460
f 439/509/440 455/536/463 440/513/442
f 432/511/441 448/537/464 433/514/443
f 440/513/442 456/538/465 441/515/444
f 433/514/443 449/539/466 434/516/445
f 441/515/444 457/540/467 442/517/446
f 434/516/445 450/525/454 435/518/447
f 447/534/462 326/541/20 462/542/468
f 482/543/22 461/531/460 476/544/469
f 454/532/461 470/545/470 455/536/463
f 448/537/464 462/542/468 463/546/471
f 455/536/463 471/547/472 456/538/465
f 449/539/466 463/546/471 464/548/473
f 456/538/465 472/549/474 457/540/467
f 450/525/454 464/548/473 465/550/475
f 457/540/467 473/551/476 458/524/453
f 451/526/455 465/550/475 466/552/477
f 458/524/453 474/553/478 459/527/456
f 451/526/455 467/554/479 452/528/457
f 459/527/456 475/555/480 460/529/458
f 453/530/459 467/554/479 468/556/481
f 460/529/458 476/544/469 461/531/460
f 454/532/461 468/556/481 469/557/482
f 466/552/477 4/4/4 5/6/6
f 473/551/476 10/8/8 474/553/478
f 467/554/479 5/6/6 6/9/9
f 474/553/478 480/12/12 475/555/480
f 468/556/481 6/9/9 7/14/14
f 475/555/480 481/16/16 476/544/469
f 469/557/482 7/14/14 477/17/17
f 462/542/468 326/558/20 1/19/19
f 482/559/22 476/544/469 481/16/16
f 469/557/482 478/24/24 470/545/470
f 463/546/471 1/19/19 2/26/26
f 471/547/472 478/24/24 479/28/28
f 464/548/473 2/26/26 3/29/29
f 471/547/472 8/1/1 472/549/474
f 465/550/475 3/29/29 4/4/4
f 472/549/474 9/3/3 473/551/476
f 8/1/1 21/31/31 22/2/2
f 4/4/4 14/32/32 15/5/5
f 9/3/3 22/2/2 23/7/7
f 6/9/9 5/6/6 15/5/5
f 10/8/8 23/7/7 24/11/11
f 6/9/9 16/10/10 17/13/13
f 480/12/12 24/11/11 25/15/15
f 477/17/17 7/14/14 17/13/13
f 477/17/17 18/18/18 19/23/23
f 1/19/19 11/21/21 12/25/25
f 478/24/24 19/23/23 20/27/27
f 3/29/29 2/26/26 12/25/25
f 479/28/28 20/27/27 21/31/31
f 4/4/4 3/29/29 13/30/30
f 20/27/27 35/48/46 36/33/33
f 13/30/30 28/49/47 29/34/34
f 21/31/31 36/33/33 37/35/35
f 14/32/32 29/34/34 30/36/36
f 22/2/2 37/35/35 38/37/37
f 16/10/10 15/5/5 30/36/36
f 23/7/7 38/37/37 39/39/39
f 16/10/10 31/38/38 32/40/40
f 24/11/11 39/39/39 40/41/41
f 17/13/13 32/40/40 33/42/42
f 18/18/18 33/42/42 34/46/44
f 12/25/25 11/21/21 26/44/43
f 20/27/27 19/23/23 34/46/44
f 12/25/25 27/47/45 28/49/47
f 39/39/39 54/65/61 55/50/48
f 32/40/40 47/66/62 48/51/49
f 33/42/42 48/51/49 49/55/51
f 26/44/43 41/53/50 42/56/52
f 35/48/46 34/46/44 49/55/51
f 28/49/47 27/47/45 42/56/52
f 35/48/46 50/57/53 51/59/55
f 29/34/34 28/49/47 43/58/54
f 37/35/35 36/33/33 51/59/55
f 29/34/34 44/60/56 45/62/58
f 38/37/37 37/35/35 52/61/57
f 30/36/36 45/62/58 46/64/60
f 38/37/37 53/63/59 54/65/61
f 31/38/38 46/64/60 47/66/62
f 43/58/54 58/83/77 59/67/63
f 52/61/57 51/59/55 66/68/64
f 44/60/56 59/67/63 60/70/66
f 53/63/59 52/61/57 67/69/65
f 45/62/58 60/70/66 61/72/68
f 54/65/61 53/63/59 68/71/67
f 47/66/62 46/64/60 61/72/68
f 55/50/48 54/65/61 69/73/69
f 47/66/62 62/74/70 63/76/72
f 48/51/49 63/76/72 64/80/74
f 42/56/52 41/53/50 56/78/73
f 50/57/53 49/55/51 64/80/74
f 42/56/52 57/81/75 58/83/77
f 50/57/53 65/82/76 66/68/64
f 63/76/72 62/74/70 77/84/78
f 63/76/72 78/85/79 79/90/82
f 57/81/75 56/78/73 71/87/80
f 65/82/76 64/80/74 79/90/82
f 58/83/77 57/81/75 72/91/83
f 65/82/76 80/92/84 81/94/86
f 59/67/63 58/83/77 73/93/85
f 66/68/64 81/94/86 82/96/88
f 60/70/66 59/67/63 74/95/87
f 67/69/65 82/96/88 83/98/90
f 60/70/66 75/97/89 76/99/91
f 68/71/67 83/98/90 84/100/92
f 61/72/68 76/99/91 77/84/78
f 69/73/69 84/100/92 85/89/81
f 81/94/86 96/116/106 97/101/93
f 74/95/87 89/117/107 90/102/94
f 83/98/90 82/96/88 97/101/93
f 75/97/89 90/102/94 91/104/96
f 84/100/92 83/98/90 98/103/95
f 77/84/78 76/99/91 91/104/96
f 85/89/81 84/100/92 99/105/97
f 78/85/79 77/84/78 92/106/98
f 78/85/79 93/108/100 94/112/102
f 72/91/83 71/87/80 86/110/101
f 80/92/84 79/90/82 94/112/102
f 72/91/83 87/113/103 88/115/105
f 81/94/86 80/92/84 95/114/104
f 73/93/85 88/115/105 89/117/107
f 93/108/100 108/134/122 109/122/110
f 86/110/101 101/119/108 102/123/111
f 94/112/102 109/122/110 110/124/112
f 87/113/103 102/123/111 103/125/113
f 95/114/104 110/124/112 111/126/114
f 88/115/105 103/125/113 104/127/115
f 96/116/106 111/126/114 112/128/116
f 89/117/107 104/127/115 105/129/117
f 98/103/95 97/101/93 112/128/116
f 90/102/94 105/129/117 106/131/119
f 98/103/95 113/130/118 114/132/120
f 91/104/96 106/131/119 107/133/121
f 100/107/99 99/105/97 114/132/120
f 93/108/100 92/106/98 107/133/121
f 105/129/117 104/127/115 119/135/123
f 113/130/118 112/128/116 127/137/125
f 105/129/117 120/136/124 121/139/127
f 113/130/118 128/138/126 129/140/128
f 107/133/121 106/131/119 121/139/127
f 114/132/120 129/140/128 130/142/130
f 108/134/122 107/133/121 122/141/129
f 108/134/122 123/143/131 124/147/133
f 101/119/108 116/145/132 117/148/134
f 109/122/110 124/147/133 125/149/135
f 103/125/113 102/123/111 117/148/134
f 110/124/112 125/149/135 126/151/137
f 103/125/113 118/150/136 119/135/123
f 111/126/114 126/151/137 127/137/125
f 123/143/131 138/165/151 139/152/138
f 116/145/132 131/167/152 132/153/139
f 125/149/135 124/147/133 139/152/138
f 117/148/134 132/153/139 133/155/141
f 126/151/137 125/149/135 140/154/140
f 118/150/136 133/155/141 134/157/143
f 126/151/137 141/156/142 142/158/144
f 119/135/123 134/157/143 135/159/145
f 127/137/125 142/158/144 143/160/146
f 121/139/127 120/136/124 135/159/145
f 129/140/128 128/138/126 143/160/146
f 122/141/129 121/139/127 136/161/147
f 130/142/130 129/140/128 144/162/148
f 123/143/131 122/141/129 137/163/149
f 142/158/144 157/184/166 158/169/153
f 135/159/145 150/185/167 151/170/154
f 143/160/146 158/169/153 159/171/155
f 137/163/149 136/161/147 151/170/154
f 144/162/148 159/171/155 160/173/157
f 138/165/151 137/163/149 152/172/156
f 138/165/151 153/174/158 154/178/160
f 131/167/152 146/176/159 147/179/161
f 140/154/140 139/152/138 154/178/160
f 132/153/139 147/179/161 148/181/163
f 141/156/142 140/154/140 155/180/162
f 133/155/141 148/181/163 149/183/165
f 141/156/142 156/182/164 157/184/166
f 135/159/145 134/157/143 149/183/165
f 154/178/160 169/202/182 170/186/168
f 148/181/163 147/179/161 162/187/169
f 155/180/162 170/186/168 171/189/171
f 148/181/163 163/188/170 164/190/172
f 156/182/164 171/189/171 172/191/173
f 149/183/165 164/190/172 165/192/174
f 158/169/153 157/184/166 172/191/173
f 150/185/167 165/192/174 166/194/176
f 159/171/155 158/169/153 173/193/175
f 152/172/156 151/170/154 166/194/176
f 160/173/157 159/171/155 174/195/177
f 153/174/158 152/172/156 167/196/178
f 153/174/158 168/198/180 169/202/182
f 147/179/161 146/176/159 161/200/181
f 173/193/175 188/218/196 189/203/183
f 166/194/176 181/219/197 182/204/184
f 175/197/179 174/195/177 189/203/183
f 168/198/180 167/196/178 182/204/184
f 168/198/180 183/206/186 184/210/188
f 161/200/181 176/208/187 177/211/189
f 169/202/182 184/210/188 185/212/190
f 163/188/170 162/187/169 177/211/189
f 171/189/171 170/186/168 185/212/190
f 164/190/172 163/188/170 178/213/191
f 171/189/171 186/214/192 187/216/194
f 164/190/172 179/215/193 180/217/195
f 172/191/173 187/216/194 188/218/196
f 166/194/176 165/192/174 180/217/195
f 177/211/189 192/235/211 193/220/198
f 185/212/190 200/236/212 201/221/199
f 178/213/191 193/220/198 194/222/200
f 187/216/194 186/214/192 201/221/199
f 179/215/193 194/222/200 195/224/202
f 188/218/196 187/216/194 202/223/201
f 181/219/197 180/217/195 195/224/202
f 189/203/183 188/218/196 203/225/203
f 181/219/197 196/226/204 197/228/206
f 189/203/183 204/227/205 205/229/207
f 183/206/186 182/204/184 197/228/206
f 183/206/186 198/230/208 199/234/210
f 176/208/187 191/232/209 192/235/211
f 184/210/188 199/234/210 200/236/212
f 196/226/204 211/253/227 212/237/213
f 205/229/207 204/227/205 219/238/214
f 198/230/208 197/228/206 212/237/213
f 198/230/208 213/240/216 214/244/218
f 192/235/211 191/232/209 206/242/217
f 199/234/210 214/244/218 215/246/220
f 192/235/211 207/245/219 208/247/221
f 200/236/212 215/246/220 216/248/222
f 193/220/198 208/247/221 209/249/223
f 201/221/199 216/248/222 217/250/224
f 195/224/202 194/222/200 209/249/223
f 202/223/201 217/250/224 218/252/226
f 196/226/204 195/224/202 210/251/225
f 204/227/205 203/225/203 218/252/226
f 215/246/220 230/269/241 231/254/228
f 208/247/221 223/270/242 224/255/229
f 216/248/222 231/254/228 232/256/230
f 209/249/223 224/255/229 225/257/231
f 218/252/226 217/250/224 232/256/230
f 210/251/225 225/257/231 226/259/233
f 219/238/214 218/252/226 233/258/232
f 211/253/227 226/259/233 227/261/235
f 219/238/214 234/260/234 235/262/236
f 213/240/216 212/237/213 227/261/235
f 213/240/216 228/263/237 229/267/239
f 206/242/217 221/265/238 222/268/240
f 215/246/220 214/244/218 229/267/239
f 208/247/221 207/245/219 222/268/240
f 235/262/236 234/260/234 249/271/243
f 228/263/237 227/261/235 242/273/245
f 228/263/237 243/274/246 244/278/248
f 221/265/238 236/276/247 237/279/249
f 229/267/239 244/278/248 245/280/250
f 223/270/242 222/268/240 237/279/249
f 230/269/241 245/280/250 246/282/252
f 223/270/242 238/281/251 239/283/253
f 231/254/228 246/282/252 247/284/254
f 225/257/231 224/255/229 239/283/253
f 233/258/232 232/256/230 247/284/254
f 225/257/231 240/285/255 241/287/257
f 233/258/232 248/286/256 249/271/243
f 227/261/235 226/259/233 241/287/257
f 238/281/251 253/303/271 254/288/258
f 246/282/252 261/304/272 262/289/259
f 240/285/255 239/283/253 254/288/258
f 248/286/256 247/284/254 262/289/259
f 241/287/257 240/285/255 255/290/260
f 249/271/243 248/286/256 263/291/261
f 242/273/245 241/287/257 256/292/262
f 249/271/243 264/293/263 265/295/265
f 243/274/246 242/273/245 257/294/264
f 243/274/246 258/296/266 259/300/268
f 236/276/247 251/298/267 252/301/269
f 244/278/248 259/300/268 260/302/270
f 237/279/249 252/301/269 253/303/271
f 245/280/250 260/302/270 261/304/272
f 258/296/266 257/294/264 272/305/273
f 258/296/266 273/306/274 274/311/277
f 252/301/269 251/298/267 266/308/275
f 259/300/268 274/311/277 275/313/279
f 253/303/271 252/301/269 267/312/278
f 260/302/270 275/313/279 276/315/281
f 253/303/271 268/314/280 269/316/282
f 262/289/259 261/304/272 276/315/281
f 254/288/258 269/316/282 270/318/284
f 263/291/261 262/289/259 277/317/283
f 255/290/260 270/318/284 271/320/286
f 263/291/261 278/319/285 279/321/287
f 256/292/262 271/320/286 272/305/273
f 264/293/263 279/321/287 280/310/276
f 276/315/281 291/337/301 292/322/288
f 269/316/282 284/338/302 285/323/289
f 278/319/285 277/317/283 292/322/288
f 271/320/286 270/318/284 285/323/289
f 278/319/285 293/324/290 294/326/292
f 272/305/273 271/320/286 286/325/291
f 279/321/287 294/326/292 295/328/294
f 273/306/274 272/305/273 287/327/293
f 273/306/274 288/329/295 289/333/297
f 267/312/278 266/308/275 281/331/296
f 274/311/277 289/333/297 290/335/299
f 268/314/280 267/312/278 282/334/298
f 275/313/279 290/335/299 291/337/301
f 269/316/282 268/314/280 283/336/300
f 288/329/295 303/353/316 304/341/304
f 281/331/296 296/355/317 297/342/305
f 289/333/297 304/341/304 305/343/306
f 282/334/298 297/342/305 298/344/307
f 290/335/299 305/343/306 306/345/308
f 284/338/302 283/336/300 298/344/307
f 291/337/301 306/345/308 307/347/310
f 284/338/302 299/346/309 300/348/311
f 293/324/290 292/322/288 307/347/310
f 286/325/291 285/323/289 300/348/311
f 294/326/292 293/324/290 308/349/312
f 287/327/293 286/325/291 301/350/313
f 295/328/294 294/326/292 309/351/314
f 288/329/295 287/327/293 302/352/315
f 307/347/310 322/372/332 323/356/318
f 301/350/313 300/348/311 315/357/319
f 308/349/312 323/356/318 324/359/321
f 301/350/313 316/358/320 317/360/322
f 310/340/303 309/351/314 324/359/321
f 303/353/316 302/352/315 317/360/322
f 303/353/316 318/362/324 319/366/326
f 297/342/305 296/355/317 311/364/325
f 305/343/306 304/341/304 319/366/326
f 298/344/307 297/342/305 312/367/327
f 305/343/306 320/368/328 321/370/330
f 298/344/307 313/369/329 314/371/331
f 306/345/308 321/370/330 322/372/332
f 299/346/309 314/371/331 315/357/319
f 311/364/325 327/387/346 328/373/333
f 319/366/326 335/389/347 336/374/334
f 312/367/327 328/373/333 329/375/335
f 320/368/328 336/374/334 337/376/336
f 313/369/329 329/375/335 330/377/337
f 322/372/332 321/370/330 337/376/336
f 314/371/331 330/377/337 331/379/339
f 323/356/318 322/372/332 338/378/338
f 316/358/320 315/357/319 331/379/339
f 323/356/318 339/380/340 340/382/342
f 317/360/322 316/358/320 332/381/341
f 324/359/321 340/382/342 341/384/344
f 318/362/324 317/360/322 333/383/343
f 318/362/324 334/385/345 335/389/347
f 332/381/341 331/379/339 346/390/348
f 340/382/342 339/380/340 354/392/350
f 332/381/341 347/391/349 348/394/352
f 341/384/344 340/382/342 355/393/351
f 334/385/345 333/383/343 348/394/352
f 334/385/345 349/396/354 350/400/356
f 327/387/346 342/398/355 343/401/357
f 335/389/347 350/400/356 351/402/358
f 329/375/335 328/373/333 343/401/357
f 336/374/334 351/402/358 352/404/360
f 330/377/337 329/375/335 344/403/359
f 337/376/336 352/404/360 353/406/362
f 331/379/339 330/377/337 345/405/361
f 338/378/338 353/406/362 354/392/350
f 351/402/358 350/400/356 365/407/363
f 343/401/357 358/423/377 359/409/365
f 351/402/358 366/408/364 367/410/366
f 345/405/361 344/403/359 359/409/365
f 352/404/360 367/410/366 368/412/368
f 345/405/361 360/411/367 361/413/369
f 354/392/350 353/406/362 368/412/368
f 346/390/348 361/413/369 362/415/371
f 354/392/350 369/414/370 370/416/372
f 348/394/352 347/391/349 362/415/371
f 355/393/351 370/416/372 371/418/374
f 349/396/354 348/394/352 363/417/373
f 349/396/354 364/419/375 365/407/363
f 343/401/357 342/398/355 357/421/376
f 369/424/370 384/454/392 385/425/378
f 363/427/373 362/455/371 377/428/379
f 370/426/372 385/425/378 386/430/381
f 364/432/375 363/427/373 378/429/380
f 364/432/375 379/433/382 380/438/384
f 357/434/376 372/436/383 373/440/385
f 366/442/364 365/439/363 380/438/384
f 358/441/377 373/440/385 374/444/387
f 366/442/364 381/443/386 382/446/388
f 359/445/365 374/444/387 375/448/389
f 368/450/368 367/447/366 382/446/388
f 360/449/367 375/448/389 376/452/391
f 368/450/368 383/451/390 384/454/392
f 362/455/371 361/453/369 376/452/391
f 374/444/387 373/440/385 388/456/393
f 381/443/386 396/472/407 397/458/395
f 374/444/387 389/457/394 390/459/396
f 382/446/388 397/458/395 398/460/397
f 375/448/389 390/459/396 391/461/398
f 384/454/392 383/451/390 398/460/397
f 377/428/379 376/452/391 391/461/398
f 385/425/378 384/454/392 399/462/399
f 377/428/379 392/463/400 393/465/402
f 386/430/381 385/425/378 400/464/401
f 379/433/382 378/429/380 393/465/402
f 379/433/382 394/467/404 395/471/406
f 373/440/385 372/436/383 387/469/405
f 380/438/384 395/471/406 396/472/407
f 392/463/400 407/488/421 408/473/408
f 400/464/401 415/489/422 416/474/409
f 394/467/404 393/465/402 408/473/408
f 394/467/404 409/475/410 410/479/412
f 387/469/405 402/477/411 403/480/413
f 395/471/406 410/479/412 411/481/414
f 388/456/393 403/480/413 404/482/415
f 397/458/395 396/472/407 411/481/414
f 389/457/394 404/482/415 405/484/417
f 398/460/397 397/458/395 412/483/416
f 390/459/396 405/484/417 406/486/419
f 399/462/399 398/460/397 413/485/418
f 391/461/398 406/486/419 407/488/421
f 399/462/399 414/487/420 415/489/422
f 412/483/416 411/481/414 426/490/423
f 404/482/415 419/506/437 420/492/425
f 412/483/416 427/491/424 428/493/426
f 406/486/419 405/484/417 420/492/425
f 414/487/420 413/485/418 428/493/426
f 406/486/419 421/494/427 422/496/429
f 415/489/422 414/487/420 429/495/428
f 408/473/408 407/488/421 422/496/429
f 415/489/422 430/497/430 431/499/432
f 409/475/410 408/473/408 423/498/431
f 409/475/410 424/500/433 425/504/435
f 403/480/413 402/477/411 417/502/434
f 410/479/412 425/504/435 426/490/423
f 403/480/413 418/505/436 419/506/437
f 430/497/430 445/523/452 446/507/438
f 424/500/433 423/498/431 438/508/439
f 424/500/433 439/509/440 440/513/442
f 417/502/434 432/511/441 433/514/443
f 425/504/435 440/513/442 441/515/444
f 419/506/437 418/505/436 433/514/443
f 426/490/423 441/515/444 442/517/446
f 419/506/437 434/516/445 435/518/447
f 427/491/424 442/517/446 443/519/448
f 421/494/427 420/492/425 435/518/447
f 429/495/428 428/493/426 443/519/448
f 422/496/429 421/494/427 436/520/449
f 429/495/428 444/521/450 445/523/452
f 423/498/431 422/496/429 437/522/451
f 442/517/446 457/540/467 458/524/453
f 436/520/449 435/518/447 450/525/454
f 444/521/450 443/519/448 458/524/453
f 436/520/449 451/526/455 452/528/457
f 444/521/450 459/527/456 460/529/458
f 438/508/439 437/522/451 452/528/457
f 445/523/452 460/529/458 461/531/460
f 439/509/440 438/508/439 453/530/459
f 439/509/440 454/532/461 455/536/463
f 432/511/441 447/534/462 448/537/464
f 440/513/442 455/536/463 456/538/465
f 433/514/443 448/537/464 449/539/466
f 441/515/444 456/538/465 457/540/467
f 434/516/445 449/539/466 450/525/454
f 454/532/461 469/557/482 470/545/470
f 448/537/464 447/534/462 462/542/468
f 455/536/463 470/545/470 471/547/472
f 449/539/466 448/537/464 463/546/471
f 456/538/465 471/547/472 472/549/474
f 450/525/454 449/539/466 464/548/473
f 457/540/467 472/549/474 473/551/476
f 451/526/455 450/525/454 465/550/475
f 458/524/453 473/551/476 474/553/478
f 451/526/455 466/552/477 467/554/479
f 459/527/456 474/553/478 475/555/480
f 453/530/459 452/528/457 467/554/479
f 460/529/458 475/555/480 476/544/469
f 454/532/461 453/530/459 468/556/481
f 466/552/477 465/550/475 4/4/4
f 473/551/476 9/3/3 10/8/8
f 467/554/479 466/552/477 5/6/6
f 474/553/478 10/8/8 480/12/12
f 468/556/481 467/554/479 6/9/9
f 475/555/480 480/12/12 481/16/16
f 469/557/482 468/556/481 7/14/14
f 469/557/482 477/17/17 478/24/24
f 463/546/471 462/542/468 1/19/19
f 471/547/472 470/545/470 478/24/24
f 464/548/473 463/546/471 2/26/26
f 471/547/472 479/28/28 8/1/1
f 465/550/475 464/548/473 3/29/29
f 472/549/474 8/1/1 9/3/3
